<svg width="1440" height="510" viewBox="0 0 1440 510" fill="none" xmlns="http://www.w3.org/2000/svg">
<g style="mix-blend-mode:plus-lighter" opacity="0.2">
<path d="M-223.5 -284.5H-192.5V-312H-191.5V-284.5H-160.5V-312H-159.5V-284.5H-128.5V-312H-127.5V-284.5H-96.5V-312H-95.5V-284.5H-64.5V-312H-63.5V-284.5H-32.5V-312H-31.5V-284.5H-0.5V-312H0.5V-284.5H31.5V-312H32.5V-284.5H63.5V-312H64.5V-284.5H95.5V-312H96.5V-284.5H127.5V-312H128.5V-284.5H159.5V-312H160.5V-284.5H191.5V-312H192.5V-284.5H223.5V-312H224.5V-284.5H255.5V-312H256.5V-284.5H287.5V-312H288.5V-284.5H319.5V-312H320.5V-284.5H351.5V-312H352.5V-284.5H383.5V-312H384.5V-284.5H415.5V-312H416.5V-284.5H447.5V-312H448.5V-284.5H479.5V-312H480.5V-284.5H511.5V-312H512.5V-284.5H543.5V-312H544.5V-284.5H575.5V-312H576.5V-284.5H607.5V-312H608.5V-284.5H639.5V-312H640.5V-284.5H671.5V-312H672.5V-284.5H703.5V-312H704.5V-284.5H735.5V-312H736.5V-284.5H767.5V-312H768.5V-284.5H799.5V-312H800.5V-284.5H831.5V-312H832.5V-284.5H863.5V-312H864.5V-284.5H895.5V-312H896.5V-284.5H927.5V-312H928.5V-284.5H959.5V-312H960.5V-284.5H991.5V-312H992.5V-284.5H1023.5V-312H1024.5V-284.5H1055.5V-312H1056.5V-284.5H1087.5V-312H1088.5V-284.5H1119.5V-312H1120.5V-284.5H1151.5V-312H1152.5V-284.5H1183.5V-312H1184.5V-284.5H1215.5V-312H1216.5V-284.5H1247.5V-312H1248.5V-284.5H1279.5V-312H1280.5V-284.5H1311.5V-312H1312.5V-284.5H1343.5V-312H1344.5V-284.5H1375.5V-312H1376.5V-284.5H1407.5V-312H1408.5V-284.5H1439.5V-312H1440.5V-284.5H1471.5V-312H1472.5V-284.5H1503.5V-312H1504.5V-284.5H1535.5V-312H1536.5V-284.5H1567.5V-312H1568.5V-284.5H1599.5V-312H1600.5V-284.5H1631.5V-312H1632.5V-284.5H1663.5V-312H1664.5V-284.5H1720V-283.5H1664.5V-252.5H1720V-251.5H1664.5V-220.5H1720V-219.5H1664.5V-188.5H1720V-187.5H1664.5V-156.5H1720V-155.5H1664.5V-124.5H1720V-123.5H1664.5V-92.5H1720V-91.5H1664.5V-60.5H1720V-59.5H1664.5V-28.5H1720V-27.5H1664.5V3.5H1720V4.5H1664.5V35.5H1720V36.5H1664.5V67.5H1720V68.5H1664.5V99.5H1720V100.5H1664.5V131.5H1720V132.5H1664.5V163.5H1720V164.5H1664.5V195.5H1720V196.5H1664.5V227.5H1720V228.5H1664.5V259.5H1720V260.5H1664.5V291.5H1720V292.5H1664.5V323.5H1720V324.5H1664.5V355.5H1720V356.5H1664.5V384H1663.5V356.5H1632.5V384H1631.5V356.5H1600.5V384H1599.5V356.5H1568.5V384H1567.5V356.5H1536.5V384H1535.5V356.5H1504.5V384H1503.5V356.5H1472.5V384H1471.5V356.5H1440.5V384H1439.5V356.5H1408.5V384H1407.5V356.5H1376.5V384H1375.5V356.5H1344.5V384H1343.5V356.5H1312.5V384H1311.5V356.5H1280.5V384H1279.5V356.5H1248.5V384H1247.5V356.5H1216.5V384H1215.5V356.5H1184.5V384H1183.5V356.5H1152.5V384H1151.5V356.5H1120.5V384H1119.5V356.5H1088.5V384H1087.5V356.5H1056.5V384H1055.5V356.5H1024.5V384H1023.5V356.5H992.5V384H991.5V356.5H960.5V384H959.5V356.5H928.5V384H927.5V356.5H896.5V384H895.5V356.5H864.5V384H863.5V356.5H832.5V384H831.5V356.5H800.5V384H799.5V356.5H768.5V384H767.5V356.5H736.5V384H735.5V356.5H704.5V384H703.5V356.5H672.5V384H671.5V356.5H640.5V384H639.5V356.5H608.5V384H607.5V356.5H576.5V384H575.5V356.5H544.5V384H543.5V356.5H512.5V384H511.5V356.5H480.5V384H479.5V356.5H448.5V384H447.5V356.5H416.5V384H415.5V356.5H384.5V384H383.5V356.5H352.5V384H351.5V356.5H320.5V384H319.5V356.5H288.5V384H287.5V356.5H256.5V384H255.5V356.5H224.5V384H223.5V356.5H192.5V384H191.5V356.5H160.5V384H159.5V356.5H128.5V384H127.5V356.5H96.5V384H95.5V356.5H64.5V384H63.5V356.5H32.5V384H31.5V356.5H0.5V384H-0.5V356.5H-31.5V384H-32.5V356.5H-63.5V384H-64.5V356.5H-95.5V384H-96.5V356.5H-127.5V384H-128.5V356.5H-159.5V384H-160.5V356.5H-191.5V384H-192.5V356.5H-223.5V384H-224.5V356.5H-280V355.5H-224.5V324.5H-280V323.5H-224.5V292.5H-280V291.5H-224.5V260.5H-280V259.5H-224.5V228.5H-280V227.5H-224.5V196.5H-280V195.5H-224.5V164.5H-280V163.5H-224.5V132.5H-280V131.5H-224.5V100.5H-280V99.5H-224.5V68.5H-280V67.5H-224.5V36.5H-280V35.5H-224.5V4.5H-280V3.5H-224.5V-27.5H-280V-28.5H-224.5V-59.5H-280V-60.5H-224.5V-91.5H-280V-92.5H-224.5V-123.5H-280V-124.5H-224.5V-155.5H-280V-156.5H-224.5V-187.5H-280V-188.5H-224.5V-219.5H-280V-220.5H-224.5V-251.5H-280V-252.5H-224.5V-283.5H-280V-284.5H-224.5V-312H-223.5V-284.5ZM1632.5 324.5V355.5H1663.5V324.5H1632.5ZM-223.5 355.5H-192.5V324.5H-223.5V355.5ZM-191.5 355.5H-160.5V324.5H-191.5V355.5ZM-159.5 355.5H-128.5V324.5H-159.5V355.5ZM-127.5 355.5H-96.5V324.5H-127.5V355.5ZM-95.5 355.5H-64.5V324.5H-95.5V355.5ZM-63.5 355.5H-32.5V324.5H-63.5V355.5ZM-31.5 355.5H-0.5V324.5H-31.5V355.5ZM0.5 355.5H31.5V324.5H0.5V355.5ZM32.5 355.5H63.5V324.5H32.5V355.5ZM64.5 355.5H95.5V324.5H64.5V355.5ZM96.5 355.5H127.5V324.5H96.5V355.5ZM128.5 355.5H159.5V324.5H128.5V355.5ZM160.5 355.5H191.5V324.5H160.5V355.5ZM192.5 355.5H223.5V324.5H192.5V355.5ZM224.5 355.5H255.5V324.5H224.5V355.5ZM256.5 355.5H287.5V324.5H256.5V355.5ZM288.5 355.5H319.5V324.5H288.5V355.5ZM320.5 355.5H351.5V324.5H320.5V355.5ZM352.5 355.5H383.5V324.5H352.5V355.5ZM384.5 355.5H415.5V324.5H384.5V355.5ZM416.5 355.5H447.5V324.5H416.5V355.5ZM448.5 355.5H479.5V324.5H448.5V355.5ZM480.5 355.5H511.5V324.5H480.5V355.5ZM512.5 355.5H543.5V324.5H512.5V355.5ZM544.5 355.5H575.5V324.5H544.5V355.5ZM576.5 355.5H607.5V324.5H576.5V355.5ZM608.5 355.5H639.5V324.5H608.5V355.5ZM640.5 355.5H671.5V324.5H640.5V355.5ZM672.5 355.5H703.5V324.5H672.5V355.5ZM704.5 355.5H735.5V324.5H704.5V355.5ZM736.5 355.5H767.5V324.5H736.5V355.5ZM768.5 355.5H799.5V324.5H768.5V355.5ZM800.5 355.5H831.5V324.5H800.5V355.5ZM832.5 355.5H863.5V324.5H832.5V355.5ZM864.5 355.5H895.5V324.5H864.5V355.5ZM896.5 355.5H927.5V324.5H896.5V355.5ZM928.5 355.5H959.5V324.5H928.5V355.5ZM960.5 355.5H991.5V324.5H960.5V355.5ZM992.5 355.5H1023.5V324.5H992.5V355.5ZM1024.5 355.5H1055.5V324.5H1024.5V355.5ZM1056.5 355.5H1087.5V324.5H1056.5V355.5ZM1088.5 355.5H1119.5V324.5H1088.5V355.5ZM1120.5 355.5H1151.5V324.5H1120.5V355.5ZM1152.5 355.5H1183.5V324.5H1152.5V355.5ZM1184.5 355.5H1215.5V324.5H1184.5V355.5ZM1216.5 355.5H1247.5V324.5H1216.5V355.5ZM1248.5 355.5H1279.5V324.5H1248.5V355.5ZM1280.5 355.5H1311.5V324.5H1280.5V355.5ZM1312.5 355.5H1343.5V324.5H1312.5V355.5ZM1344.5 355.5H1375.5V324.5H1344.5V355.5ZM1376.5 355.5H1407.5V324.5H1376.5V355.5ZM1408.5 355.5H1439.5V324.5H1408.5V355.5ZM1440.5 355.5H1471.5V324.5H1440.5V355.5ZM1472.5 355.5H1503.5V324.5H1472.5V355.5ZM1504.5 355.5H1535.5V324.5H1504.5V355.5ZM1536.5 355.5H1567.5V324.5H1536.5V355.5ZM1568.5 355.5H1599.5V324.5H1568.5V355.5ZM1600.5 355.5H1631.5V324.5H1600.5V355.5ZM1632.5 292.5V323.5H1663.5V292.5H1632.5ZM-223.5 323.5H-192.5V292.5H-223.5V323.5ZM-191.5 323.5H-160.5V292.5H-191.5V323.5ZM-159.5 323.5H-128.5V292.5H-159.5V323.5ZM-127.5 323.5H-96.5V292.5H-127.5V323.5ZM-95.5 323.5H-64.5V292.5H-95.5V323.5ZM-63.5 323.5H-32.5V292.5H-63.5V323.5ZM-31.5 323.5H-0.5V292.5H-31.5V323.5ZM0.5 323.5H31.5V292.5H0.5V323.5ZM32.5 323.5H63.5V292.5H32.5V323.5ZM64.5 323.5H95.5V292.5H64.5V323.5ZM96.5 323.5H127.5V292.5H96.5V323.5ZM128.5 323.5H159.5V292.5H128.5V323.5ZM160.5 323.5H191.5V292.5H160.5V323.5ZM192.5 323.5H223.5V292.5H192.5V323.5ZM224.5 323.5H255.5V292.5H224.5V323.5ZM256.5 323.5H287.5V292.5H256.5V323.5ZM288.5 323.5H319.5V292.5H288.5V323.5ZM320.5 323.5H351.5V292.5H320.5V323.5ZM352.5 323.5H383.5V292.5H352.5V323.5ZM384.5 323.5H415.5V292.5H384.5V323.5ZM416.5 323.5H447.5V292.5H416.5V323.5ZM448.5 323.5H479.5V292.5H448.5V323.5ZM480.5 323.5H511.5V292.5H480.5V323.5ZM512.5 323.5H543.5V292.5H512.5V323.5ZM544.5 323.5H575.5V292.5H544.5V323.5ZM576.5 323.5H607.5V292.5H576.5V323.5ZM608.5 323.5H639.5V292.5H608.5V323.5ZM640.5 323.5H671.5V292.5H640.5V323.5ZM672.5 323.5H703.5V292.5H672.5V323.5ZM704.5 323.5H735.5V292.5H704.5V323.5ZM736.5 323.5H767.5V292.5H736.5V323.5ZM768.5 323.5H799.5V292.5H768.5V323.5ZM800.5 323.5H831.5V292.5H800.5V323.5ZM832.5 323.5H863.5V292.5H832.5V323.5ZM864.5 323.5H895.5V292.5H864.5V323.5ZM896.5 323.5H927.5V292.5H896.5V323.5ZM928.5 323.5H959.5V292.5H928.5V323.5ZM960.5 323.5H991.5V292.5H960.5V323.5ZM992.5 323.5H1023.5V292.5H992.5V323.5ZM1024.5 323.5H1055.5V292.5H1024.5V323.5ZM1056.5 323.5H1087.5V292.5H1056.5V323.5ZM1088.5 323.5H1119.5V292.5H1088.5V323.5ZM1120.5 323.5H1151.5V292.5H1120.5V323.5ZM1152.5 323.5H1183.5V292.5H1152.5V323.5ZM1184.5 323.5H1215.5V292.5H1184.5V323.5ZM1216.5 323.5H1247.5V292.5H1216.5V323.5ZM1248.5 323.5H1279.5V292.5H1248.5V323.5ZM1280.5 323.5H1311.5V292.5H1280.5V323.5ZM1312.5 323.5H1343.5V292.5H1312.5V323.5ZM1344.5 323.5H1375.5V292.5H1344.5V323.5ZM1376.5 323.5H1407.5V292.5H1376.5V323.5ZM1408.5 323.5H1439.5V292.5H1408.5V323.5ZM1440.5 323.5H1471.5V292.5H1440.5V323.5ZM1472.5 323.5H1503.5V292.5H1472.5V323.5ZM1504.5 323.5H1535.5V292.5H1504.5V323.5ZM1536.5 323.5H1567.5V292.5H1536.5V323.5ZM1568.5 323.5H1599.5V292.5H1568.5V323.5ZM1600.5 323.5H1631.5V292.5H1600.5V323.5ZM1632.5 260.5V291.5H1663.5V260.5H1632.5ZM-223.5 291.5H-192.5V260.5H-223.5V291.5ZM-191.5 291.5H-160.5V260.5H-191.5V291.5ZM-159.5 291.5H-128.5V260.5H-159.5V291.5ZM-127.5 291.5H-96.5V260.5H-127.5V291.5ZM-95.5 291.5H-64.5V260.5H-95.5V291.5ZM-63.5 291.5H-32.5V260.5H-63.5V291.5ZM-31.5 291.5H-0.5V260.5H-31.5V291.5ZM0.5 291.5H31.5V260.5H0.5V291.5ZM32.5 291.5H63.5V260.5H32.5V291.5ZM64.5 291.5H95.5V260.5H64.5V291.5ZM96.5 291.5H127.5V260.5H96.5V291.5ZM128.5 291.5H159.5V260.5H128.5V291.5ZM160.5 291.5H191.5V260.5H160.5V291.5ZM192.5 291.5H223.5V260.5H192.5V291.5ZM224.5 291.5H255.5V260.5H224.5V291.5ZM256.5 291.5H287.5V260.5H256.5V291.5ZM288.5 291.5H319.5V260.5H288.5V291.5ZM320.5 291.5H351.5V260.5H320.5V291.5ZM352.5 291.5H383.5V260.5H352.5V291.5ZM384.5 291.5H415.5V260.5H384.5V291.5ZM416.5 291.5H447.5V260.5H416.5V291.5ZM448.5 291.5H479.5V260.5H448.5V291.5ZM480.5 291.5H511.5V260.5H480.5V291.5ZM512.5 291.5H543.5V260.5H512.5V291.5ZM544.5 291.5H575.5V260.5H544.5V291.5ZM576.5 291.5H607.5V260.5H576.5V291.5ZM608.5 291.5H639.5V260.5H608.5V291.5ZM640.5 291.5H671.5V260.5H640.5V291.5ZM672.5 291.5H703.5V260.5H672.5V291.5ZM704.5 291.5H735.5V260.5H704.5V291.5ZM736.5 291.5H767.5V260.5H736.5V291.5ZM768.5 291.5H799.5V260.5H768.5V291.5ZM800.5 291.5H831.5V260.5H800.5V291.5ZM832.5 291.5H863.5V260.5H832.5V291.5ZM864.5 291.5H895.5V260.5H864.5V291.5ZM896.5 291.5H927.5V260.5H896.5V291.5ZM928.5 291.5H959.5V260.5H928.5V291.5ZM960.5 291.5H991.5V260.5H960.5V291.5ZM992.5 291.5H1023.5V260.5H992.5V291.5ZM1024.5 291.5H1055.5V260.5H1024.5V291.5ZM1056.5 291.5H1087.5V260.5H1056.5V291.5ZM1088.5 291.5H1119.5V260.5H1088.5V291.5ZM1120.5 291.5H1151.5V260.5H1120.5V291.5ZM1152.5 291.5H1183.5V260.5H1152.5V291.5ZM1184.5 291.5H1215.5V260.5H1184.5V291.5ZM1216.5 291.5H1247.5V260.5H1216.5V291.5ZM1248.5 291.5H1279.5V260.5H1248.5V291.5ZM1280.5 291.5H1311.5V260.5H1280.5V291.5ZM1312.5 291.5H1343.5V260.5H1312.5V291.5ZM1344.5 291.5H1375.5V260.5H1344.5V291.5ZM1376.5 291.5H1407.5V260.5H1376.5V291.5ZM1408.5 291.5H1439.5V260.5H1408.5V291.5ZM1440.5 291.5H1471.5V260.5H1440.5V291.5ZM1472.5 291.5H1503.5V260.5H1472.5V291.5ZM1504.5 291.5H1535.5V260.5H1504.5V291.5ZM1536.5 291.5H1567.5V260.5H1536.5V291.5ZM1568.5 291.5H1599.5V260.5H1568.5V291.5ZM1600.5 291.5H1631.5V260.5H1600.5V291.5ZM1632.5 228.5V259.5H1663.5V228.5H1632.5ZM-223.5 259.5H-192.5V228.5H-223.5V259.5ZM-191.5 259.5H-160.5V228.5H-191.5V259.5ZM-159.5 259.5H-128.5V228.5H-159.5V259.5ZM-127.5 259.5H-96.5V228.5H-127.5V259.5ZM-95.5 259.5H-64.5V228.5H-95.5V259.5ZM-63.5 259.5H-32.5V228.5H-63.5V259.5ZM-31.5 259.5H-0.5V228.5H-31.5V259.5ZM0.5 259.5H31.5V228.5H0.5V259.5ZM32.5 259.5H63.5V228.5H32.5V259.5ZM64.5 259.5H95.5V228.5H64.5V259.5ZM96.5 259.5H127.5V228.5H96.5V259.5ZM128.5 259.5H159.5V228.5H128.5V259.5ZM160.5 259.5H191.5V228.5H160.5V259.5ZM192.5 259.5H223.5V228.5H192.5V259.5ZM224.5 259.5H255.5V228.5H224.5V259.5ZM256.5 259.5H287.5V228.5H256.5V259.5ZM288.5 259.5H319.5V228.5H288.5V259.5ZM320.5 259.5H351.5V228.5H320.5V259.5ZM352.5 259.5H383.5V228.5H352.5V259.5ZM384.5 259.5H415.5V228.5H384.5V259.5ZM416.5 259.5H447.5V228.5H416.5V259.5ZM448.5 259.5H479.5V228.5H448.5V259.5ZM480.5 259.5H511.5V228.5H480.5V259.5ZM512.5 259.5H543.5V228.5H512.5V259.5ZM544.5 259.5H575.5V228.5H544.5V259.5ZM576.5 259.5H607.5V228.5H576.5V259.5ZM608.5 259.5H639.5V228.5H608.5V259.5ZM640.5 259.5H671.5V228.5H640.5V259.5ZM672.5 259.5H703.5V228.5H672.5V259.5ZM704.5 259.5H735.5V228.5H704.5V259.5ZM736.5 259.5H767.5V228.5H736.5V259.5ZM768.5 259.5H799.5V228.5H768.5V259.5ZM800.5 259.5H831.5V228.5H800.5V259.5ZM832.5 259.5H863.5V228.5H832.5V259.5ZM864.5 259.5H895.5V228.5H864.5V259.5ZM896.5 259.5H927.5V228.5H896.5V259.5ZM928.5 259.5H959.5V228.5H928.5V259.5ZM960.5 259.5H991.5V228.5H960.5V259.5ZM992.5 259.5H1023.5V228.5H992.5V259.5ZM1024.5 259.5H1055.5V228.5H1024.5V259.5ZM1056.5 259.5H1087.5V228.5H1056.5V259.5ZM1088.5 259.5H1119.5V228.5H1088.5V259.5ZM1120.5 259.5H1151.5V228.5H1120.5V259.5ZM1152.5 259.5H1183.5V228.5H1152.5V259.5ZM1184.5 259.5H1215.5V228.5H1184.5V259.5ZM1216.5 259.5H1247.5V228.5H1216.5V259.5ZM1248.5 259.5H1279.5V228.5H1248.5V259.5ZM1280.5 259.5H1311.5V228.5H1280.5V259.5ZM1312.5 259.5H1343.5V228.5H1312.5V259.5ZM1344.5 259.5H1375.5V228.5H1344.5V259.5ZM1376.5 259.5H1407.5V228.5H1376.5V259.5ZM1408.5 259.5H1439.5V228.5H1408.5V259.5ZM1440.5 259.5H1471.5V228.5H1440.5V259.5ZM1472.5 259.5H1503.5V228.5H1472.5V259.5ZM1504.5 259.5H1535.5V228.5H1504.5V259.5ZM1536.5 259.5H1567.5V228.5H1536.5V259.5ZM1568.5 259.5H1599.5V228.5H1568.5V259.5ZM1600.5 259.5H1631.5V228.5H1600.5V259.5ZM1632.5 196.5V227.5H1663.5V196.5H1632.5ZM-223.5 227.5H-192.5V196.5H-223.5V227.5ZM-191.5 227.5H-160.5V196.5H-191.5V227.5ZM-159.5 227.5H-128.5V196.5H-159.5V227.5ZM-127.5 227.5H-96.5V196.5H-127.5V227.5ZM-95.5 227.5H-64.5V196.5H-95.5V227.5ZM-63.5 227.5H-32.5V196.5H-63.5V227.5ZM-31.5 227.5H-0.5V196.5H-31.5V227.5ZM0.5 227.5H31.5V196.5H0.5V227.5ZM32.5 227.5H63.5V196.5H32.5V227.5ZM64.5 227.5H95.5V196.5H64.5V227.5ZM96.5 227.5H127.5V196.5H96.5V227.5ZM128.5 227.5H159.5V196.5H128.5V227.5ZM160.5 227.5H191.5V196.5H160.5V227.5ZM192.5 227.5H223.5V196.5H192.5V227.5ZM224.5 227.5H255.5V196.5H224.5V227.5ZM256.5 227.5H287.5V196.5H256.5V227.5ZM288.5 227.5H319.5V196.5H288.5V227.5ZM320.5 227.5H351.5V196.5H320.5V227.5ZM352.5 227.5H383.5V196.5H352.5V227.5ZM384.5 227.5H415.5V196.5H384.5V227.5ZM416.5 227.5H447.5V196.5H416.5V227.5ZM448.5 227.5H479.5V196.5H448.5V227.5ZM480.5 227.5H511.5V196.5H480.5V227.5ZM512.5 227.5H543.5V196.5H512.5V227.5ZM544.5 227.5H575.5V196.5H544.5V227.5ZM576.5 227.5H607.5V196.5H576.5V227.5ZM608.5 227.5H639.5V196.5H608.5V227.5ZM640.5 227.5H671.5V196.5H640.5V227.5ZM672.5 227.5H703.5V196.5H672.5V227.5ZM704.5 227.5H735.5V196.5H704.5V227.5ZM736.5 227.5H767.5V196.5H736.5V227.5ZM768.5 227.5H799.5V196.5H768.5V227.5ZM800.5 227.5H831.5V196.5H800.5V227.5ZM832.5 227.5H863.5V196.5H832.5V227.5ZM864.5 227.5H895.5V196.5H864.5V227.5ZM896.5 227.5H927.5V196.5H896.5V227.5ZM928.5 227.5H959.5V196.5H928.5V227.5ZM960.5 227.5H991.5V196.5H960.5V227.5ZM992.5 227.5H1023.5V196.5H992.5V227.5ZM1024.5 227.5H1055.5V196.5H1024.5V227.5ZM1056.5 227.5H1087.5V196.5H1056.5V227.5ZM1088.5 227.5H1119.5V196.5H1088.5V227.5ZM1120.5 227.5H1151.5V196.5H1120.5V227.5ZM1152.5 227.5H1183.5V196.5H1152.5V227.5ZM1184.5 227.5H1215.5V196.5H1184.5V227.5ZM1216.5 227.5H1247.5V196.5H1216.5V227.5ZM1248.5 227.5H1279.5V196.5H1248.5V227.5ZM1280.5 227.5H1311.5V196.5H1280.5V227.5ZM1312.5 227.5H1343.5V196.5H1312.5V227.5ZM1344.5 227.5H1375.5V196.5H1344.5V227.5ZM1376.5 227.5H1407.5V196.5H1376.5V227.5ZM1408.5 227.5H1439.5V196.5H1408.5V227.5ZM1440.5 227.5H1471.5V196.5H1440.5V227.5ZM1472.5 227.5H1503.5V196.5H1472.5V227.5ZM1504.5 227.5H1535.5V196.5H1504.5V227.5ZM1536.5 227.5H1567.5V196.5H1536.5V227.5ZM1568.5 227.5H1599.5V196.5H1568.5V227.5ZM1600.5 227.5H1631.5V196.5H1600.5V227.5ZM1632.5 164.5V195.5H1663.5V164.5H1632.5ZM-223.5 195.5H-192.5V164.5H-223.5V195.5ZM-191.5 195.5H-160.5V164.5H-191.5V195.5ZM-159.5 195.5H-128.5V164.5H-159.5V195.5ZM-127.5 195.5H-96.5V164.5H-127.5V195.5ZM-95.5 195.5H-64.5V164.5H-95.5V195.5ZM-63.5 195.5H-32.5V164.5H-63.5V195.5ZM-31.5 195.5H-0.5V164.5H-31.5V195.5ZM0.5 195.5H31.5V164.5H0.5V195.5ZM32.5 195.5H63.5V164.5H32.5V195.5ZM64.5 195.5H95.5V164.5H64.5V195.5ZM96.5 195.5H127.5V164.5H96.5V195.5ZM128.5 195.5H159.5V164.5H128.5V195.5ZM160.5 195.5H191.5V164.5H160.5V195.5ZM192.5 195.5H223.5V164.5H192.5V195.5ZM224.5 195.5H255.5V164.5H224.5V195.5ZM256.5 195.5H287.5V164.5H256.5V195.5ZM288.5 195.5H319.5V164.5H288.5V195.5ZM320.5 195.5H351.5V164.5H320.5V195.5ZM352.5 195.5H383.5V164.5H352.5V195.5ZM384.5 195.5H415.5V164.5H384.5V195.5ZM416.5 195.5H447.5V164.5H416.5V195.5ZM448.5 195.5H479.5V164.5H448.5V195.5ZM480.5 195.5H511.5V164.5H480.5V195.5ZM512.5 195.5H543.5V164.5H512.5V195.5ZM544.5 195.5H575.5V164.5H544.5V195.5ZM576.5 195.5H607.5V164.5H576.5V195.5ZM608.5 195.5H639.5V164.5H608.5V195.5ZM640.5 195.5H671.5V164.5H640.5V195.5ZM672.5 195.5H703.5V164.5H672.5V195.5ZM704.5 195.5H735.5V164.5H704.5V195.5ZM736.5 195.5H767.5V164.5H736.5V195.5ZM768.5 195.5H799.5V164.5H768.5V195.5ZM800.5 195.5H831.5V164.5H800.5V195.5ZM832.5 195.5H863.5V164.5H832.5V195.5ZM864.5 195.5H895.5V164.5H864.5V195.5ZM896.5 195.5H927.5V164.5H896.5V195.5ZM928.5 195.5H959.5V164.5H928.5V195.5ZM960.5 195.5H991.5V164.5H960.5V195.5ZM992.5 195.5H1023.5V164.5H992.5V195.5ZM1024.5 195.5H1055.5V164.5H1024.5V195.5ZM1056.5 195.5H1087.5V164.5H1056.5V195.5ZM1088.5 195.5H1119.5V164.5H1088.5V195.5ZM1120.5 195.5H1151.5V164.5H1120.5V195.5ZM1152.5 195.5H1183.5V164.5H1152.5V195.5ZM1184.5 195.5H1215.5V164.5H1184.5V195.5ZM1216.5 195.5H1247.5V164.5H1216.5V195.5ZM1248.5 195.5H1279.5V164.5H1248.5V195.5ZM1280.5 195.5H1311.5V164.5H1280.5V195.5ZM1312.5 195.5H1343.5V164.5H1312.5V195.5ZM1344.5 195.5H1375.5V164.5H1344.5V195.5ZM1376.5 195.5H1407.5V164.5H1376.5V195.5ZM1408.5 195.5H1439.5V164.5H1408.5V195.5ZM1440.5 195.5H1471.5V164.5H1440.5V195.5ZM1472.5 195.5H1503.5V164.5H1472.5V195.5ZM1504.5 195.5H1535.5V164.5H1504.5V195.5ZM1536.5 195.5H1567.5V164.5H1536.5V195.5ZM1568.5 195.5H1599.5V164.5H1568.5V195.5ZM1600.5 195.5H1631.5V164.5H1600.5V195.5ZM1632.5 132.5V163.5H1663.5V132.5H1632.5ZM-223.5 163.5H-192.5V132.5H-223.5V163.5ZM-191.5 163.5H-160.5V132.5H-191.5V163.5ZM-159.5 163.5H-128.5V132.5H-159.5V163.5ZM-127.5 163.5H-96.5V132.5H-127.5V163.5ZM-95.5 163.5H-64.5V132.5H-95.5V163.5ZM-63.5 163.5H-32.5V132.5H-63.5V163.5ZM-31.5 163.5H-0.5V132.5H-31.5V163.5ZM0.5 163.5H31.5V132.5H0.5V163.5ZM32.5 163.5H63.5V132.5H32.5V163.5ZM64.5 163.5H95.5V132.5H64.5V163.5ZM96.5 163.5H127.5V132.5H96.5V163.5ZM128.5 163.5H159.5V132.5H128.5V163.5ZM160.5 163.5H191.5V132.5H160.5V163.5ZM192.5 163.5H223.5V132.5H192.5V163.5ZM224.5 163.5H255.5V132.5H224.5V163.5ZM256.5 163.5H287.5V132.5H256.5V163.5ZM288.5 163.5H319.5V132.5H288.5V163.5ZM320.5 163.5H351.5V132.5H320.5V163.5ZM352.5 163.5H383.5V132.5H352.5V163.5ZM384.5 163.5H415.5V132.5H384.5V163.5ZM416.5 163.5H447.5V132.5H416.5V163.5ZM448.5 163.5H479.5V132.5H448.5V163.5ZM480.5 163.5H511.5V132.5H480.5V163.5ZM512.5 163.5H543.5V132.5H512.5V163.5ZM544.5 163.5H575.5V132.5H544.5V163.5ZM576.5 163.5H607.5V132.5H576.5V163.5ZM608.5 163.5H639.5V132.5H608.5V163.5ZM640.5 163.5H671.5V132.5H640.5V163.5ZM672.5 163.5H703.5V132.5H672.5V163.5ZM704.5 163.5H735.5V132.5H704.5V163.5ZM736.5 163.5H767.5V132.5H736.5V163.5ZM768.5 163.5H799.5V132.5H768.5V163.5ZM800.5 163.5H831.5V132.5H800.5V163.5ZM832.5 163.5H863.5V132.5H832.5V163.5ZM864.5 163.5H895.5V132.5H864.5V163.5ZM896.5 163.5H927.5V132.5H896.5V163.5ZM928.5 163.5H959.5V132.5H928.5V163.5ZM960.5 163.5H991.5V132.5H960.5V163.5ZM992.5 163.5H1023.5V132.5H992.5V163.5ZM1024.5 163.5H1055.5V132.5H1024.5V163.5ZM1056.5 163.5H1087.5V132.5H1056.5V163.5ZM1088.5 163.5H1119.5V132.5H1088.5V163.5ZM1120.5 163.5H1151.5V132.5H1120.5V163.5ZM1152.5 163.5H1183.5V132.5H1152.5V163.5ZM1184.5 163.5H1215.5V132.5H1184.5V163.5ZM1216.5 163.5H1247.5V132.5H1216.5V163.5ZM1248.5 163.5H1279.5V132.5H1248.5V163.5ZM1280.5 163.5H1311.5V132.5H1280.5V163.5ZM1312.5 163.5H1343.5V132.5H1312.5V163.5ZM1344.5 163.5H1375.5V132.5H1344.5V163.5ZM1376.5 163.5H1407.5V132.5H1376.5V163.5ZM1408.5 163.5H1439.5V132.5H1408.5V163.5ZM1440.5 163.5H1471.5V132.5H1440.5V163.5ZM1472.5 163.5H1503.5V132.5H1472.5V163.5ZM1504.5 163.5H1535.5V132.5H1504.5V163.5ZM1536.5 163.5H1567.5V132.5H1536.5V163.5ZM1568.5 163.5H1599.5V132.5H1568.5V163.5ZM1600.5 163.5H1631.5V132.5H1600.5V163.5ZM1632.5 100.5V131.5H1663.5V100.5H1632.5ZM-223.5 131.5H-192.5V100.5H-223.5V131.5ZM-191.5 131.5H-160.5V100.5H-191.5V131.5ZM-159.5 131.5H-128.5V100.5H-159.5V131.5ZM-127.5 131.5H-96.5V100.5H-127.5V131.5ZM-95.5 131.5H-64.5V100.5H-95.5V131.5ZM-63.5 131.5H-32.5V100.5H-63.5V131.5ZM-31.5 131.5H-0.5V100.5H-31.5V131.5ZM0.5 131.5H31.5V100.5H0.5V131.5ZM32.5 131.5H63.5V100.5H32.5V131.5ZM64.5 131.5H95.5V100.5H64.5V131.5ZM96.5 131.5H127.5V100.5H96.5V131.5ZM128.5 131.5H159.5V100.5H128.5V131.5ZM160.5 131.5H191.5V100.5H160.5V131.5ZM192.5 131.5H223.5V100.5H192.5V131.5ZM224.5 131.5H255.5V100.5H224.5V131.5ZM256.5 131.5H287.5V100.5H256.5V131.5ZM288.5 131.5H319.5V100.5H288.5V131.5ZM320.5 131.5H351.5V100.5H320.5V131.5ZM352.5 131.5H383.5V100.5H352.5V131.5ZM384.5 131.5H415.5V100.5H384.5V131.5ZM416.5 131.5H447.5V100.5H416.5V131.5ZM448.5 131.5H479.5V100.5H448.5V131.5ZM480.5 131.5H511.5V100.5H480.5V131.5ZM512.5 131.5H543.5V100.5H512.5V131.5ZM544.5 131.5H575.5V100.5H544.5V131.5ZM576.5 131.5H607.5V100.5H576.5V131.5ZM608.5 131.5H639.5V100.5H608.5V131.5ZM640.5 131.5H671.5V100.5H640.5V131.5ZM672.5 131.5H703.5V100.5H672.5V131.5ZM704.5 131.5H735.5V100.5H704.5V131.5ZM736.5 131.5H767.5V100.5H736.5V131.5ZM768.5 131.5H799.5V100.5H768.5V131.5ZM800.5 131.5H831.5V100.5H800.5V131.5ZM832.5 131.5H863.5V100.5H832.5V131.5ZM864.5 131.5H895.5V100.5H864.5V131.5ZM896.5 131.5H927.5V100.5H896.5V131.5ZM928.5 131.5H959.5V100.5H928.5V131.5ZM960.5 131.5H991.5V100.5H960.5V131.5ZM992.5 131.5H1023.5V100.5H992.5V131.5ZM1024.5 131.5H1055.5V100.5H1024.5V131.5ZM1056.5 131.5H1087.5V100.5H1056.5V131.5ZM1088.5 131.5H1119.5V100.5H1088.5V131.5ZM1120.5 131.5H1151.5V100.5H1120.5V131.5ZM1152.5 131.5H1183.5V100.5H1152.5V131.5ZM1184.5 131.5H1215.5V100.5H1184.5V131.5ZM1216.5 131.5H1247.5V100.5H1216.5V131.5ZM1248.5 131.5H1279.5V100.5H1248.5V131.5ZM1280.5 131.5H1311.5V100.5H1280.5V131.5ZM1312.5 131.5H1343.5V100.5H1312.5V131.5ZM1344.5 131.5H1375.5V100.5H1344.5V131.5ZM1376.5 131.5H1407.5V100.5H1376.5V131.5ZM1408.5 131.5H1439.5V100.5H1408.5V131.5ZM1440.5 131.5H1471.5V100.5H1440.5V131.5ZM1472.5 131.5H1503.5V100.5H1472.5V131.5ZM1504.5 131.5H1535.5V100.5H1504.5V131.5ZM1536.5 131.5H1567.5V100.5H1536.5V131.5ZM1568.5 131.5H1599.5V100.5H1568.5V131.5ZM1600.5 131.5H1631.5V100.5H1600.5V131.5ZM1632.5 68.5V99.5H1663.5V68.5H1632.5ZM-223.5 99.5H-192.5V68.5H-223.5V99.5ZM-191.5 99.5H-160.5V68.5H-191.5V99.5ZM-159.5 99.5H-128.5V68.5H-159.5V99.5ZM-127.5 99.5H-96.5V68.5H-127.5V99.5ZM-95.5 99.5H-64.5V68.5H-95.5V99.5ZM-63.5 99.5H-32.5V68.5H-63.5V99.5ZM-31.5 99.5H-0.5V68.5H-31.5V99.5ZM0.5 99.5H31.5V68.5H0.5V99.5ZM32.5 99.5H63.5V68.5H32.5V99.5ZM64.5 99.5H95.5V68.5H64.5V99.5ZM96.5 99.5H127.5V68.5H96.5V99.5ZM128.5 99.5H159.5V68.5H128.5V99.5ZM160.5 99.5H191.5V68.5H160.5V99.5ZM192.5 99.5H223.5V68.5H192.5V99.5ZM224.5 99.5H255.5V68.5H224.5V99.5ZM256.5 99.5H287.5V68.5H256.5V99.5ZM288.5 99.5H319.5V68.5H288.5V99.5ZM320.5 99.5H351.5V68.5H320.5V99.5ZM352.5 99.5H383.5V68.5H352.5V99.5ZM384.5 99.5H415.5V68.5H384.5V99.5ZM416.5 99.5H447.5V68.5H416.5V99.5ZM448.5 99.5H479.5V68.5H448.5V99.5ZM480.5 99.5H511.5V68.5H480.5V99.5ZM512.5 99.5H543.5V68.5H512.5V99.5ZM544.5 99.5H575.5V68.5H544.5V99.5ZM576.5 99.5H607.5V68.5H576.5V99.5ZM608.5 99.5H639.5V68.5H608.5V99.5ZM640.5 99.5H671.5V68.5H640.5V99.5ZM672.5 99.5H703.5V68.5H672.5V99.5ZM704.5 99.5H735.5V68.5H704.5V99.5ZM736.5 99.5H767.5V68.5H736.5V99.5ZM768.5 99.5H799.5V68.5H768.5V99.5ZM800.5 99.5H831.5V68.5H800.5V99.5ZM832.5 99.5H863.5V68.5H832.5V99.5ZM864.5 99.5H895.5V68.5H864.5V99.5ZM896.5 99.5H927.5V68.5H896.5V99.5ZM928.5 99.5H959.5V68.5H928.5V99.5ZM960.5 99.5H991.5V68.5H960.5V99.5ZM992.5 99.5H1023.5V68.5H992.5V99.5ZM1024.5 99.5H1055.5V68.5H1024.5V99.5ZM1056.5 99.5H1087.5V68.5H1056.5V99.5ZM1088.5 99.5H1119.5V68.5H1088.5V99.5ZM1120.5 99.5H1151.5V68.5H1120.5V99.5ZM1152.5 99.5H1183.5V68.5H1152.5V99.5ZM1184.5 99.5H1215.5V68.5H1184.5V99.5ZM1216.5 99.5H1247.5V68.5H1216.5V99.5ZM1248.5 99.5H1279.5V68.5H1248.5V99.5ZM1280.5 99.5H1311.5V68.5H1280.5V99.5ZM1312.5 99.5H1343.5V68.5H1312.5V99.5ZM1344.5 99.5H1375.5V68.5H1344.5V99.5ZM1376.5 99.5H1407.5V68.5H1376.5V99.5ZM1408.5 99.5H1439.5V68.5H1408.5V99.5ZM1440.5 99.5H1471.5V68.5H1440.5V99.5ZM1472.5 99.5H1503.5V68.5H1472.5V99.5ZM1504.5 99.5H1535.5V68.5H1504.5V99.5ZM1536.5 99.5H1567.5V68.5H1536.5V99.5ZM1568.5 99.5H1599.5V68.5H1568.5V99.5ZM1600.5 99.5H1631.5V68.5H1600.5V99.5ZM1632.5 36.5V67.5H1663.5V36.5H1632.5ZM-223.5 67.5H-192.5V36.5H-223.5V67.5ZM-191.5 67.5H-160.5V36.5H-191.5V67.5ZM-159.5 67.5H-128.5V36.5H-159.5V67.5ZM-127.5 67.5H-96.5V36.5H-127.5V67.5ZM-95.5 67.5H-64.5V36.5H-95.5V67.5ZM-63.5 67.5H-32.5V36.5H-63.5V67.5ZM-31.5 67.5H-0.5V36.5H-31.5V67.5ZM0.5 67.5H31.5V36.5H0.5V67.5ZM32.5 67.5H63.5V36.5H32.5V67.5ZM64.5 67.5H95.5V36.5H64.5V67.5ZM96.5 67.5H127.5V36.5H96.5V67.5ZM128.5 67.5H159.5V36.5H128.5V67.5ZM160.5 67.5H191.5V36.5H160.5V67.5ZM192.5 67.5H223.5V36.5H192.5V67.5ZM224.5 67.5H255.5V36.5H224.5V67.5ZM256.5 67.5H287.5V36.5H256.5V67.5ZM288.5 67.5H319.5V36.5H288.5V67.5ZM320.5 67.5H351.5V36.5H320.5V67.5ZM352.5 67.5H383.5V36.5H352.5V67.5ZM384.5 67.5H415.5V36.5H384.5V67.5ZM416.5 67.5H447.5V36.5H416.5V67.5ZM448.5 67.5H479.5V36.5H448.5V67.5ZM480.5 67.5H511.5V36.5H480.5V67.5ZM512.5 67.5H543.5V36.5H512.5V67.5ZM544.5 67.5H575.5V36.5H544.5V67.5ZM576.5 67.5H607.5V36.5H576.5V67.5ZM608.5 67.5H639.5V36.5H608.5V67.5ZM640.5 67.5H671.5V36.5H640.5V67.5ZM672.5 67.5H703.5V36.5H672.5V67.5ZM704.5 67.5H735.5V36.5H704.5V67.5ZM736.5 67.5H767.5V36.5H736.5V67.5ZM768.5 67.5H799.5V36.5H768.5V67.5ZM800.5 67.5H831.5V36.5H800.5V67.5ZM832.5 67.5H863.5V36.5H832.5V67.5ZM864.5 67.5H895.5V36.5H864.5V67.5ZM896.5 67.5H927.5V36.5H896.5V67.5ZM928.5 67.5H959.5V36.5H928.5V67.5ZM960.5 67.5H991.5V36.5H960.5V67.5ZM992.5 67.5H1023.5V36.5H992.5V67.5ZM1024.5 67.5H1055.5V36.5H1024.5V67.5ZM1056.5 67.5H1087.5V36.5H1056.5V67.5ZM1088.5 67.5H1119.5V36.5H1088.5V67.5ZM1120.5 67.5H1151.5V36.5H1120.5V67.5ZM1152.5 67.5H1183.5V36.5H1152.5V67.5ZM1184.5 67.5H1215.5V36.5H1184.5V67.5ZM1216.5 67.5H1247.5V36.5H1216.5V67.5ZM1248.5 67.5H1279.5V36.5H1248.5V67.5ZM1280.5 67.5H1311.5V36.5H1280.5V67.5ZM1312.5 67.5H1343.5V36.5H1312.5V67.5ZM1344.5 67.5H1375.5V36.5H1344.5V67.5ZM1376.5 67.5H1407.5V36.5H1376.5V67.5ZM1408.5 67.5H1439.5V36.5H1408.5V67.5ZM1440.5 67.5H1471.5V36.5H1440.5V67.5ZM1472.5 67.5H1503.5V36.5H1472.5V67.5ZM1504.5 67.5H1535.5V36.5H1504.5V67.5ZM1536.5 67.5H1567.5V36.5H1536.5V67.5ZM1568.5 67.5H1599.5V36.5H1568.5V67.5ZM1600.5 67.5H1631.5V36.5H1600.5V67.5ZM1632.5 4.5V35.5H1663.5V4.5H1632.5ZM-223.5 35.5H-192.5V4.5H-223.5V35.5ZM-191.5 35.5H-160.5V4.5H-191.5V35.5ZM-159.5 35.5H-128.5V4.5H-159.5V35.5ZM-127.5 35.5H-96.5V4.5H-127.5V35.5ZM-95.5 35.5H-64.5V4.5H-95.5V35.5ZM-63.5 35.5H-32.5V4.5H-63.5V35.5ZM-31.5 35.5H-0.5V4.5H-31.5V35.5ZM0.5 35.5H31.5V4.5H0.5V35.5ZM32.5 35.5H63.5V4.5H32.5V35.5ZM64.5 35.5H95.5V4.5H64.5V35.5ZM96.5 35.5H127.5V4.5H96.5V35.5ZM128.5 35.5H159.5V4.5H128.5V35.5ZM160.5 35.5H191.5V4.5H160.5V35.5ZM192.5 35.5H223.5V4.5H192.5V35.5ZM224.5 35.5H255.5V4.5H224.5V35.5ZM256.5 35.5H287.5V4.5H256.5V35.5ZM288.5 35.5H319.5V4.5H288.5V35.5ZM320.5 35.5H351.5V4.5H320.5V35.5ZM352.5 35.5H383.5V4.5H352.5V35.5ZM384.5 35.5H415.5V4.5H384.5V35.5ZM416.5 35.5H447.5V4.5H416.5V35.5ZM448.5 35.5H479.5V4.5H448.5V35.5ZM480.5 35.5H511.5V4.5H480.5V35.5ZM512.5 35.5H543.5V4.5H512.5V35.5ZM544.5 35.5H575.5V4.5H544.5V35.5ZM576.5 35.5H607.5V4.5H576.5V35.5ZM608.5 35.5H639.5V4.5H608.5V35.5ZM640.5 35.5H671.5V4.5H640.5V35.5ZM672.5 35.5H703.5V4.5H672.5V35.5ZM704.5 35.5H735.5V4.5H704.5V35.5ZM736.5 35.5H767.5V4.5H736.5V35.5ZM768.5 35.5H799.5V4.5H768.5V35.5ZM800.5 35.5H831.5V4.5H800.5V35.5ZM832.5 35.5H863.5V4.5H832.5V35.5ZM864.5 35.5H895.5V4.5H864.5V35.5ZM896.5 35.5H927.5V4.5H896.5V35.5ZM928.5 35.5H959.5V4.5H928.5V35.5ZM960.5 35.5H991.5V4.5H960.5V35.5ZM992.5 35.5H1023.5V4.5H992.5V35.5ZM1024.5 35.5H1055.5V4.5H1024.5V35.5ZM1056.5 35.5H1087.5V4.5H1056.5V35.5ZM1088.5 35.5H1119.5V4.5H1088.5V35.5ZM1120.5 35.5H1151.5V4.5H1120.5V35.5ZM1152.5 35.5H1183.5V4.5H1152.5V35.5ZM1184.5 35.5H1215.5V4.5H1184.5V35.5ZM1216.5 35.5H1247.5V4.5H1216.5V35.5ZM1248.5 35.5H1279.5V4.5H1248.5V35.5ZM1280.5 35.5H1311.5V4.5H1280.5V35.5ZM1312.5 35.5H1343.5V4.5H1312.5V35.5ZM1344.5 35.5H1375.5V4.5H1344.5V35.5ZM1376.5 35.5H1407.5V4.5H1376.5V35.5ZM1408.5 35.5H1439.5V4.5H1408.5V35.5ZM1440.5 35.5H1471.5V4.5H1440.5V35.5ZM1472.5 35.5H1503.5V4.5H1472.5V35.5ZM1504.5 35.5H1535.5V4.5H1504.5V35.5ZM1536.5 35.5H1567.5V4.5H1536.5V35.5ZM1568.5 35.5H1599.5V4.5H1568.5V35.5ZM1600.5 35.5H1631.5V4.5H1600.5V35.5ZM1632.5 -27.5V3.5H1663.5V-27.5H1632.5ZM-223.5 3.5H-192.5V-27.5H-223.5V3.5ZM-191.5 3.5H-160.5V-27.5H-191.5V3.5ZM-159.5 3.5H-128.5V-27.5H-159.5V3.5ZM-127.5 3.5H-96.5V-27.5H-127.5V3.5ZM-95.5 3.5H-64.5V-27.5H-95.5V3.5ZM-63.5 3.5H-32.5V-27.5H-63.5V3.5ZM-31.5 3.5H-0.5V-27.5H-31.5V3.5ZM0.5 3.5H31.5V-27.5H0.5V3.5ZM32.5 3.5H63.5V-27.5H32.5V3.5ZM64.5 3.5H95.5V-27.5H64.5V3.5ZM96.5 3.5H127.5V-27.5H96.5V3.5ZM128.5 3.5H159.5V-27.5H128.5V3.5ZM160.5 3.5H191.5V-27.5H160.5V3.5ZM192.5 3.5H223.5V-27.5H192.5V3.5ZM224.5 3.5H255.5V-27.5H224.5V3.5ZM256.5 3.5H287.5V-27.5H256.5V3.5ZM288.5 3.5H319.5V-27.5H288.5V3.5ZM320.5 3.5H351.5V-27.5H320.5V3.5ZM352.5 3.5H383.5V-27.5H352.5V3.5ZM384.5 3.5H415.5V-27.5H384.5V3.5ZM416.5 3.5H447.5V-27.5H416.5V3.5ZM448.5 3.5H479.5V-27.5H448.5V3.5ZM480.5 3.5H511.5V-27.5H480.5V3.5ZM512.5 3.5H543.5V-27.5H512.5V3.5ZM544.5 3.5H575.5V-27.5H544.5V3.5ZM576.5 3.5H607.5V-27.5H576.5V3.5ZM608.5 3.5H639.5V-27.5H608.5V3.5ZM640.5 3.5H671.5V-27.5H640.5V3.5ZM672.5 3.5H703.5V-27.5H672.5V3.5ZM704.5 3.5H735.5V-27.5H704.5V3.5ZM736.5 3.5H767.5V-27.5H736.5V3.5ZM768.5 3.5H799.5V-27.5H768.5V3.5ZM800.5 3.5H831.5V-27.5H800.5V3.5ZM832.5 3.5H863.5V-27.5H832.5V3.5ZM864.5 3.5H895.5V-27.5H864.5V3.5ZM896.5 3.5H927.5V-27.5H896.5V3.5ZM928.5 3.5H959.5V-27.5H928.5V3.5ZM960.5 3.5H991.5V-27.5H960.5V3.5ZM992.5 3.5H1023.5V-27.5H992.5V3.5ZM1024.5 3.5H1055.5V-27.5H1024.5V3.5ZM1056.5 3.5H1087.5V-27.5H1056.5V3.5ZM1088.5 3.5H1119.5V-27.5H1088.5V3.5ZM1120.5 3.5H1151.5V-27.5H1120.5V3.5ZM1152.5 3.5H1183.5V-27.5H1152.5V3.5ZM1184.5 3.5H1215.5V-27.5H1184.5V3.5ZM1216.5 3.5H1247.5V-27.5H1216.5V3.5ZM1248.5 3.5H1279.5V-27.5H1248.5V3.5ZM1280.5 3.5H1311.5V-27.5H1280.5V3.5ZM1312.5 3.5H1343.5V-27.5H1312.5V3.5ZM1344.5 3.5H1375.5V-27.5H1344.5V3.5ZM1376.5 3.5H1407.5V-27.5H1376.5V3.5ZM1408.5 3.5H1439.5V-27.5H1408.5V3.5ZM1440.5 3.5H1471.5V-27.5H1440.5V3.5ZM1472.5 3.5H1503.5V-27.5H1472.5V3.5ZM1504.5 3.5H1535.5V-27.5H1504.5V3.5ZM1536.5 3.5H1567.5V-27.5H1536.5V3.5ZM1568.5 3.5H1599.5V-27.5H1568.5V3.5ZM1600.5 3.5H1631.5V-27.5H1600.5V3.5ZM1632.5 -59.5V-28.5H1663.5V-59.5H1632.5ZM-223.5 -28.5H-192.5V-59.5H-223.5V-28.5ZM-191.5 -28.5H-160.5V-59.5H-191.5V-28.5ZM-159.5 -28.5H-128.5V-59.5H-159.5V-28.5ZM-127.5 -28.5H-96.5V-59.5H-127.5V-28.5ZM-95.5 -28.5H-64.5V-59.5H-95.5V-28.5ZM-63.5 -28.5H-32.5V-59.5H-63.5V-28.5ZM-31.5 -28.5H-0.5V-59.5H-31.5V-28.5ZM0.5 -28.5H31.5V-59.5H0.5V-28.5ZM32.5 -28.5H63.5V-59.5H32.5V-28.5ZM64.5 -28.5H95.5V-59.5H64.5V-28.5ZM96.5 -28.5H127.5V-59.5H96.5V-28.5ZM128.5 -28.5H159.5V-59.5H128.5V-28.5ZM160.5 -28.5H191.5V-59.5H160.5V-28.5ZM192.5 -28.5H223.5V-59.5H192.5V-28.5ZM224.5 -28.5H255.5V-59.5H224.5V-28.5ZM256.5 -28.5H287.5V-59.5H256.5V-28.5ZM288.5 -28.5H319.5V-59.5H288.5V-28.5ZM320.5 -28.5H351.5V-59.5H320.5V-28.5ZM352.5 -28.5H383.5V-59.5H352.5V-28.5ZM384.5 -28.5H415.5V-59.5H384.5V-28.5ZM416.5 -28.5H447.5V-59.5H416.5V-28.5ZM448.5 -28.5H479.5V-59.5H448.5V-28.5ZM480.5 -28.5H511.5V-59.5H480.5V-28.5ZM512.5 -28.5H543.5V-59.5H512.5V-28.5ZM544.5 -28.5H575.5V-59.5H544.5V-28.5ZM576.5 -28.5H607.5V-59.5H576.5V-28.5ZM608.5 -28.5H639.5V-59.5H608.5V-28.5ZM640.5 -28.5H671.5V-59.5H640.5V-28.5ZM672.5 -28.5H703.5V-59.5H672.5V-28.5ZM704.5 -28.5H735.5V-59.5H704.5V-28.5ZM736.5 -28.5H767.5V-59.5H736.5V-28.5ZM768.5 -28.5H799.5V-59.5H768.5V-28.5ZM800.5 -28.5H831.5V-59.5H800.5V-28.5ZM832.5 -28.5H863.5V-59.5H832.5V-28.5ZM864.5 -28.5H895.5V-59.5H864.5V-28.5ZM896.5 -28.5H927.5V-59.5H896.5V-28.5ZM928.5 -28.5H959.5V-59.5H928.5V-28.5ZM960.5 -28.5H991.5V-59.5H960.5V-28.5ZM992.5 -28.5H1023.5V-59.5H992.5V-28.5ZM1024.5 -28.5H1055.5V-59.5H1024.5V-28.5ZM1056.5 -28.5H1087.5V-59.5H1056.5V-28.5ZM1088.5 -28.5H1119.5V-59.5H1088.5V-28.5ZM1120.5 -28.5H1151.5V-59.5H1120.5V-28.5ZM1152.5 -28.5H1183.5V-59.5H1152.5V-28.5ZM1184.5 -28.5H1215.5V-59.5H1184.5V-28.5ZM1216.5 -28.5H1247.5V-59.5H1216.5V-28.5ZM1248.5 -28.5H1279.5V-59.5H1248.5V-28.5ZM1280.5 -28.5H1311.5V-59.5H1280.5V-28.5ZM1312.5 -28.5H1343.5V-59.5H1312.5V-28.5ZM1344.5 -28.5H1375.5V-59.5H1344.5V-28.5ZM1376.5 -28.5H1407.5V-59.5H1376.5V-28.5ZM1408.5 -28.5H1439.5V-59.5H1408.5V-28.5ZM1440.5 -28.5H1471.5V-59.5H1440.5V-28.5ZM1472.5 -28.5H1503.5V-59.5H1472.5V-28.5ZM1504.5 -28.5H1535.5V-59.5H1504.5V-28.5ZM1536.5 -28.5H1567.5V-59.5H1536.5V-28.5ZM1568.5 -28.5H1599.5V-59.5H1568.5V-28.5ZM1600.5 -28.5H1631.5V-59.5H1600.5V-28.5ZM1632.5 -91.5V-60.5H1663.5V-91.5H1632.5ZM-223.5 -60.5H-192.5V-91.5H-223.5V-60.5ZM-191.5 -60.5H-160.5V-91.5H-191.5V-60.5ZM-159.5 -60.5H-128.5V-91.5H-159.5V-60.5ZM-127.5 -60.5H-96.5V-91.5H-127.5V-60.5ZM-95.5 -60.5H-64.5V-91.5H-95.5V-60.5ZM-63.5 -60.5H-32.5V-91.5H-63.5V-60.5ZM-31.5 -60.5H-0.5V-91.5H-31.5V-60.5ZM0.5 -60.5H31.5V-91.5H0.5V-60.5ZM32.5 -60.5H63.5V-91.5H32.5V-60.5ZM64.5 -60.5H95.5V-91.5H64.5V-60.5ZM96.5 -60.5H127.5V-91.5H96.5V-60.5ZM128.5 -60.5H159.5V-91.5H128.5V-60.5ZM160.5 -60.5H191.5V-91.5H160.5V-60.5ZM192.5 -60.5H223.5V-91.5H192.5V-60.5ZM224.5 -60.5H255.5V-91.5H224.5V-60.5ZM256.5 -60.5H287.5V-91.5H256.5V-60.5ZM288.5 -60.5H319.5V-91.5H288.5V-60.5ZM320.5 -60.5H351.5V-91.5H320.5V-60.5ZM352.5 -60.5H383.5V-91.5H352.5V-60.5ZM384.5 -60.5H415.5V-91.5H384.5V-60.5ZM416.5 -60.5H447.5V-91.5H416.5V-60.5ZM448.5 -60.5H479.5V-91.5H448.5V-60.5ZM480.5 -60.5H511.5V-91.5H480.5V-60.5ZM512.5 -60.5H543.5V-91.5H512.5V-60.5ZM544.5 -60.5H575.5V-91.5H544.5V-60.5ZM576.5 -60.5H607.5V-91.5H576.5V-60.5ZM608.5 -60.5H639.5V-91.5H608.5V-60.5ZM640.5 -60.5H671.5V-91.5H640.5V-60.5ZM672.5 -60.5H703.5V-91.5H672.5V-60.5ZM704.5 -60.5H735.5V-91.5H704.5V-60.5ZM736.5 -60.5H767.5V-91.5H736.5V-60.5ZM768.5 -60.5H799.5V-91.5H768.5V-60.5ZM800.5 -60.5H831.5V-91.5H800.5V-60.5ZM832.5 -60.5H863.5V-91.5H832.5V-60.5ZM864.5 -60.5H895.5V-91.5H864.5V-60.5ZM896.5 -60.5H927.5V-91.5H896.5V-60.5ZM928.5 -60.5H959.5V-91.5H928.5V-60.5ZM960.5 -60.5H991.5V-91.5H960.5V-60.5ZM992.5 -60.5H1023.5V-91.5H992.5V-60.5ZM1024.5 -60.5H1055.5V-91.5H1024.5V-60.5ZM1056.5 -60.5H1087.5V-91.5H1056.5V-60.5ZM1088.5 -60.5H1119.5V-91.5H1088.5V-60.5ZM1120.5 -60.5H1151.5V-91.5H1120.5V-60.5ZM1152.5 -60.5H1183.5V-91.5H1152.5V-60.5ZM1184.5 -60.5H1215.5V-91.5H1184.5V-60.5ZM1216.5 -60.5H1247.5V-91.5H1216.5V-60.5ZM1248.5 -60.5H1279.5V-91.5H1248.5V-60.5ZM1280.5 -60.5H1311.5V-91.5H1280.5V-60.5ZM1312.5 -60.5H1343.5V-91.5H1312.5V-60.5ZM1344.5 -60.5H1375.5V-91.5H1344.5V-60.5ZM1376.5 -60.5H1407.5V-91.5H1376.5V-60.5ZM1408.5 -60.5H1439.5V-91.5H1408.5V-60.5ZM1440.5 -60.5H1471.5V-91.5H1440.5V-60.5ZM1472.5 -60.5H1503.5V-91.5H1472.5V-60.5ZM1504.5 -60.5H1535.5V-91.5H1504.5V-60.5ZM1536.5 -60.5H1567.5V-91.5H1536.5V-60.5ZM1568.5 -60.5H1599.5V-91.5H1568.5V-60.5ZM1600.5 -60.5H1631.5V-91.5H1600.5V-60.5ZM1632.5 -123.5V-92.5H1663.5V-123.5H1632.5ZM-223.5 -92.5H-192.5V-123.5H-223.5V-92.5ZM-191.5 -92.5H-160.5V-123.5H-191.5V-92.5ZM-159.5 -92.5H-128.5V-123.5H-159.5V-92.5ZM-127.5 -92.5H-96.5V-123.5H-127.5V-92.5ZM-95.5 -92.5H-64.5V-123.5H-95.5V-92.5ZM-63.5 -92.5H-32.5V-123.5H-63.5V-92.5ZM-31.5 -92.5H-0.5V-123.5H-31.5V-92.5ZM0.5 -92.5H31.5V-123.5H0.5V-92.5ZM32.5 -92.5H63.5V-123.5H32.5V-92.5ZM64.5 -92.5H95.5V-123.5H64.5V-92.5ZM96.5 -92.5H127.5V-123.5H96.5V-92.5ZM128.5 -92.5H159.5V-123.5H128.5V-92.5ZM160.5 -92.5H191.5V-123.5H160.5V-92.5ZM192.5 -92.5H223.5V-123.5H192.5V-92.5ZM224.5 -92.5H255.5V-123.5H224.5V-92.5ZM256.5 -92.5H287.5V-123.5H256.5V-92.5ZM288.5 -92.5H319.5V-123.5H288.5V-92.5ZM320.5 -92.5H351.5V-123.5H320.5V-92.5ZM352.5 -92.5H383.5V-123.5H352.5V-92.5ZM384.5 -92.5H415.5V-123.5H384.5V-92.5ZM416.5 -92.5H447.5V-123.5H416.5V-92.5ZM448.5 -92.5H479.5V-123.5H448.5V-92.5ZM480.5 -92.5H511.5V-123.5H480.5V-92.5ZM512.5 -92.5H543.5V-123.5H512.5V-92.5ZM544.5 -92.5H575.5V-123.5H544.5V-92.5ZM576.5 -92.5H607.5V-123.5H576.5V-92.5ZM608.5 -92.5H639.5V-123.5H608.5V-92.5ZM640.5 -92.5H671.5V-123.5H640.5V-92.5ZM672.5 -92.5H703.5V-123.5H672.5V-92.5ZM704.5 -92.5H735.5V-123.5H704.5V-92.5ZM736.5 -92.5H767.5V-123.5H736.5V-92.5ZM768.5 -92.5H799.5V-123.5H768.5V-92.5ZM800.5 -92.5H831.5V-123.5H800.5V-92.5ZM832.5 -92.5H863.5V-123.5H832.5V-92.5ZM864.5 -92.5H895.5V-123.5H864.5V-92.5ZM896.5 -92.5H927.5V-123.5H896.5V-92.5ZM928.5 -92.5H959.5V-123.5H928.5V-92.5ZM960.5 -92.5H991.5V-123.5H960.5V-92.5ZM992.5 -92.5H1023.5V-123.5H992.5V-92.5ZM1024.5 -92.5H1055.5V-123.5H1024.5V-92.5ZM1056.5 -92.5H1087.5V-123.5H1056.5V-92.5ZM1088.5 -92.5H1119.5V-123.5H1088.5V-92.5ZM1120.5 -92.5H1151.5V-123.5H1120.5V-92.5ZM1152.5 -92.5H1183.5V-123.5H1152.5V-92.5ZM1184.5 -92.5H1215.5V-123.5H1184.5V-92.5ZM1216.5 -92.5H1247.5V-123.5H1216.5V-92.5ZM1248.5 -92.5H1279.5V-123.5H1248.5V-92.5ZM1280.5 -92.5H1311.5V-123.5H1280.5V-92.5ZM1312.5 -92.5H1343.5V-123.5H1312.5V-92.5ZM1344.5 -92.5H1375.5V-123.5H1344.5V-92.5ZM1376.5 -92.5H1407.5V-123.5H1376.5V-92.5ZM1408.5 -92.5H1439.5V-123.5H1408.5V-92.5ZM1440.5 -92.5H1471.5V-123.5H1440.5V-92.5ZM1472.5 -92.5H1503.5V-123.5H1472.5V-92.5ZM1504.5 -92.5H1535.5V-123.5H1504.5V-92.5ZM1536.5 -92.5H1567.5V-123.5H1536.5V-92.5ZM1568.5 -92.5H1599.5V-123.5H1568.5V-92.5ZM1600.5 -92.5H1631.5V-123.5H1600.5V-92.5ZM1632.5 -155.5V-124.5H1663.5V-155.5H1632.5ZM-223.5 -124.5H-192.5V-155.5H-223.5V-124.5ZM-191.5 -124.5H-160.5V-155.5H-191.5V-124.5ZM-159.5 -124.5H-128.5V-155.5H-159.5V-124.5ZM-127.5 -124.5H-96.5V-155.5H-127.5V-124.5ZM-95.5 -124.5H-64.5V-155.5H-95.5V-124.5ZM-63.5 -124.5H-32.5V-155.5H-63.5V-124.5ZM-31.5 -124.5H-0.5V-155.5H-31.5V-124.5ZM0.5 -124.5H31.5V-155.5H0.5V-124.5ZM32.5 -124.5H63.5V-155.5H32.5V-124.5ZM64.5 -124.5H95.5V-155.5H64.5V-124.5ZM96.5 -124.5H127.5V-155.5H96.5V-124.5ZM128.5 -124.5H159.5V-155.5H128.5V-124.5ZM160.5 -124.5H191.5V-155.5H160.5V-124.5ZM192.5 -124.5H223.5V-155.5H192.5V-124.5ZM224.5 -124.5H255.5V-155.5H224.5V-124.5ZM256.5 -124.5H287.5V-155.5H256.5V-124.5ZM288.5 -124.5H319.5V-155.5H288.5V-124.5ZM320.5 -124.5H351.5V-155.5H320.5V-124.5ZM352.5 -124.5H383.5V-155.5H352.5V-124.5ZM384.5 -124.5H415.5V-155.5H384.5V-124.5ZM416.5 -124.5H447.5V-155.5H416.5V-124.5ZM448.5 -124.5H479.5V-155.5H448.5V-124.5ZM480.5 -124.5H511.5V-155.5H480.5V-124.5ZM512.5 -124.5H543.5V-155.5H512.5V-124.5ZM544.5 -124.5H575.5V-155.5H544.5V-124.5ZM576.5 -124.5H607.5V-155.5H576.5V-124.5ZM608.5 -124.5H639.5V-155.5H608.5V-124.5ZM640.5 -124.5H671.5V-155.5H640.5V-124.5ZM672.5 -124.5H703.5V-155.5H672.5V-124.5ZM704.5 -124.5H735.5V-155.5H704.5V-124.5ZM736.5 -124.5H767.5V-155.5H736.5V-124.5ZM768.5 -124.5H799.5V-155.5H768.5V-124.5ZM800.5 -124.5H831.5V-155.5H800.5V-124.5ZM832.5 -124.5H863.5V-155.5H832.5V-124.5ZM864.5 -124.5H895.5V-155.5H864.5V-124.5ZM896.5 -124.5H927.5V-155.5H896.5V-124.5ZM928.5 -124.5H959.5V-155.5H928.5V-124.5ZM960.5 -124.5H991.5V-155.5H960.5V-124.5ZM992.5 -124.5H1023.5V-155.5H992.5V-124.5ZM1024.5 -124.5H1055.5V-155.5H1024.5V-124.5ZM1056.5 -124.5H1087.5V-155.5H1056.5V-124.5ZM1088.5 -124.5H1119.5V-155.5H1088.5V-124.5ZM1120.5 -124.5H1151.5V-155.5H1120.5V-124.5ZM1152.5 -124.5H1183.5V-155.5H1152.5V-124.5ZM1184.5 -124.5H1215.5V-155.5H1184.5V-124.5ZM1216.5 -124.5H1247.5V-155.5H1216.5V-124.5ZM1248.5 -124.5H1279.5V-155.5H1248.5V-124.5ZM1280.5 -124.5H1311.5V-155.5H1280.5V-124.5ZM1312.5 -124.5H1343.5V-155.5H1312.5V-124.5ZM1344.5 -124.5H1375.5V-155.5H1344.5V-124.5ZM1376.5 -124.5H1407.5V-155.5H1376.5V-124.5ZM1408.5 -124.5H1439.5V-155.5H1408.5V-124.5ZM1440.5 -124.5H1471.5V-155.5H1440.5V-124.5ZM1472.5 -124.5H1503.5V-155.5H1472.5V-124.5ZM1504.5 -124.5H1535.5V-155.5H1504.5V-124.5ZM1536.5 -124.5H1567.5V-155.5H1536.5V-124.5ZM1568.5 -124.5H1599.5V-155.5H1568.5V-124.5ZM1600.5 -124.5H1631.5V-155.5H1600.5V-124.5ZM1632.5 -187.5V-156.5H1663.5V-187.5H1632.5ZM-223.5 -156.5H-192.5V-187.5H-223.5V-156.5ZM-191.5 -156.5H-160.5V-187.5H-191.5V-156.5ZM-159.5 -156.5H-128.5V-187.5H-159.5V-156.5ZM-127.5 -156.5H-96.5V-187.5H-127.5V-156.5ZM-95.5 -156.5H-64.5V-187.5H-95.5V-156.5ZM-63.5 -156.5H-32.5V-187.5H-63.5V-156.5ZM-31.5 -156.5H-0.5V-187.5H-31.5V-156.5ZM0.5 -156.5H31.5V-187.5H0.5V-156.5ZM32.5 -156.5H63.5V-187.5H32.5V-156.5ZM64.5 -156.5H95.5V-187.5H64.5V-156.5ZM96.5 -156.5H127.5V-187.5H96.5V-156.5ZM128.5 -156.5H159.5V-187.5H128.5V-156.5ZM160.5 -156.5H191.5V-187.5H160.5V-156.5ZM192.5 -156.5H223.5V-187.5H192.5V-156.5ZM224.5 -156.5H255.5V-187.5H224.5V-156.5ZM256.5 -156.5H287.5V-187.5H256.5V-156.5ZM288.5 -156.5H319.5V-187.5H288.5V-156.5ZM320.5 -156.5H351.5V-187.5H320.5V-156.5ZM352.5 -156.5H383.5V-187.5H352.5V-156.5ZM384.5 -156.5H415.5V-187.5H384.5V-156.5ZM416.5 -156.5H447.5V-187.5H416.5V-156.5ZM448.5 -156.5H479.5V-187.5H448.5V-156.5ZM480.5 -156.5H511.5V-187.5H480.5V-156.5ZM512.5 -156.5H543.5V-187.5H512.5V-156.5ZM544.5 -156.5H575.5V-187.5H544.5V-156.5ZM576.5 -156.5H607.5V-187.5H576.5V-156.5ZM608.5 -156.5H639.5V-187.5H608.5V-156.5ZM640.5 -156.5H671.5V-187.5H640.5V-156.5ZM672.5 -156.5H703.5V-187.5H672.5V-156.5ZM704.5 -156.5H735.5V-187.5H704.5V-156.5ZM736.5 -156.5H767.5V-187.5H736.5V-156.5ZM768.5 -156.5H799.5V-187.5H768.5V-156.5ZM800.5 -156.5H831.5V-187.5H800.5V-156.5ZM832.5 -156.5H863.5V-187.5H832.5V-156.5ZM864.5 -156.5H895.5V-187.5H864.5V-156.5ZM896.5 -156.5H927.5V-187.5H896.5V-156.5ZM928.5 -156.5H959.5V-187.5H928.5V-156.5ZM960.5 -156.5H991.5V-187.5H960.5V-156.5ZM992.5 -156.5H1023.5V-187.5H992.5V-156.5ZM1024.5 -156.5H1055.5V-187.5H1024.5V-156.5ZM1056.5 -156.5H1087.5V-187.5H1056.5V-156.5ZM1088.5 -156.5H1119.5V-187.5H1088.5V-156.5ZM1120.5 -156.5H1151.5V-187.5H1120.5V-156.5ZM1152.5 -156.5H1183.5V-187.5H1152.5V-156.5ZM1184.5 -156.5H1215.5V-187.5H1184.5V-156.5ZM1216.5 -156.5H1247.5V-187.5H1216.5V-156.5ZM1248.5 -156.5H1279.5V-187.5H1248.5V-156.5ZM1280.5 -156.5H1311.5V-187.5H1280.5V-156.5ZM1312.5 -156.5H1343.5V-187.5H1312.5V-156.5ZM1344.5 -156.5H1375.5V-187.5H1344.5V-156.5ZM1376.5 -156.5H1407.5V-187.5H1376.5V-156.5ZM1408.5 -156.5H1439.5V-187.5H1408.5V-156.5ZM1440.5 -156.5H1471.5V-187.5H1440.5V-156.5ZM1472.5 -156.5H1503.5V-187.5H1472.5V-156.5ZM1504.5 -156.5H1535.5V-187.5H1504.5V-156.5ZM1536.5 -156.5H1567.5V-187.5H1536.5V-156.5ZM1568.5 -156.5H1599.5V-187.5H1568.5V-156.5ZM1600.5 -156.5H1631.5V-187.5H1600.5V-156.5ZM1632.5 -219.5V-188.5H1663.5V-219.5H1632.5ZM-223.5 -188.5H-192.5V-219.5H-223.5V-188.5ZM-191.5 -188.5H-160.5V-219.5H-191.5V-188.5ZM-159.5 -188.5H-128.5V-219.5H-159.5V-188.5ZM-127.5 -188.5H-96.5V-219.5H-127.5V-188.5ZM-95.5 -188.5H-64.5V-219.5H-95.5V-188.5ZM-63.5 -188.5H-32.5V-219.5H-63.5V-188.5ZM-31.5 -188.5H-0.5V-219.5H-31.5V-188.5ZM0.5 -188.5H31.5V-219.5H0.5V-188.5ZM32.5 -188.5H63.5V-219.5H32.5V-188.5ZM64.5 -188.5H95.5V-219.5H64.5V-188.5ZM96.5 -188.5H127.5V-219.5H96.5V-188.5ZM128.5 -188.5H159.5V-219.5H128.5V-188.5ZM160.5 -188.5H191.5V-219.5H160.5V-188.5ZM192.5 -188.5H223.5V-219.5H192.5V-188.5ZM224.5 -188.5H255.5V-219.5H224.5V-188.5ZM256.5 -188.5H287.5V-219.5H256.5V-188.5ZM288.5 -188.5H319.5V-219.5H288.5V-188.5ZM320.5 -188.5H351.5V-219.5H320.5V-188.5ZM352.5 -188.5H383.5V-219.5H352.5V-188.5ZM384.5 -188.5H415.5V-219.5H384.5V-188.5ZM416.5 -188.5H447.5V-219.5H416.5V-188.5ZM448.5 -188.5H479.5V-219.5H448.5V-188.5ZM480.5 -188.5H511.5V-219.5H480.5V-188.5ZM512.5 -188.5H543.5V-219.5H512.5V-188.5ZM544.5 -188.5H575.5V-219.5H544.5V-188.5ZM576.5 -188.5H607.5V-219.5H576.5V-188.5ZM608.5 -188.5H639.5V-219.5H608.5V-188.5ZM640.5 -188.5H671.5V-219.5H640.5V-188.5ZM672.5 -188.5H703.5V-219.5H672.5V-188.5ZM704.5 -188.5H735.5V-219.5H704.5V-188.5ZM736.5 -188.5H767.5V-219.5H736.5V-188.5ZM768.5 -188.5H799.5V-219.5H768.5V-188.5ZM800.5 -188.5H831.5V-219.5H800.5V-188.5ZM832.5 -188.5H863.5V-219.5H832.5V-188.5ZM864.5 -188.5H895.5V-219.5H864.5V-188.5ZM896.5 -188.5H927.5V-219.5H896.5V-188.5ZM928.5 -188.5H959.5V-219.5H928.5V-188.5ZM960.5 -188.5H991.5V-219.5H960.5V-188.5ZM992.5 -188.5H1023.5V-219.5H992.5V-188.5ZM1024.5 -188.5H1055.5V-219.5H1024.5V-188.5ZM1056.5 -188.5H1087.5V-219.5H1056.5V-188.5ZM1088.5 -188.5H1119.5V-219.5H1088.5V-188.5ZM1120.5 -188.5H1151.5V-219.5H1120.5V-188.5ZM1152.5 -188.5H1183.5V-219.5H1152.5V-188.5ZM1184.5 -188.5H1215.5V-219.5H1184.5V-188.5ZM1216.5 -188.5H1247.5V-219.5H1216.5V-188.5ZM1248.5 -188.5H1279.5V-219.5H1248.5V-188.5ZM1280.5 -188.5H1311.5V-219.5H1280.5V-188.5ZM1312.5 -188.5H1343.5V-219.5H1312.5V-188.5ZM1344.5 -188.5H1375.5V-219.5H1344.5V-188.5ZM1376.5 -188.5H1407.5V-219.5H1376.5V-188.5ZM1408.5 -188.5H1439.5V-219.5H1408.5V-188.5ZM1440.5 -188.5H1471.5V-219.5H1440.5V-188.5ZM1472.5 -188.5H1503.5V-219.5H1472.5V-188.5ZM1504.5 -188.5H1535.5V-219.5H1504.5V-188.5ZM1536.5 -188.5H1567.5V-219.5H1536.5V-188.5ZM1568.5 -188.5H1599.5V-219.5H1568.5V-188.5ZM1600.5 -188.5H1631.5V-219.5H1600.5V-188.5ZM1632.5 -251.5V-220.5H1663.5V-251.5H1632.5ZM-223.5 -220.5H-192.5V-251.5H-223.5V-220.5ZM-191.5 -220.5H-160.5V-251.5H-191.5V-220.5ZM-159.5 -220.5H-128.5V-251.5H-159.5V-220.5ZM-127.5 -220.5H-96.5V-251.5H-127.5V-220.5ZM-95.5 -220.5H-64.5V-251.5H-95.5V-220.5ZM-63.5 -220.5H-32.5V-251.5H-63.5V-220.5ZM-31.5 -220.5H-0.5V-251.5H-31.5V-220.5ZM0.5 -220.5H31.5V-251.5H0.5V-220.5ZM32.5 -220.5H63.5V-251.5H32.5V-220.5ZM64.5 -220.5H95.5V-251.5H64.5V-220.5ZM96.5 -220.5H127.5V-251.5H96.5V-220.5ZM128.5 -220.5H159.5V-251.5H128.5V-220.5ZM160.5 -220.5H191.5V-251.5H160.5V-220.5ZM192.5 -220.5H223.5V-251.5H192.5V-220.5ZM224.5 -220.5H255.5V-251.5H224.5V-220.5ZM256.5 -220.5H287.5V-251.5H256.5V-220.5ZM288.5 -220.5H319.5V-251.5H288.5V-220.5ZM320.5 -220.5H351.5V-251.5H320.5V-220.5ZM352.5 -220.5H383.5V-251.5H352.5V-220.5ZM384.5 -220.5H415.5V-251.5H384.5V-220.5ZM416.5 -220.5H447.5V-251.5H416.5V-220.5ZM448.5 -220.5H479.5V-251.5H448.5V-220.5ZM480.5 -220.5H511.5V-251.5H480.5V-220.5ZM512.5 -220.5H543.5V-251.5H512.5V-220.5ZM544.5 -220.5H575.5V-251.5H544.5V-220.5ZM576.5 -220.5H607.5V-251.5H576.5V-220.5ZM608.5 -220.5H639.5V-251.5H608.5V-220.5ZM640.5 -220.5H671.5V-251.5H640.5V-220.5ZM672.5 -220.5H703.5V-251.5H672.5V-220.5ZM704.5 -220.5H735.5V-251.5H704.5V-220.5ZM736.5 -220.5H767.5V-251.5H736.5V-220.5ZM768.5 -220.5H799.5V-251.5H768.5V-220.5ZM800.5 -220.5H831.5V-251.5H800.5V-220.5ZM832.5 -220.5H863.5V-251.5H832.5V-220.5ZM864.5 -220.5H895.5V-251.5H864.5V-220.5ZM896.5 -220.5H927.5V-251.5H896.5V-220.5ZM928.5 -220.5H959.5V-251.5H928.5V-220.5ZM960.5 -220.5H991.5V-251.5H960.5V-220.5ZM992.5 -220.5H1023.5V-251.5H992.5V-220.5ZM1024.5 -220.5H1055.5V-251.5H1024.5V-220.5ZM1056.5 -220.5H1087.5V-251.5H1056.5V-220.5ZM1088.5 -220.5H1119.5V-251.5H1088.5V-220.5ZM1120.5 -220.5H1151.5V-251.5H1120.5V-220.5ZM1152.5 -220.5H1183.5V-251.5H1152.5V-220.5ZM1184.5 -220.5H1215.5V-251.5H1184.5V-220.5ZM1216.5 -220.5H1247.5V-251.5H1216.5V-220.5ZM1248.5 -220.5H1279.5V-251.5H1248.5V-220.5ZM1280.5 -220.5H1311.5V-251.5H1280.5V-220.5ZM1312.5 -220.5H1343.5V-251.5H1312.5V-220.5ZM1344.5 -220.5H1375.5V-251.5H1344.5V-220.5ZM1376.5 -220.5H1407.5V-251.5H1376.5V-220.5ZM1408.5 -220.5H1439.5V-251.5H1408.5V-220.5ZM1440.5 -220.5H1471.5V-251.5H1440.5V-220.5ZM1472.5 -220.5H1503.5V-251.5H1472.5V-220.5ZM1504.5 -220.5H1535.5V-251.5H1504.5V-220.5ZM1536.5 -220.5H1567.5V-251.5H1536.5V-220.5ZM1568.5 -220.5H1599.5V-251.5H1568.5V-220.5ZM1600.5 -220.5H1631.5V-251.5H1600.5V-220.5ZM1632.5 -283.5V-252.5H1663.5V-283.5H1632.5ZM-223.5 -252.5H-192.5V-283.5H-223.5V-252.5ZM-191.5 -252.5H-160.5V-283.5H-191.5V-252.5ZM-159.5 -252.5H-128.5V-283.5H-159.5V-252.5ZM-127.5 -252.5H-96.5V-283.5H-127.5V-252.5ZM-95.5 -252.5H-64.5V-283.5H-95.5V-252.5ZM-63.5 -252.5H-32.5V-283.5H-63.5V-252.5ZM-31.5 -252.5H-0.5V-283.5H-31.5V-252.5ZM0.5 -252.5H31.5V-283.5H0.5V-252.5ZM32.5 -252.5H63.5V-283.5H32.5V-252.5ZM64.5 -252.5H95.5V-283.5H64.5V-252.5ZM96.5 -252.5H127.5V-283.5H96.5V-252.5ZM128.5 -252.5H159.5V-283.5H128.5V-252.5ZM160.5 -252.5H191.5V-283.5H160.5V-252.5ZM192.5 -252.5H223.5V-283.5H192.5V-252.5ZM224.5 -252.5H255.5V-283.5H224.5V-252.5ZM256.5 -252.5H287.5V-283.5H256.5V-252.5ZM288.5 -252.5H319.5V-283.5H288.5V-252.5ZM320.5 -252.5H351.5V-283.5H320.5V-252.5ZM352.5 -252.5H383.5V-283.5H352.5V-252.5ZM384.5 -252.5H415.5V-283.5H384.5V-252.5ZM416.5 -252.5H447.5V-283.5H416.5V-252.5ZM448.5 -252.5H479.5V-283.5H448.5V-252.5ZM480.5 -252.5H511.5V-283.5H480.5V-252.5ZM512.5 -252.5H543.5V-283.5H512.5V-252.5ZM544.5 -252.5H575.5V-283.5H544.5V-252.5ZM576.5 -252.5H607.5V-283.5H576.5V-252.5ZM608.5 -252.5H639.5V-283.5H608.5V-252.5ZM640.5 -252.5H671.5V-283.5H640.5V-252.5ZM672.5 -252.5H703.5V-283.5H672.5V-252.5ZM704.5 -252.5H735.5V-283.5H704.5V-252.5ZM736.5 -252.5H767.5V-283.5H736.5V-252.5ZM768.5 -252.5H799.5V-283.5H768.5V-252.5ZM800.5 -252.5H831.5V-283.5H800.5V-252.5ZM832.5 -252.5H863.5V-283.5H832.5V-252.5ZM864.5 -252.5H895.5V-283.5H864.5V-252.5ZM896.5 -252.5H927.5V-283.5H896.5V-252.5ZM928.5 -252.5H959.5V-283.5H928.5V-252.5ZM960.5 -252.5H991.5V-283.5H960.5V-252.5ZM992.5 -252.5H1023.5V-283.5H992.5V-252.5ZM1024.5 -252.5H1055.5V-283.5H1024.5V-252.5ZM1056.5 -252.5H1087.5V-283.5H1056.5V-252.5ZM1088.5 -252.5H1119.5V-283.5H1088.5V-252.5ZM1120.5 -252.5H1151.5V-283.5H1120.5V-252.5ZM1152.5 -252.5H1183.5V-283.5H1152.5V-252.5ZM1184.5 -252.5H1215.5V-283.5H1184.5V-252.5ZM1216.5 -252.5H1247.5V-283.5H1216.5V-252.5ZM1248.5 -252.5H1279.5V-283.5H1248.5V-252.5ZM1280.5 -252.5H1311.5V-283.5H1280.5V-252.5ZM1312.5 -252.5H1343.5V-283.5H1312.5V-252.5ZM1344.5 -252.5H1375.5V-283.5H1344.5V-252.5ZM1376.5 -252.5H1407.5V-283.5H1376.5V-252.5ZM1408.5 -252.5H1439.5V-283.5H1408.5V-252.5ZM1440.5 -252.5H1471.5V-283.5H1440.5V-252.5ZM1472.5 -252.5H1503.5V-283.5H1472.5V-252.5ZM1504.5 -252.5H1535.5V-283.5H1504.5V-252.5ZM1536.5 -252.5H1567.5V-283.5H1536.5V-252.5ZM1568.5 -252.5H1599.5V-283.5H1568.5V-252.5ZM1600.5 -252.5H1631.5V-283.5H1600.5V-252.5Z" fill="url(#paint0_radial_12260_1972)" fill-opacity="0.15"/>
</g>
<g style="mix-blend-mode:plus-lighter" filter="url(#filter0_f_12260_1972)">
<ellipse cx="88.8427" cy="-43.2368" rx="40" ry="360" transform="rotate(-45 88.8427 -43.2368)" fill="url(#paint1_linear_12260_1972)"/>
</g>
<g style="mix-blend-mode:plus-lighter" filter="url(#filter1_f_12260_1972)">
<ellipse cx="40" cy="360" rx="40" ry="360" transform="matrix(-0.707107 -0.707107 -0.707107 0.707107 1633.69 -281.431)" fill="url(#paint2_linear_12260_1972)"/>
</g>
<g opacity="0.25" filter="url(#filter2_f_12260_1972)">
<ellipse cx="-0.5" rx="161.5" ry="160" fill="#36F8E2"/>
</g>
<g opacity="0.25" filter="url(#filter3_f_12260_1972)">
<ellipse cx="1439.5" rx="161.5" ry="160" fill="#36F8E2"/>
</g>
<g style="mix-blend-mode:plus-lighter" filter="url(#filter4_f_12260_1972)">
<circle cx="1.60703" cy="1.60703" r="1.60703" transform="matrix(-0.866025 0.5 0.5 0.866025 1394.15 66.6713)" fill="#36F8E2"/>
</g>
<g style="mix-blend-mode:plus-lighter" filter="url(#filter5_f_12260_1972)">
<circle cx="1.07135" cy="1.07135" r="1.07135" transform="matrix(-0.866025 0.5 0.5 0.866025 1392.39 117.177)" fill="#36F8E2"/>
</g>
<g style="mix-blend-mode:plus-lighter" filter="url(#filter6_f_12260_1972)">
<circle cx="0.535675" cy="0.535675" r="0.535675" transform="matrix(-0.866025 0.5 0.5 0.866025 1414.36 99.5379)" fill="#36F8E2"/>
</g>
<g style="mix-blend-mode:plus-lighter" filter="url(#filter7_f_12260_1972)">
<circle cx="1.07135" cy="1.07135" r="1.07135" transform="matrix(-0.866025 0.5 0.5 0.866025 1330.1 127.152)" fill="#36F8E2"/>
</g>
<g style="mix-blend-mode:plus-lighter" filter="url(#filter8_f_12260_1972)">
<circle cx="0.535676" cy="0.535676" r="0.535676" transform="matrix(-0.866025 0.5 0.5 0.866025 1330.64 128.082)" fill="#36F8E2"/>
</g>
<g style="mix-blend-mode:plus-lighter" filter="url(#filter9_f_12260_1972)">
<circle cx="0.535675" cy="0.535675" r="0.535675" transform="matrix(-0.866025 0.5 0.5 0.866025 1377.36 114.719)" fill="#36F8E2"/>
</g>
<g style="mix-blend-mode:plus-lighter" filter="url(#filter10_f_12260_1972)">
<circle cx="1.07135" cy="1.07135" r="1.07135" transform="matrix(-0.866025 0.5 0.5 0.866025 1378.75 129.994)" fill="#36F8E2"/>
</g>
<g style="mix-blend-mode:plus-lighter" filter="url(#filter11_f_12260_1972)">
<circle cx="1.07135" cy="1.07135" r="1.07135" transform="matrix(-0.866025 0.5 0.5 0.866025 1368.55 135.886)" fill="#36F8E2"/>
</g>
<g style="mix-blend-mode:plus-lighter" filter="url(#filter12_f_12260_1972)">
<circle cx="0.535675" cy="0.535675" r="0.535675" transform="matrix(-0.866025 0.5 0.5 0.866025 1370.25 100.264)" fill="#36F8E2"/>
</g>
<g style="mix-blend-mode:plus-lighter" filter="url(#filter13_f_12260_1972)">
<circle cx="0.535675" cy="0.535675" r="0.535675" transform="matrix(-0.866025 0.5 0.5 0.866025 1414.36 99.5379)" fill="#36F8E2"/>
</g>
<g style="mix-blend-mode:plus-lighter" filter="url(#filter14_f_12260_1972)">
<circle cx="1.60703" cy="1.60703" r="1.60703" transform="matrix(-0.866025 0.5 0.5 0.866025 1406.02 136.517)" fill="#36F8E2"/>
</g>
<g style="mix-blend-mode:plus-lighter" filter="url(#filter15_f_12260_1972)">
<circle cx="1.07135" cy="1.07135" r="1.07135" transform="matrix(-0.866025 0.5 0.5 0.866025 1392.39 117.177)" fill="#36F8E2"/>
</g>
<g style="mix-blend-mode:plus-lighter" filter="url(#filter16_f_12260_1972)">
<circle cx="0.535675" cy="0.535675" r="0.535675" transform="matrix(-0.866025 0.5 0.5 0.866025 1379.55 159.226)" fill="#36F8E2"/>
</g>
<g style="mix-blend-mode:plus-lighter" filter="url(#filter17_f_12260_1972)">
<circle cx="1.07135" cy="1.07135" r="1.07135" transform="matrix(-0.866025 0.5 0.5 0.866025 1394.57 161.684)" fill="#36F8E2"/>
</g>
<g style="mix-blend-mode:plus-lighter" filter="url(#filter18_f_12260_1972)">
<circle cx="0.535676" cy="0.535676" r="0.535676" transform="matrix(-0.866025 0.5 0.5 0.866025 1379.55 159.226)" fill="#36F8E2"/>
</g>
<g style="mix-blend-mode:plus-lighter" filter="url(#filter19_f_12260_1972)">
<circle cx="0.535675" cy="0.535675" r="0.535675" transform="matrix(-0.866025 0.5 0.5 0.866025 1391.73 178.174)" fill="#36F8E2"/>
</g>
<g style="mix-blend-mode:plus-lighter" filter="url(#filter20_f_12260_1972)">
<circle cx="47.719" cy="136.614" r="1.04233" transform="rotate(-30 47.719 136.614)" fill="#36F8E2"/>
</g>
<g style="mix-blend-mode:plus-lighter" filter="url(#filter21_f_12260_1972)">
<circle cx="21.45" cy="146.364" r="0.521165" transform="rotate(-30 21.45 146.364)" fill="#36F8E2"/>
</g>
<g style="mix-blend-mode:plus-lighter" filter="url(#filter22_f_12260_1972)">
<circle cx="86.419" cy="88.9943" r="1.04233" transform="rotate(-30 86.419 88.9943)" fill="#36F8E2"/>
</g>
<g style="mix-blend-mode:plus-lighter" filter="url(#filter23_f_12260_1972)">
<circle cx="86.2261" cy="89.7052" r="0.521165" transform="rotate(-30 86.2261 89.7052)" fill="#36F8E2"/>
</g>
<g style="mix-blend-mode:plus-lighter" filter="url(#filter24_f_12260_1972)">
<circle cx="56.5711" cy="128.446" r="0.521165" transform="rotate(-30 56.5711 128.446)" fill="#36F8E2"/>
</g>
<g style="mix-blend-mode:plus-lighter" filter="url(#filter25_f_12260_1972)">
<circle cx="54.9392" cy="115.092" r="1.04233" transform="rotate(-30 54.9392 115.092)" fill="#36F8E2"/>
</g>
<g style="mix-blend-mode:plus-lighter" filter="url(#filter26_f_12260_1972)">
<circle cx="46.7361" cy="75.2356" r="1.04233" transform="rotate(-30 46.7361 75.2356)" fill="#36F8E2"/>
</g>
<g style="mix-blend-mode:plus-lighter" filter="url(#filter27_f_12260_1972)">
<circle cx="43.523" cy="109.548" r="0.521165" transform="rotate(-30 43.523 109.548)" fill="#36F8E2"/>
</g>
<g style="mix-blend-mode:plus-lighter" filter="url(#filter28_f_12260_1972)">
<circle cx="21.45" cy="146.364" r="0.521165" transform="rotate(-30 21.45 146.364)" fill="#36F8E2"/>
</g>
<g style="mix-blend-mode:plus-lighter" filter="url(#filter29_f_12260_1972)">
<circle cx="47.719" cy="136.614" r="1.04233" transform="rotate(-30 47.719 136.614)" fill="#36F8E2"/>
</g>
<g style="mix-blend-mode:plus-lighter" filter="url(#filter30_f_12260_1972)">
<circle cx="88.676" cy="146.064" r="0.521165" transform="rotate(-30 88.676 146.064)" fill="#36F8E2"/>
</g>
<g style="mix-blend-mode:plus-lighter" filter="url(#filter31_f_12260_1972)">
<circle cx="84.1499" cy="160.111" r="1.04233" transform="rotate(-30 84.1499 160.111)" fill="#36F8E2"/>
</g>
<g style="mix-blend-mode:plus-lighter" filter="url(#filter32_f_12260_1972)">
<circle cx="99.9465" cy="129.618" r="0.521165" transform="rotate(-30 99.9465 129.618)" fill="#36F8E2"/>
</g>
<defs>
<filter id="filter0_f_12260_1972" x="-367.305" y="-499.384" width="912.295" height="912.295" filterUnits="userSpaceOnUse" color-interpolation-filters="sRGB">
<feFlood flood-opacity="0" result="BackgroundImageFix"/>
<feBlend mode="normal" in="SourceGraphic" in2="BackgroundImageFix" result="shape"/>
<feGaussianBlur stdDeviation="100" result="effect1_foregroundBlur_12260_1972"/>
</filter>
<filter id="filter1_f_12260_1972" x="894.695" y="-511.305" width="912.295" height="912.295" filterUnits="userSpaceOnUse" color-interpolation-filters="sRGB">
<feFlood flood-opacity="0" result="BackgroundImageFix"/>
<feBlend mode="normal" in="SourceGraphic" in2="BackgroundImageFix" result="shape"/>
<feGaussianBlur stdDeviation="100" result="effect1_foregroundBlur_12260_1972"/>
</filter>
<filter id="filter2_f_12260_1972" x="-512" y="-510" width="1023" height="1020" filterUnits="userSpaceOnUse" color-interpolation-filters="sRGB">
<feFlood flood-opacity="0" result="BackgroundImageFix"/>
<feBlend mode="normal" in="SourceGraphic" in2="BackgroundImageFix" result="shape"/>
<feGaussianBlur stdDeviation="175" result="effect1_foregroundBlur_12260_1972"/>
</filter>
<filter id="filter3_f_12260_1972" x="928" y="-510" width="1023" height="1020" filterUnits="userSpaceOnUse" color-interpolation-filters="sRGB">
<feFlood flood-opacity="0" result="BackgroundImageFix"/>
<feBlend mode="normal" in="SourceGraphic" in2="BackgroundImageFix" result="shape"/>
<feGaussianBlur stdDeviation="175" result="effect1_foregroundBlur_12260_1972"/>
</filter>
<filter id="filter4_f_12260_1972" x="1391.19" y="66.5007" width="4.73138" height="4.73161" filterUnits="userSpaceOnUse" color-interpolation-filters="sRGB">
<feFlood flood-opacity="0" result="BackgroundImageFix"/>
<feBlend mode="normal" in="SourceGraphic" in2="BackgroundImageFix" result="shape"/>
<feGaussianBlur stdDeviation="0.379255" result="effect1_foregroundBlur_12260_1972"/>
</filter>
<filter id="filter5_f_12260_1972" x="1388.65" y="115.294" width="6.69413" height="6.69412" filterUnits="userSpaceOnUse" color-interpolation-filters="sRGB">
<feFlood flood-opacity="0" result="BackgroundImageFix"/>
<feBlend mode="normal" in="SourceGraphic" in2="BackgroundImageFix" result="shape"/>
<feGaussianBlur stdDeviation="1.13777" result="effect1_foregroundBlur_12260_1972"/>
</filter>
<filter id="filter6_f_12260_1972" x="1412.87" y="98.9753" width="2.5888" height="2.58855" filterUnits="userSpaceOnUse" color-interpolation-filters="sRGB">
<feFlood flood-opacity="0" result="BackgroundImageFix"/>
<feBlend mode="normal" in="SourceGraphic" in2="BackgroundImageFix" result="shape"/>
<feGaussianBlur stdDeviation="0.379255" result="effect1_foregroundBlur_12260_1972"/>
</filter>
<filter id="filter7_f_12260_1972" x="1326.36" y="125.269" width="6.69413" height="6.69412" filterUnits="userSpaceOnUse" color-interpolation-filters="sRGB">
<feFlood flood-opacity="0" result="BackgroundImageFix"/>
<feBlend mode="normal" in="SourceGraphic" in2="BackgroundImageFix" result="shape"/>
<feGaussianBlur stdDeviation="1.13777" result="effect1_foregroundBlur_12260_1972"/>
</filter>
<filter id="filter8_f_12260_1972" x="1329.15" y="127.52" width="2.5888" height="2.58855" filterUnits="userSpaceOnUse" color-interpolation-filters="sRGB">
<feFlood flood-opacity="0" result="BackgroundImageFix"/>
<feBlend mode="normal" in="SourceGraphic" in2="BackgroundImageFix" result="shape"/>
<feGaussianBlur stdDeviation="0.379255" result="effect1_foregroundBlur_12260_1972"/>
</filter>
<filter id="filter9_f_12260_1972" x="1375.87" y="114.156" width="2.5888" height="2.58855" filterUnits="userSpaceOnUse" color-interpolation-filters="sRGB">
<feFlood flood-opacity="0" result="BackgroundImageFix"/>
<feBlend mode="normal" in="SourceGraphic" in2="BackgroundImageFix" result="shape"/>
<feGaussianBlur stdDeviation="0.379255" result="effect1_foregroundBlur_12260_1972"/>
</filter>
<filter id="filter10_f_12260_1972" x="1376.53" y="129.628" width="3.66009" height="3.66008" filterUnits="userSpaceOnUse" color-interpolation-filters="sRGB">
<feFlood flood-opacity="0" result="BackgroundImageFix"/>
<feBlend mode="normal" in="SourceGraphic" in2="BackgroundImageFix" result="shape"/>
<feGaussianBlur stdDeviation="0.379255" result="effect1_foregroundBlur_12260_1972"/>
</filter>
<filter id="filter11_f_12260_1972" x="1366.32" y="135.52" width="3.66009" height="3.66008" filterUnits="userSpaceOnUse" color-interpolation-filters="sRGB">
<feFlood flood-opacity="0" result="BackgroundImageFix"/>
<feBlend mode="normal" in="SourceGraphic" in2="BackgroundImageFix" result="shape"/>
<feGaussianBlur stdDeviation="0.379255" result="effect1_foregroundBlur_12260_1972"/>
</filter>
<filter id="filter12_f_12260_1972" x="1368.76" y="99.7018" width="2.5888" height="2.58855" filterUnits="userSpaceOnUse" color-interpolation-filters="sRGB">
<feFlood flood-opacity="0" result="BackgroundImageFix"/>
<feBlend mode="normal" in="SourceGraphic" in2="BackgroundImageFix" result="shape"/>
<feGaussianBlur stdDeviation="0.379255" result="effect1_foregroundBlur_12260_1972"/>
</filter>
<filter id="filter13_f_12260_1972" x="1411.35" y="97.4583" width="5.62284" height="5.62259" filterUnits="userSpaceOnUse" color-interpolation-filters="sRGB">
<feFlood flood-opacity="0" result="BackgroundImageFix"/>
<feBlend mode="normal" in="SourceGraphic" in2="BackgroundImageFix" result="shape"/>
<feGaussianBlur stdDeviation="1.13777" result="effect1_foregroundBlur_12260_1972"/>
</filter>
<filter id="filter14_f_12260_1972" x="1403.07" y="136.346" width="4.73138" height="4.73161" filterUnits="userSpaceOnUse" color-interpolation-filters="sRGB">
<feFlood flood-opacity="0" result="BackgroundImageFix"/>
<feBlend mode="normal" in="SourceGraphic" in2="BackgroundImageFix" result="shape"/>
<feGaussianBlur stdDeviation="0.379255" result="effect1_foregroundBlur_12260_1972"/>
</filter>
<filter id="filter15_f_12260_1972" x="1390.16" y="116.811" width="3.66009" height="3.66008" filterUnits="userSpaceOnUse" color-interpolation-filters="sRGB">
<feFlood flood-opacity="0" result="BackgroundImageFix"/>
<feBlend mode="normal" in="SourceGraphic" in2="BackgroundImageFix" result="shape"/>
<feGaussianBlur stdDeviation="0.379255" result="effect1_foregroundBlur_12260_1972"/>
</filter>
<filter id="filter16_f_12260_1972" x="1376.54" y="157.146" width="5.62284" height="5.6226" filterUnits="userSpaceOnUse" color-interpolation-filters="sRGB">
<feFlood flood-opacity="0" result="BackgroundImageFix"/>
<feBlend mode="normal" in="SourceGraphic" in2="BackgroundImageFix" result="shape"/>
<feGaussianBlur stdDeviation="1.13777" result="effect1_foregroundBlur_12260_1972"/>
</filter>
<filter id="filter17_f_12260_1972" x="1392.35" y="161.317" width="3.66009" height="3.66007" filterUnits="userSpaceOnUse" color-interpolation-filters="sRGB">
<feFlood flood-opacity="0" result="BackgroundImageFix"/>
<feBlend mode="normal" in="SourceGraphic" in2="BackgroundImageFix" result="shape"/>
<feGaussianBlur stdDeviation="0.379255" result="effect1_foregroundBlur_12260_1972"/>
</filter>
<filter id="filter18_f_12260_1972" x="1378.06" y="158.663" width="2.5888" height="2.58856" filterUnits="userSpaceOnUse" color-interpolation-filters="sRGB">
<feFlood flood-opacity="0" result="BackgroundImageFix"/>
<feBlend mode="normal" in="SourceGraphic" in2="BackgroundImageFix" result="shape"/>
<feGaussianBlur stdDeviation="0.379255" result="effect1_foregroundBlur_12260_1972"/>
</filter>
<filter id="filter19_f_12260_1972" x="1390.24" y="177.611" width="2.5888" height="2.58855" filterUnits="userSpaceOnUse" color-interpolation-filters="sRGB">
<feFlood flood-opacity="0" result="BackgroundImageFix"/>
<feBlend mode="normal" in="SourceGraphic" in2="BackgroundImageFix" result="shape"/>
<feGaussianBlur stdDeviation="0.379255" result="effect1_foregroundBlur_12260_1972"/>
</filter>
<filter id="filter20_f_12260_1972" x="44.401" y="133.296" width="6.63603" height="6.63608" filterUnits="userSpaceOnUse" color-interpolation-filters="sRGB">
<feFlood flood-opacity="0" result="BackgroundImageFix"/>
<feBlend mode="normal" in="SourceGraphic" in2="BackgroundImageFix" result="shape"/>
<feGaussianBlur stdDeviation="1.13777" result="effect1_foregroundBlur_12260_1972"/>
</filter>
<filter id="filter21_f_12260_1972" x="20.1702" y="145.084" width="2.5595" height="2.55953" filterUnits="userSpaceOnUse" color-interpolation-filters="sRGB">
<feFlood flood-opacity="0" result="BackgroundImageFix"/>
<feBlend mode="normal" in="SourceGraphic" in2="BackgroundImageFix" result="shape"/>
<feGaussianBlur stdDeviation="0.379255" result="effect1_foregroundBlur_12260_1972"/>
</filter>
<filter id="filter22_f_12260_1972" x="83.1009" y="85.6763" width="6.63603" height="6.63607" filterUnits="userSpaceOnUse" color-interpolation-filters="sRGB">
<feFlood flood-opacity="0" result="BackgroundImageFix"/>
<feBlend mode="normal" in="SourceGraphic" in2="BackgroundImageFix" result="shape"/>
<feGaussianBlur stdDeviation="1.13777" result="effect1_foregroundBlur_12260_1972"/>
</filter>
<filter id="filter23_f_12260_1972" x="84.9463" y="88.4254" width="2.5595" height="2.55953" filterUnits="userSpaceOnUse" color-interpolation-filters="sRGB">
<feFlood flood-opacity="0" result="BackgroundImageFix"/>
<feBlend mode="normal" in="SourceGraphic" in2="BackgroundImageFix" result="shape"/>
<feGaussianBlur stdDeviation="0.379255" result="effect1_foregroundBlur_12260_1972"/>
</filter>
<filter id="filter24_f_12260_1972" x="55.2913" y="127.166" width="2.5595" height="2.55953" filterUnits="userSpaceOnUse" color-interpolation-filters="sRGB">
<feFlood flood-opacity="0" result="BackgroundImageFix"/>
<feBlend mode="normal" in="SourceGraphic" in2="BackgroundImageFix" result="shape"/>
<feGaussianBlur stdDeviation="0.379255" result="effect1_foregroundBlur_12260_1972"/>
</filter>
<filter id="filter25_f_12260_1972" x="53.1382" y="113.291" width="3.60198" height="3.60204" filterUnits="userSpaceOnUse" color-interpolation-filters="sRGB">
<feFlood flood-opacity="0" result="BackgroundImageFix"/>
<feBlend mode="normal" in="SourceGraphic" in2="BackgroundImageFix" result="shape"/>
<feGaussianBlur stdDeviation="0.379255" result="effect1_foregroundBlur_12260_1972"/>
</filter>
<filter id="filter26_f_12260_1972" x="44.9351" y="73.4346" width="3.60198" height="3.60203" filterUnits="userSpaceOnUse" color-interpolation-filters="sRGB">
<feFlood flood-opacity="0" result="BackgroundImageFix"/>
<feBlend mode="normal" in="SourceGraphic" in2="BackgroundImageFix" result="shape"/>
<feGaussianBlur stdDeviation="0.379255" result="effect1_foregroundBlur_12260_1972"/>
</filter>
<filter id="filter27_f_12260_1972" x="42.2432" y="108.268" width="2.5595" height="2.55953" filterUnits="userSpaceOnUse" color-interpolation-filters="sRGB">
<feFlood flood-opacity="0" result="BackgroundImageFix"/>
<feBlend mode="normal" in="SourceGraphic" in2="BackgroundImageFix" result="shape"/>
<feGaussianBlur stdDeviation="0.379255" result="effect1_foregroundBlur_12260_1972"/>
</filter>
<filter id="filter28_f_12260_1972" x="18.6532" y="143.567" width="5.59355" height="5.59357" filterUnits="userSpaceOnUse" color-interpolation-filters="sRGB">
<feFlood flood-opacity="0" result="BackgroundImageFix"/>
<feBlend mode="normal" in="SourceGraphic" in2="BackgroundImageFix" result="shape"/>
<feGaussianBlur stdDeviation="1.13777" result="effect1_foregroundBlur_12260_1972"/>
</filter>
<filter id="filter29_f_12260_1972" x="45.918" y="134.813" width="3.60198" height="3.60204" filterUnits="userSpaceOnUse" color-interpolation-filters="sRGB">
<feFlood flood-opacity="0" result="BackgroundImageFix"/>
<feBlend mode="normal" in="SourceGraphic" in2="BackgroundImageFix" result="shape"/>
<feGaussianBlur stdDeviation="0.379255" result="effect1_foregroundBlur_12260_1972"/>
</filter>
<filter id="filter30_f_12260_1972" x="85.8793" y="143.267" width="5.59355" height="5.59357" filterUnits="userSpaceOnUse" color-interpolation-filters="sRGB">
<feFlood flood-opacity="0" result="BackgroundImageFix"/>
<feBlend mode="normal" in="SourceGraphic" in2="BackgroundImageFix" result="shape"/>
<feGaussianBlur stdDeviation="1.13777" result="effect1_foregroundBlur_12260_1972"/>
</filter>
<filter id="filter31_f_12260_1972" x="82.3489" y="158.31" width="3.60198" height="3.60203" filterUnits="userSpaceOnUse" color-interpolation-filters="sRGB">
<feFlood flood-opacity="0" result="BackgroundImageFix"/>
<feBlend mode="normal" in="SourceGraphic" in2="BackgroundImageFix" result="shape"/>
<feGaussianBlur stdDeviation="0.379255" result="effect1_foregroundBlur_12260_1972"/>
</filter>
<filter id="filter32_f_12260_1972" x="98.6668" y="128.338" width="2.5595" height="2.55953" filterUnits="userSpaceOnUse" color-interpolation-filters="sRGB">
<feFlood flood-opacity="0" result="BackgroundImageFix"/>
<feBlend mode="normal" in="SourceGraphic" in2="BackgroundImageFix" result="shape"/>
<feGaussianBlur stdDeviation="0.379255" result="effect1_foregroundBlur_12260_1972"/>
</filter>
<radialGradient id="paint0_radial_12260_1972" cx="0" cy="0" r="1" gradientUnits="userSpaceOnUse" gradientTransform="translate(720 36) rotate(-180) scale(1000 316.062)">
<stop stop-color="white"/>
<stop offset="1" stop-color="white" stop-opacity="0"/>
</radialGradient>
<linearGradient id="paint1_linear_12260_1972" x1="88.8427" y1="-403.237" x2="88.8427" y2="316.763" gradientUnits="userSpaceOnUse">
<stop stop-color="#36F8E2"/>
<stop offset="1" stop-color="#36F8E2" stop-opacity="0"/>
</linearGradient>
<linearGradient id="paint2_linear_12260_1972" x1="40" y1="0" x2="40" y2="720" gradientUnits="userSpaceOnUse">
<stop stop-color="#36F8E2"/>
<stop offset="1" stop-color="#36F8E2" stop-opacity="0"/>
</linearGradient>
</defs>
</svg>
