<svg width="140" height="40" viewBox="0 0 140 40" fill="none" xmlns="http://www.w3.org/2000/svg">
<g clip-path="url(#clip0_12231_4099)">
<path d="M48.4339 22.2431C47.2418 21.5843 46.6145 21.051 46.6145 20.298C46.6145 19.3255 47.4614 18.7294 48.8103 18.7294C50.3787 18.7294 51.759 19.3882 51.759 19.3882L52.8569 16.0314C52.8569 16.0314 51.8531 15.2471 48.873 15.2471C44.7323 15.2471 41.8464 17.6314 41.8464 20.9569C41.8464 22.8392 43.1952 24.2824 44.9833 25.3177C46.4262 26.1333 46.9281 26.7294 46.9281 27.5765C46.9281 28.4863 46.2067 29.2079 44.8578 29.2079C42.8502 29.2079 40.968 28.1726 40.968 28.1726L39.8074 31.5294C39.8074 31.5294 41.564 32.6902 44.4814 32.6902C48.7475 32.6902 51.7903 30.5882 51.7903 26.8235C51.8531 24.753 50.2846 23.3098 48.4339 22.2431Z" fill="#838383"/>
<path d="M65.4359 15.1843C63.3342 15.1843 61.703 16.1882 60.4169 17.6941L60.3541 17.6627L62.1735 8.12549H57.4054L52.7942 32.3765H57.5309L59.0994 24.0941C59.7267 20.9569 61.3266 19.0431 62.8323 19.0431C63.8988 19.0431 64.3066 19.7647 64.3066 20.8C64.3066 21.4588 64.2439 22.2431 64.087 22.902L62.299 32.4078H67.0357L68.8865 22.6196C69.1061 21.5843 69.2316 20.3608 69.2316 19.5137C69.2943 16.7843 67.9141 15.1843 65.4359 15.1843Z" fill="#838383"/>
<path d="M80.0225 15.1843C74.3134 15.1843 70.5177 20.3294 70.5177 26.0706C70.5177 29.7412 72.7763 32.7216 77.0425 32.7216C82.6575 32.7216 86.4218 27.702 86.4218 21.8353C86.4532 18.4157 84.4769 15.1843 80.0225 15.1843ZM77.7012 29.051C76.07 29.051 75.4113 27.6706 75.4113 25.9451C75.4113 23.2157 76.8229 18.7922 79.3951 18.7922C81.0891 18.7922 81.6223 20.2353 81.6223 21.6471C81.6223 24.5961 80.2107 29.051 77.7012 29.051Z" fill="#838383"/>
<path d="M98.593 15.1843C95.3933 15.1843 93.5739 18.0079 93.5739 18.0079H93.5112L93.7935 15.4667H89.59C89.3705 17.1922 88.994 19.7961 88.6176 21.7726L85.3239 39.0902H90.0606L91.3781 32.0628H91.4722C91.4722 32.0628 92.4446 32.6902 94.264 32.6902C99.8477 32.6902 103.487 26.9804 103.487 21.2079C103.487 18.0392 102.075 15.1843 98.593 15.1843ZM94.0758 29.1451C92.8524 29.1451 92.1309 28.4549 92.1309 28.4549L92.9152 24.0314C93.4798 21.0824 95.0169 19.1059 96.6481 19.1059C98.0911 19.1059 98.5302 20.4549 98.5302 21.7098C98.5302 24.753 96.7108 29.1451 94.0758 29.1451Z" fill="#838383"/>
<path d="M110.262 8.37646C108.756 8.37646 107.533 9.56862 107.533 11.1372C107.533 12.549 108.411 13.5216 109.76 13.5216H109.823C111.297 13.5216 112.583 12.5176 112.615 10.7608C112.646 9.34901 111.705 8.37646 110.262 8.37646Z" fill="#838383"/>
<path d="M103.612 32.3765H108.38L111.611 15.5608H106.812L103.612 32.3765Z" fill="#838383"/>
<path d="M123.657 15.5294H120.363L120.52 14.7451C120.802 13.1137 121.743 11.6706 123.343 11.6706C124.19 11.6706 124.849 11.9216 124.849 11.9216L125.79 8.21961C125.79 8.21961 124.974 7.81177 123.218 7.81177C121.524 7.81177 119.861 8.28236 118.575 9.3804C116.944 10.7608 116.191 12.7373 115.814 14.7451L115.689 15.5294H113.493L112.803 19.1059H114.999L112.489 32.3765H117.226L119.736 19.1059H122.998L123.657 15.5294Z" fill="#838383"/>
<path d="M135.075 15.5608C135.075 15.5608 132.095 23.0275 130.778 27.1059H130.715C130.621 25.7882 129.554 15.5608 129.554 15.5608H124.567L127.421 30.9961C127.484 31.3412 127.452 31.5608 127.327 31.7804C126.762 32.8471 125.853 33.8824 124.755 34.6353C123.876 35.2941 122.873 35.702 122.088 35.9843L123.406 40C124.378 39.7804 126.355 38.9961 128.048 37.4275C130.213 35.3882 132.221 32.2824 134.26 28.0157L140.063 15.5608H135.075Z" fill="#838383"/>
<path d="M23.464 4.64314C23.464 4.64314 23.0249 4.76863 22.3034 4.98823C22.1779 4.58039 21.9897 4.1098 21.7388 3.60784C20.9232 2.03921 19.6998 1.19216 18.2568 1.19216C18.1627 1.19216 18.0686 1.19216 17.9431 1.22353C17.9117 1.16078 17.849 1.12941 17.8176 1.06667C17.1902 0.376469 16.3746 0.0627435 15.4022 0.0941161C13.5201 0.156861 11.6379 1.50588 10.1322 3.92157C9.06566 5.61568 8.25007 7.74902 8.03048 9.41176C5.86602 10.0706 4.36031 10.5412 4.32894 10.5725C3.23102 10.9176 3.19965 10.949 3.07417 11.9843C2.98007 12.7686 0.0941162 34.8549 0.0941162 34.8549L23.8091 38.9647V4.61176C23.6209 4.61176 23.5268 4.64314 23.464 4.64314ZM17.9745 6.33725C16.7197 6.71372 15.3395 7.15294 13.9906 7.56078C14.367 6.08627 15.1199 4.61176 15.9982 3.63921C16.3433 3.29412 16.8138 2.88627 17.3471 2.63529C17.8804 3.7647 18.0058 5.30196 17.9745 6.33725ZM15.4022 1.38039C15.8414 1.38039 16.2178 1.47451 16.5315 1.66274C16.0296 1.91372 15.5277 2.32157 15.0571 2.79216C13.8651 4.07843 12.9554 6.08627 12.579 8C11.4497 8.3451 10.3204 8.69019 9.28524 9.00392C9.97536 5.99215 12.5163 1.44314 15.4022 1.38039ZM11.7634 18.6353C11.8889 20.6431 17.1902 21.0824 17.5039 25.8196C17.7235 29.5529 15.5277 32.0941 12.3594 32.2823C8.53239 32.5333 6.43066 30.2745 6.43066 30.2745L7.24626 26.8235C7.24626 26.8235 9.34798 28.4235 11.0419 28.298C12.1398 28.2353 12.5476 27.3255 12.5163 26.698C12.3594 24.0627 8.03048 24.2196 7.74816 19.8902C7.49721 16.251 9.88126 12.5804 15.1513 12.2353C17.1902 12.1098 18.2254 12.6118 18.2254 12.6118L17.0334 17.1294C17.0334 17.1294 15.6845 16.502 14.0847 16.6274C11.7634 16.7843 11.732 18.2588 11.7634 18.6353ZM19.2292 5.96078C19.2292 5.01961 19.1038 3.67059 18.6646 2.54117C20.1076 2.82353 20.7977 4.42353 21.1114 5.39608C20.5467 5.55294 19.9193 5.74117 19.2292 5.96078Z" fill="#838383"/>
<path d="M24.5306 38.9019L34.3805 36.4549C34.3805 36.4549 30.1457 7.81175 30.1143 7.62351C30.083 7.43528 29.9261 7.30979 29.7693 7.30979C29.6124 7.30979 26.8519 7.24704 26.8519 7.24704C26.8519 7.24704 25.158 5.61567 24.5306 4.98822V38.9019Z" fill="#838383"/>
</g>
<defs>
<clipPath id="clip0_12231_4099">
<rect width="140" height="40" fill="white"/>
</clipPath>
</defs>
</svg>
