<svg width="171" height="32" viewBox="0 0 171 32" fill="none" xmlns="http://www.w3.org/2000/svg">
<g clip-path="url(#clip0_12231_4088)">
<path d="M57.9265 17.5235H64.3676C65.2724 17.5235 66.0058 18.2635 66.0058 19.1765C66.0058 20.0895 65.2724 20.8296 64.3676 20.8296H56.5986C56.4773 20.8296 56.36 20.8733 56.2678 20.9529L53.9221 22.978C53.563 23.288 53.7802 23.8814 54.2529 23.8814H63.9785C63.9825 23.8814 63.9858 23.8782 63.9858 23.8742C63.9858 23.8699 63.9894 23.8665 63.9936 23.8668C64.1159 23.8765 64.2397 23.8814 64.3645 23.8814C66.9444 23.8814 69.0359 21.775 69.0359 19.1765C69.0359 16.709 67.1499 14.6851 64.7506 14.4875C64.7464 14.4871 64.7433 14.4836 64.7433 14.4795C64.7433 14.4751 64.7398 14.4716 64.7354 14.4716H57.7964C56.8916 14.4716 56.1582 13.7315 56.1582 12.8185C56.1582 11.9055 56.8916 11.1654 57.7964 11.1654H65.5546C65.6824 11.1654 65.8055 11.1169 65.8994 11.0296L68.0776 9.0045C68.4184 8.68771 68.1962 8.11359 67.7329 8.11359H57.9265C57.926 8.11359 57.9256 8.1139 57.9256 8.11437C57.9256 8.11484 57.9253 8.11523 57.9248 8.11523C57.8831 8.11413 57.8414 8.11359 57.7994 8.11359C55.2195 8.11359 53.1281 10.22 53.1281 12.8185C53.1281 15.4169 55.2195 17.5235 57.7994 17.5235C57.8414 17.5235 57.8831 17.5228 57.9248 17.5217C57.9253 17.5217 57.9256 17.5221 57.9256 17.5226C57.9256 17.5231 57.926 17.5235 57.9265 17.5235Z" fill="#838383"/>
<path d="M95.4421 8.11359C95.1601 8.11359 94.9319 8.34338 94.9319 8.62692V23.3681C94.9319 23.6516 95.1601 23.8814 95.4421 23.8814H107.236C107.377 23.8814 107.512 23.8227 107.608 23.7192L109.085 22.1337C109.39 21.8058 109.159 21.2692 108.713 21.2692H98.4144C98.1332 21.2692 97.9051 21.0393 97.9051 20.7558V8.62692C97.9051 8.34338 97.6762 8.11359 97.395 8.11359H95.4421Z" fill="#838383"/>
<path fill-rule="evenodd" clip-rule="evenodd" d="M76.5512 8.11359C76.5504 8.11359 76.5498 8.11421 76.5498 8.11492C76.5498 8.1157 76.5493 8.11632 76.5485 8.11632C75.041 8.18173 73.8305 9.39672 73.7654 10.9098C73.7653 10.9105 73.7647 10.9111 73.764 10.9111C73.7636 10.9111 73.7632 10.9113 73.763 10.9116C73.7627 10.9118 73.7626 10.9121 73.7626 10.9125V20.8283C73.7626 20.829 73.7632 20.8296 73.7639 20.8296C73.7647 20.8296 73.7653 20.8303 73.7652 20.831C73.7635 20.8727 73.7626 20.9146 73.7626 20.9568C73.7626 22.529 74.9986 23.8114 76.5485 23.8787C76.5493 23.8787 76.5498 23.8793 76.5498 23.88L76.55 23.8807L76.5503 23.8811C76.5506 23.8814 76.5509 23.8814 76.5512 23.8814H87.253C87.2538 23.8814 87.2545 23.8808 87.2545 23.88V23.8793L87.2553 23.8789L87.2561 23.8787C88.806 23.8114 90.0418 22.529 90.0418 20.9568C90.0418 20.9146 90.041 20.8727 90.0394 20.831C90.0394 20.8303 90.0402 20.8296 90.0402 20.8296C90.041 20.8296 90.0418 20.829 90.0418 20.8283V10.9125C90.0418 10.9117 90.041 10.9111 90.0402 10.9111C90.0394 10.9111 90.0394 10.9105 90.0394 10.9098C89.9738 9.39672 88.7638 8.18173 87.2561 8.11632C87.2553 8.11632 87.2545 8.1157 87.2545 8.11492C87.2545 8.11421 87.2538 8.11359 87.253 8.11359H76.5512ZM78.546 10.9111L78.5452 10.9114V10.912C78.5452 10.9125 78.5452 10.9128 78.5444 10.9128C77.6022 10.954 76.8457 11.7182 76.805 12.67C76.805 12.6704 76.8046 12.6708 76.8041 12.6708C76.8036 12.6708 76.8032 12.6712 76.8032 12.6717V18.9091C76.8032 18.9096 76.8036 18.9099 76.8041 18.9099C76.8046 18.9099 76.8049 18.9103 76.8049 18.9107C76.8038 18.937 76.8032 18.9634 76.8032 18.9899C76.8032 19.9789 77.5757 20.7856 78.5444 20.8278C78.5452 20.8279 78.5452 20.8283 78.5452 20.8287V20.8292L78.546 20.8295V20.8296H85.2586V20.8296L85.2594 20.8292V20.8287C85.2594 20.8283 85.2594 20.8279 85.2602 20.8278C86.2289 20.7856 87.0014 19.9789 87.0014 18.9899C87.0014 18.9634 87.0007 18.937 86.9999 18.9107V18.9106V18.9103L87.0007 18.9099C87.0007 18.9099 87.0014 18.9096 87.0014 18.9091V12.6717C87.0014 12.6712 87.0007 12.6708 87.0007 12.6708C86.9999 12.6708 86.9999 12.6704 86.9999 12.67C86.9585 11.7182 86.2023 10.954 85.2602 10.9128C85.2594 10.9128 85.2594 10.9125 85.2594 10.912V10.9115L85.2586 10.9112V10.9111H78.546Z" fill="#838383"/>
<path fill-rule="evenodd" clip-rule="evenodd" d="M126.235 23.3681C126.235 23.6516 126.462 23.8814 126.741 23.8814H128.741C129.02 23.8814 129.247 23.6516 129.247 23.3681V11.1667C129.247 11.166 129.246 11.1654 129.245 11.1654V11.1652L129.244 11.1651C129.244 11.1648 129.244 11.1645 129.244 11.164C129.246 11.1223 129.247 11.0804 129.247 11.0383C129.247 9.46604 128.023 8.18361 126.488 8.11632C126.487 8.11632 126.486 8.1157 126.486 8.11492C126.486 8.11421 126.485 8.11359 126.485 8.11359H116.21C116.21 8.11359 116.209 8.11413 116.209 8.11492C116.209 8.11562 116.208 8.11625 116.207 8.11625C116.167 8.11445 116.125 8.11359 116.084 8.11359C114.49 8.11359 113.197 9.423 113.197 11.0383C113.197 11.0804 113.198 11.1223 113.2 11.164C113.2 11.1648 113.2 11.1654 113.199 11.1654C113.198 11.1654 113.197 11.166 113.197 11.1667V23.3681C113.197 23.6516 113.424 23.8814 113.703 23.8814H115.703C115.982 23.8814 116.209 23.6516 116.209 23.3681V18.2912C116.209 18.0076 116.435 17.7777 116.714 17.7777H125.729C126.009 17.7777 126.235 18.0076 126.235 18.2912V23.3681ZM116.209 14.9755V12.437C116.209 11.4538 116.996 10.6568 117.966 10.6568H124.478C125.449 10.6568 126.235 11.4538 126.235 12.437V14.9755C126.235 15.2591 126.009 15.4888 125.729 15.4888H116.715C116.435 15.4888 116.209 15.2591 116.209 14.9755Z" fill="#838383"/>
<path fill-rule="evenodd" clip-rule="evenodd" d="M168.459 23.8814C168.177 23.8814 167.948 23.6516 167.948 23.3681V18.2912C167.948 18.0076 167.72 17.7777 167.438 17.7777H158.323C158.041 17.7777 157.813 18.0076 157.813 18.2912V23.3681C157.813 23.6516 157.584 23.8814 157.302 23.8814H155.283C155.001 23.8814 154.772 23.6516 154.772 23.3681V11.1667V11.1664L154.773 11.1659C154.773 11.1656 154.773 11.1654 154.773 11.1654C154.774 11.1654 154.775 11.1648 154.775 11.164C154.773 11.1223 154.772 11.0804 154.772 11.0383C154.772 9.423 156.076 8.11359 157.686 8.11359C157.728 8.11359 157.77 8.11445 157.811 8.11625C157.812 8.11625 157.813 8.11562 157.813 8.11492C157.813 8.11413 157.813 8.11359 157.814 8.11359H168.2C168.201 8.11359 168.202 8.11421 168.202 8.11492C168.202 8.1157 168.202 8.11632 168.203 8.11632C169.753 8.18361 170.989 9.46604 170.989 11.0383C170.989 11.0804 170.988 11.1223 170.986 11.164C170.986 11.1648 170.987 11.1654 170.988 11.1654C170.988 11.1654 170.988 11.1656 170.988 11.1658C170.988 11.166 170.989 11.1664 170.989 11.1667V23.3681C170.989 23.6516 170.76 23.8814 170.478 23.8814H168.459ZM157.813 12.437V14.9755C157.813 15.2591 158.041 15.4888 158.323 15.4888H167.438C167.72 15.4888 167.948 15.2591 167.948 14.9755V12.437C167.948 11.4538 167.154 10.6568 166.175 10.6568H159.586C158.607 10.6568 157.813 11.4538 157.813 12.437Z" fill="#838383"/>
<path d="M136.776 8.11359C136.924 8.11359 137.065 8.17946 137.161 8.29385L146.132 19.0047C146.437 19.3678 147.022 19.1488 147.022 18.6716V8.62692C147.022 8.34338 147.248 8.11359 147.528 8.11359H149.528C149.807 8.11359 150.034 8.34338 150.034 8.62692V23.3681C150.034 23.6516 149.807 23.8814 149.528 23.8814H147.041C147.03 23.8814 147.022 23.8728 147.022 23.8623C147.022 23.8577 147.02 23.8531 147.018 23.8497L137.896 13.2135C137.588 12.8562 137.009 13.0769 137.009 13.5512V23.3681C137.009 23.6516 136.783 23.8814 136.504 23.8814H134.49C134.211 23.8814 133.985 23.6516 133.985 23.3681V8.62692C133.985 8.34338 134.211 8.11359 134.49 8.11359H136.776Z" fill="#838383"/>
<path d="M6.62477 24.4244C6.87419 24.1748 7.21236 24.0346 7.56496 24.0346H40.0979C40.6906 24.0346 40.9873 24.7523 40.568 25.1719L34.1395 31.6052C33.8902 31.8548 33.552 31.9951 33.1994 31.9951H0.666412C0.0737631 31.9951 -0.222916 31.2773 0.196318 30.8577L6.62477 24.4244Z" fill="#838383"/>
<path d="M6.62477 0.389827C6.87419 0.140214 7.21236 0 7.56496 0H40.0979C40.6906 0 40.9873 0.717765 40.568 1.13731L34.1395 7.57066C33.8902 7.82028 33.552 7.96049 33.1994 7.96049H0.666412C0.0737631 7.96049 -0.222916 7.24272 0.196318 6.82317L6.62477 0.389827Z" fill="#838383"/>
<path d="M34.1395 12.3305C33.8902 12.081 33.552 11.9407 33.1994 11.9407H0.666412C0.073763 11.9407 -0.222916 12.6584 0.196318 13.078L6.62477 19.5114C6.87419 19.761 7.21236 19.9012 7.56496 19.9012H40.0979C40.6906 19.9012 40.9873 19.1834 40.568 18.7639L34.1395 12.3305Z" fill="#838383"/>
</g>
<defs>
<clipPath id="clip0_12231_4088">
<rect width="171" height="32" fill="white"/>
</clipPath>
</defs>
</svg>
