<svg width="20" height="20" viewBox="0 0 20 20" fill="none" xmlns="http://www.w3.org/2000/svg">
<path d="M9.60547 10.6846C13.4555 10.6846 16.6055 13.1846 16.6055 15.1846C16.6055 15.5824 16.4474 15.9639 16.1661 16.2452C15.8848 16.5265 15.5033 16.6846 15.1055 16.6846H4.10547C3.70764 16.6846 3.32611 16.5265 3.04481 16.2452C2.7635 15.9639 2.60547 15.5824 2.60547 15.1846C2.60547 13.1846 5.75547 10.6846 9.60547 10.6846ZM9.60547 2.68457C10.5337 2.68457 11.424 3.05332 12.0803 3.7097C12.7367 4.36607 13.1055 5.25631 13.1055 6.18457C13.1055 7.11283 12.7367 8.00307 12.0803 8.65944C11.424 9.31582 10.5337 9.68457 9.60547 9.68457C8.67721 9.68457 7.78697 9.31582 7.1306 8.65944C6.47422 8.00307 6.10547 7.11283 6.10547 6.18457C6.10547 5.25631 6.47422 4.36607 7.1306 3.7097C7.78697 3.05332 8.67721 2.68457 9.60547 2.68457Z" fill="url(#paint0_linear_12231_4574)"/>
<g filter="url(#filter0_f_12231_4574)">
<path d="M9.60547 10.6846C13.4555 10.6846 16.6055 13.1846 16.6055 15.1846C16.6055 15.5824 16.4474 15.9639 16.1661 16.2452C15.8848 16.5265 15.5033 16.6846 15.1055 16.6846H4.10547C3.70764 16.6846 3.32611 16.5265 3.04481 16.2452C2.7635 15.9639 2.60547 15.5824 2.60547 15.1846C2.60547 13.1846 5.75547 10.6846 9.60547 10.6846ZM9.60547 2.68457C10.5337 2.68457 11.424 3.05332 12.0803 3.7097C12.7367 4.36607 13.1055 5.25631 13.1055 6.18457C13.1055 7.11283 12.7367 8.00307 12.0803 8.65944C11.424 9.31582 10.5337 9.68457 9.60547 9.68457C8.67721 9.68457 7.78697 9.31582 7.1306 8.65944C6.47422 8.00307 6.10547 7.11283 6.10547 6.18457C6.10547 5.25631 6.47422 4.36607 7.1306 3.7097C7.78697 3.05332 8.67721 2.68457 9.60547 2.68457Z" fill="url(#paint1_linear_12231_4574)" fill-opacity="0.37"/>
</g>
<defs>
<filter id="filter0_f_12231_4574" x="0.605469" y="0.68457" width="18" height="18" filterUnits="userSpaceOnUse" color-interpolation-filters="sRGB">
<feFlood flood-opacity="0" result="BackgroundImageFix"/>
<feBlend mode="normal" in="SourceGraphic" in2="BackgroundImageFix" result="shape"/>
<feGaussianBlur stdDeviation="1" result="effect1_foregroundBlur_12231_4574"/>
</filter>
<linearGradient id="paint0_linear_12231_4574" x1="9.60547" y1="2.68457" x2="9.60547" y2="16.6846" gradientUnits="userSpaceOnUse">
<stop stop-color="#36F6E0"/>
<stop offset="1" stop-color="#21988A"/>
</linearGradient>
<linearGradient id="paint1_linear_12231_4574" x1="9.60547" y1="2.68457" x2="9.60547" y2="16.6846" gradientUnits="userSpaceOnUse">
<stop stop-color="#36F6E0"/>
<stop offset="1" stop-color="#21988A"/>
</linearGradient>
</defs>
</svg>
