<svg width="32" height="25" viewBox="0 0 32 25" fill="none" xmlns="http://www.w3.org/2000/svg">
<path d="M5.48717 19.0653C5.67814 18.878 5.93705 18.7729 6.20701 18.7729H31.1153C31.569 18.7729 31.7962 19.3113 31.4752 19.626L26.5534 24.4517C26.3624 24.639 26.1035 24.7441 25.8336 24.7441H0.925266C0.471514 24.7441 0.244368 24.2058 0.565346 23.8911L5.48717 19.0653Z" fill="#202020"/>
<path d="M5.48717 1.03656C5.67814 0.849318 5.93705 0.744141 6.20701 0.744141H31.1153C31.569 0.744141 31.7962 1.28255 31.4752 1.59726L26.5534 6.42301C26.3624 6.61024 26.1035 6.71542 25.8336 6.71542H0.925266C0.471514 6.71542 0.244368 6.17701 0.565346 5.86231L5.48717 1.03656Z" fill="#202020"/>
<path d="M26.5534 9.9935C26.3624 9.80622 26.1035 9.70111 25.8336 9.70111H0.925266C0.471514 9.70111 0.244368 10.2395 0.565346 10.5542L5.48717 15.3799C5.67814 15.5672 5.93705 15.6724 6.20701 15.6724H31.1153C31.569 15.6724 31.7962 15.134 31.4752 14.8192L26.5534 9.9935Z" fill="#202020"/>
</svg>
