<svg width="20" height="18" viewBox="0 0 20 18" fill="none" xmlns="http://www.w3.org/2000/svg">
<path fill-rule="evenodd" clip-rule="evenodd" d="M16.8208 16.2854V16.2834L16.8388 16.2404L19.8369 1.12485V1.07686C19.8369 0.699974 19.6969 0.37107 19.395 0.174128C19.1301 0.00117929 18.8252 -0.0108171 18.6113 0.00517821C18.4121 0.0233455 18.2157 0.0635804 18.0254 0.125143C17.9442 0.151045 17.8642 0.180397 17.7855 0.213117L17.7725 0.218115L1.05743 6.77519L1.05243 6.77718C1.00122 6.79348 0.951411 6.81387 0.903478 6.83817C0.784668 6.89171 0.670624 6.95525 0.562579 7.02811C0.347642 7.17607 -0.0612377 7.52396 0.00774202 8.0758C0.0647252 8.53367 0.379633 8.82358 0.59257 8.97454C0.717975 9.06307 0.85316 9.13687 0.995451 9.19447L1.02744 9.20847L1.03744 9.21147L1.04444 9.21447L3.96957 10.1992C3.95891 10.3831 3.97791 10.5681 4.02656 10.754L5.49113 16.3114C5.57114 16.6143 5.74402 16.8846 5.9855 17.0842C6.22699 17.2838 6.52494 17.4028 6.83751 17.4244C7.15008 17.4461 7.46157 17.3692 7.72823 17.2047C7.9949 17.0402 8.20334 16.7964 8.32429 16.5073L10.6116 14.062L14.5395 17.0732L14.5954 17.0971C14.9523 17.2531 15.2852 17.3021 15.5902 17.2611C15.8951 17.2191 16.137 17.0911 16.3189 16.9462C16.5294 16.7756 16.6972 16.5582 16.8088 16.3114L16.8168 16.2944L16.8198 16.2884L16.8208 16.2854ZM5.47613 10.3721C5.45991 10.3105 5.46377 10.2452 5.48714 10.1859C5.51051 10.1266 5.55218 10.0763 5.60609 10.0422L15.5242 3.74408C15.5242 3.74408 16.108 3.38918 16.087 3.74408C16.087 3.74408 16.191 3.80606 15.8781 4.09697C15.5822 4.37389 8.80915 10.913 8.12335 11.5748C8.08613 11.6125 8.05957 11.6594 8.04637 11.7107L6.9407 15.9295L5.47613 10.3721Z" fill="white"/>
</svg>
