<svg width="1440" height="696" viewBox="0 0 1440 696" fill="none" xmlns="http://www.w3.org/2000/svg">
<g style="mix-blend-mode:plus-lighter">
<path d="M-223.5 27.5H-192.5V0H-191.5V27.5H-160.5V0H-159.5V27.5H-128.5V0H-127.5V27.5H-96.5V0H-95.5V27.5H-64.5V0H-63.5V27.5H-32.5V0H-31.5V27.5H-0.5V0H0.5V27.5H31.5V0H32.5V27.5H63.5V0H64.5V27.5H95.5V0H96.5V27.5H127.5V0H128.5V27.5H159.5V0H160.5V27.5H191.5V0H192.5V27.5H223.5V0H224.5V27.5H255.5V0H256.5V27.5H287.5V0H288.5V27.5H319.5V0H320.5V27.5H351.5V0H352.5V27.5H383.5V0H384.5V27.5H415.5V0H416.5V27.5H447.5V0H448.5V27.5H479.5V0H480.5V27.5H511.5V0H512.5V27.5H543.5V0H544.5V27.5H575.5V0H576.5V27.5H607.5V0H608.5V27.5H639.5V0H640.5V27.5H671.5V0H672.5V27.5H703.5V0H704.5V27.5H735.5V0H736.5V27.5H767.5V0H768.5V27.5H799.5V0H800.5V27.5H831.5V0H832.5V27.5H863.5V0H864.5V27.5H895.5V0H896.5V27.5H927.5V0H928.5V27.5H959.5V0H960.5V27.5H991.5V0H992.5V27.5H1023.5V0H1024.5V27.5H1055.5V0H1056.5V27.5H1087.5V0H1088.5V27.5H1119.5V0H1120.5V27.5H1151.5V0H1152.5V27.5H1183.5V0H1184.5V27.5H1215.5V0H1216.5V27.5H1247.5V0H1248.5V27.5H1279.5V0H1280.5V27.5H1311.5V0H1312.5V27.5H1343.5V0H1344.5V27.5H1375.5V0H1376.5V27.5H1407.5V0H1408.5V27.5H1439.5V0H1440.5V27.5H1471.5V0H1472.5V27.5H1503.5V0H1504.5V27.5H1535.5V0H1536.5V27.5H1567.5V0H1568.5V27.5H1599.5V0H1600.5V27.5H1631.5V0H1632.5V27.5H1663.5V0H1664.5V27.5H1720V28.5H1664.5V59.5H1720V60.5H1664.5V91.5H1720V92.5H1664.5V123.5H1720V124.5H1664.5V155.5H1720V156.5H1664.5V187.5H1720V188.5H1664.5V219.5H1720V220.5H1664.5V251.5H1720V252.5H1664.5V283.5H1720V284.5H1664.5V315.5H1720V316.5H1664.5V347.5H1720V348.5H1664.5V379.5H1720V380.5H1664.5V411.5H1720V412.5H1664.5V443.5H1720V444.5H1664.5V475.5H1720V476.5H1664.5V507.5H1720V508.5H1664.5V539.5H1720V540.5H1664.5V571.5H1720V572.5H1664.5V603.5H1720V604.5H1664.5V635.5H1720V636.5H1664.5V667.5H1720V668.5H1664.5V696H1663.5V668.5H1632.5V696H1631.5V668.5H1600.5V696H1599.5V668.5H1568.5V696H1567.5V668.5H1536.5V696H1535.5V668.5H1504.5V696H1503.5V668.5H1472.5V696H1471.5V668.5H1440.5V696H1439.5V668.5H1408.5V696H1407.5V668.5H1376.5V696H1375.5V668.5H1344.5V696H1343.5V668.5H1312.5V696H1311.5V668.5H1280.5V696H1279.5V668.5H1248.5V696H1247.5V668.5H1216.5V696H1215.5V668.5H1184.5V696H1183.5V668.5H1152.5V696H1151.5V668.5H1120.5V696H1119.5V668.5H1088.5V696H1087.5V668.5H1056.5V696H1055.5V668.5H1024.5V696H1023.5V668.5H992.5V696H991.5V668.5H960.5V696H959.5V668.5H928.5V696H927.5V668.5H896.5V696H895.5V668.5H864.5V696H863.5V668.5H832.5V696H831.5V668.5H800.5V696H799.5V668.5H768.5V696H767.5V668.5H736.5V696H735.5V668.5H704.5V696H703.5V668.5H672.5V696H671.5V668.5H640.5V696H639.5V668.5H608.5V696H607.5V668.5H576.5V696H575.5V668.5H544.5V696H543.5V668.5H512.5V696H511.5V668.5H480.5V696H479.5V668.5H448.5V696H447.5V668.5H416.5V696H415.5V668.5H384.5V696H383.5V668.5H352.5V696H351.5V668.5H320.5V696H319.5V668.5H288.5V696H287.5V668.5H256.5V696H255.5V668.5H224.5V696H223.5V668.5H192.5V696H191.5V668.5H160.5V696H159.5V668.5H128.5V696H127.5V668.5H96.5V696H95.5V668.5H64.5V696H63.5V668.5H32.5V696H31.5V668.5H0.5V696H-0.5V668.5H-31.5V696H-32.5V668.5H-63.5V696H-64.5V668.5H-95.5V696H-96.5V668.5H-127.5V696H-128.5V668.5H-159.5V696H-160.5V668.5H-191.5V696H-192.5V668.5H-223.5V696H-224.5V668.5H-280V667.5H-224.5V636.5H-280V635.5H-224.5V604.5H-280V603.5H-224.5V572.5H-280V571.5H-224.5V540.5H-280V539.5H-224.5V508.5H-280V507.5H-224.5V476.5H-280V475.5H-224.5V444.5H-280V443.5H-224.5V412.5H-280V411.5H-224.5V380.5H-280V379.5H-224.5V348.5H-280V347.5H-224.5V316.5H-280V315.5H-224.5V284.5H-280V283.5H-224.5V252.5H-280V251.5H-224.5V220.5H-280V219.5H-224.5V188.5H-280V187.5H-224.5V156.5H-280V155.5H-224.5V124.5H-280V123.5H-224.5V92.5H-280V91.5H-224.5V60.5H-280V59.5H-224.5V28.5H-280V27.5H-224.5V0H-223.5V27.5ZM1632.5 636.5V667.5H1663.5V636.5H1632.5ZM-223.5 667.5H-192.5V636.5H-223.5V667.5ZM-191.5 667.5H-160.5V636.5H-191.5V667.5ZM-159.5 667.5H-128.5V636.5H-159.5V667.5ZM-127.5 667.5H-96.5V636.5H-127.5V667.5ZM-95.5 667.5H-64.5V636.5H-95.5V667.5ZM-63.5 667.5H-32.5V636.5H-63.5V667.5ZM-31.5 667.5H-0.5V636.5H-31.5V667.5ZM0.5 667.5H31.5V636.5H0.5V667.5ZM32.5 667.5H63.5V636.5H32.5V667.5ZM64.5 667.5H95.5V636.5H64.5V667.5ZM96.5 667.5H127.5V636.5H96.5V667.5ZM128.5 667.5H159.5V636.5H128.5V667.5ZM160.5 667.5H191.5V636.5H160.5V667.5ZM192.5 667.5H223.5V636.5H192.5V667.5ZM224.5 667.5H255.5V636.5H224.5V667.5ZM256.5 667.5H287.5V636.5H256.5V667.5ZM288.5 667.5H319.5V636.5H288.5V667.5ZM320.5 667.5H351.5V636.5H320.5V667.5ZM352.5 667.5H383.5V636.5H352.5V667.5ZM384.5 667.5H415.5V636.5H384.5V667.5ZM416.5 667.5H447.5V636.5H416.5V667.5ZM448.5 667.5H479.5V636.5H448.5V667.5ZM480.5 667.5H511.5V636.5H480.5V667.5ZM512.5 667.5H543.5V636.5H512.5V667.5ZM544.5 667.5H575.5V636.5H544.5V667.5ZM576.5 667.5H607.5V636.5H576.5V667.5ZM608.5 667.5H639.5V636.5H608.5V667.5ZM640.5 667.5H671.5V636.5H640.5V667.5ZM672.5 667.5H703.5V636.5H672.5V667.5ZM704.5 667.5H735.5V636.5H704.5V667.5ZM736.5 667.5H767.5V636.5H736.5V667.5ZM768.5 667.5H799.5V636.5H768.5V667.5ZM800.5 667.5H831.5V636.5H800.5V667.5ZM832.5 667.5H863.5V636.5H832.5V667.5ZM864.5 667.5H895.5V636.5H864.5V667.5ZM896.5 667.5H927.5V636.5H896.5V667.5ZM928.5 667.5H959.5V636.5H928.5V667.5ZM960.5 667.5H991.5V636.5H960.5V667.5ZM992.5 667.5H1023.5V636.5H992.5V667.5ZM1024.5 667.5H1055.5V636.5H1024.5V667.5ZM1056.5 667.5H1087.5V636.5H1056.5V667.5ZM1088.5 667.5H1119.5V636.5H1088.5V667.5ZM1120.5 667.5H1151.5V636.5H1120.5V667.5ZM1152.5 667.5H1183.5V636.5H1152.5V667.5ZM1184.5 667.5H1215.5V636.5H1184.5V667.5ZM1216.5 667.5H1247.5V636.5H1216.5V667.5ZM1248.5 667.5H1279.5V636.5H1248.5V667.5ZM1280.5 667.5H1311.5V636.5H1280.5V667.5ZM1312.5 667.5H1343.5V636.5H1312.5V667.5ZM1344.5 667.5H1375.5V636.5H1344.5V667.5ZM1376.5 667.5H1407.5V636.5H1376.5V667.5ZM1408.5 667.5H1439.5V636.5H1408.5V667.5ZM1440.5 667.5H1471.5V636.5H1440.5V667.5ZM1472.5 667.5H1503.5V636.5H1472.5V667.5ZM1504.5 667.5H1535.5V636.5H1504.5V667.5ZM1536.5 667.5H1567.5V636.5H1536.5V667.5ZM1568.5 667.5H1599.5V636.5H1568.5V667.5ZM1600.5 667.5H1631.5V636.5H1600.5V667.5ZM1632.5 604.5V635.5H1663.5V604.5H1632.5ZM-223.5 635.5H-192.5V604.5H-223.5V635.5ZM-191.5 635.5H-160.5V604.5H-191.5V635.5ZM-159.5 635.5H-128.5V604.5H-159.5V635.5ZM-127.5 635.5H-96.5V604.5H-127.5V635.5ZM-95.5 635.5H-64.5V604.5H-95.5V635.5ZM-63.5 635.5H-32.5V604.5H-63.5V635.5ZM-31.5 635.5H-0.5V604.5H-31.5V635.5ZM0.5 635.5H31.5V604.5H0.5V635.5ZM32.5 635.5H63.5V604.5H32.5V635.5ZM64.5 635.5H95.5V604.5H64.5V635.5ZM96.5 635.5H127.5V604.5H96.5V635.5ZM128.5 635.5H159.5V604.5H128.5V635.5ZM160.5 635.5H191.5V604.5H160.5V635.5ZM192.5 635.5H223.5V604.5H192.5V635.5ZM224.5 635.5H255.5V604.5H224.5V635.5ZM256.5 635.5H287.5V604.5H256.5V635.5ZM288.5 635.5H319.5V604.5H288.5V635.5ZM320.5 635.5H351.5V604.5H320.5V635.5ZM352.5 635.5H383.5V604.5H352.5V635.5ZM384.5 635.5H415.5V604.5H384.5V635.5ZM416.5 635.5H447.5V604.5H416.5V635.5ZM448.5 635.5H479.5V604.5H448.5V635.5ZM480.5 635.5H511.5V604.5H480.5V635.5ZM512.5 635.5H543.5V604.5H512.5V635.5ZM544.5 635.5H575.5V604.5H544.5V635.5ZM576.5 635.5H607.5V604.5H576.5V635.5ZM608.5 635.5H639.5V604.5H608.5V635.5ZM640.5 635.5H671.5V604.5H640.5V635.5ZM672.5 635.5H703.5V604.5H672.5V635.5ZM704.5 635.5H735.5V604.5H704.5V635.5ZM736.5 635.5H767.5V604.5H736.5V635.5ZM768.5 635.5H799.5V604.5H768.5V635.5ZM800.5 635.5H831.5V604.5H800.5V635.5ZM832.5 635.5H863.5V604.5H832.5V635.5ZM864.5 635.5H895.5V604.5H864.5V635.5ZM896.5 635.5H927.5V604.5H896.5V635.5ZM928.5 635.5H959.5V604.5H928.5V635.5ZM960.5 635.5H991.5V604.5H960.5V635.5ZM992.5 635.5H1023.5V604.5H992.5V635.5ZM1024.5 635.5H1055.5V604.5H1024.5V635.5ZM1056.5 635.5H1087.5V604.5H1056.5V635.5ZM1088.5 635.5H1119.5V604.5H1088.5V635.5ZM1120.5 635.5H1151.5V604.5H1120.5V635.5ZM1152.5 635.5H1183.5V604.5H1152.5V635.5ZM1184.5 635.5H1215.5V604.5H1184.5V635.5ZM1216.5 635.5H1247.5V604.5H1216.5V635.5ZM1248.5 635.5H1279.5V604.5H1248.5V635.5ZM1280.5 635.5H1311.5V604.5H1280.5V635.5ZM1312.5 635.5H1343.5V604.5H1312.5V635.5ZM1344.5 635.5H1375.5V604.5H1344.5V635.5ZM1376.5 635.5H1407.5V604.5H1376.5V635.5ZM1408.5 635.5H1439.5V604.5H1408.5V635.5ZM1440.5 635.5H1471.5V604.5H1440.5V635.5ZM1472.5 635.5H1503.5V604.5H1472.5V635.5ZM1504.5 635.5H1535.5V604.5H1504.5V635.5ZM1536.5 635.5H1567.5V604.5H1536.5V635.5ZM1568.5 635.5H1599.5V604.5H1568.5V635.5ZM1600.5 635.5H1631.5V604.5H1600.5V635.5ZM1632.5 572.5V603.5H1663.5V572.5H1632.5ZM-223.5 603.5H-192.5V572.5H-223.5V603.5ZM-191.5 603.5H-160.5V572.5H-191.5V603.5ZM-159.5 603.5H-128.5V572.5H-159.5V603.5ZM-127.5 603.5H-96.5V572.5H-127.5V603.5ZM-95.5 603.5H-64.5V572.5H-95.5V603.5ZM-63.5 603.5H-32.5V572.5H-63.5V603.5ZM-31.5 603.5H-0.5V572.5H-31.5V603.5ZM0.5 603.5H31.5V572.5H0.5V603.5ZM32.5 603.5H63.5V572.5H32.5V603.5ZM64.5 603.5H95.5V572.5H64.5V603.5ZM96.5 603.5H127.5V572.5H96.5V603.5ZM128.5 603.5H159.5V572.5H128.5V603.5ZM160.5 603.5H191.5V572.5H160.5V603.5ZM192.5 603.5H223.5V572.5H192.5V603.5ZM224.5 603.5H255.5V572.5H224.5V603.5ZM256.5 603.5H287.5V572.5H256.5V603.5ZM288.5 603.5H319.5V572.5H288.5V603.5ZM320.5 603.5H351.5V572.5H320.5V603.5ZM352.5 603.5H383.5V572.5H352.5V603.5ZM384.5 603.5H415.5V572.5H384.5V603.5ZM416.5 603.5H447.5V572.5H416.5V603.5ZM448.5 603.5H479.5V572.5H448.5V603.5ZM480.5 603.5H511.5V572.5H480.5V603.5ZM512.5 603.5H543.5V572.5H512.5V603.5ZM544.5 603.5H575.5V572.5H544.5V603.5ZM576.5 603.5H607.5V572.5H576.5V603.5ZM608.5 603.5H639.5V572.5H608.5V603.5ZM640.5 603.5H671.5V572.5H640.5V603.5ZM672.5 603.5H703.5V572.5H672.5V603.5ZM704.5 603.5H735.5V572.5H704.5V603.5ZM736.5 603.5H767.5V572.5H736.5V603.5ZM768.5 603.5H799.5V572.5H768.5V603.5ZM800.5 603.5H831.5V572.5H800.5V603.5ZM832.5 603.5H863.5V572.5H832.5V603.5ZM864.5 603.5H895.5V572.5H864.5V603.5ZM896.5 603.5H927.5V572.5H896.5V603.5ZM928.5 603.5H959.5V572.5H928.5V603.5ZM960.5 603.5H991.5V572.5H960.5V603.5ZM992.5 603.5H1023.5V572.5H992.5V603.5ZM1024.5 603.5H1055.5V572.5H1024.5V603.5ZM1056.5 603.5H1087.5V572.5H1056.5V603.5ZM1088.5 603.5H1119.5V572.5H1088.5V603.5ZM1120.5 603.5H1151.5V572.5H1120.5V603.5ZM1152.5 603.5H1183.5V572.5H1152.5V603.5ZM1184.5 603.5H1215.5V572.5H1184.5V603.5ZM1216.5 603.5H1247.5V572.5H1216.5V603.5ZM1248.5 603.5H1279.5V572.5H1248.5V603.5ZM1280.5 603.5H1311.5V572.5H1280.5V603.5ZM1312.5 603.5H1343.5V572.5H1312.5V603.5ZM1344.5 603.5H1375.5V572.5H1344.5V603.5ZM1376.5 603.5H1407.5V572.5H1376.5V603.5ZM1408.5 603.5H1439.5V572.5H1408.5V603.5ZM1440.5 603.5H1471.5V572.5H1440.5V603.5ZM1472.5 603.5H1503.5V572.5H1472.5V603.5ZM1504.5 603.5H1535.5V572.5H1504.5V603.5ZM1536.5 603.5H1567.5V572.5H1536.5V603.5ZM1568.5 603.5H1599.5V572.5H1568.5V603.5ZM1600.5 603.5H1631.5V572.5H1600.5V603.5ZM1632.5 540.5V571.5H1663.5V540.5H1632.5ZM-223.5 571.5H-192.5V540.5H-223.5V571.5ZM-191.5 571.5H-160.5V540.5H-191.5V571.5ZM-159.5 571.5H-128.5V540.5H-159.5V571.5ZM-127.5 571.5H-96.5V540.5H-127.5V571.5ZM-95.5 571.5H-64.5V540.5H-95.5V571.5ZM-63.5 571.5H-32.5V540.5H-63.5V571.5ZM-31.5 571.5H-0.5V540.5H-31.5V571.5ZM0.5 571.5H31.5V540.5H0.5V571.5ZM32.5 571.5H63.5V540.5H32.5V571.5ZM64.5 571.5H95.5V540.5H64.5V571.5ZM96.5 571.5H127.5V540.5H96.5V571.5ZM128.5 571.5H159.5V540.5H128.5V571.5ZM160.5 571.5H191.5V540.5H160.5V571.5ZM192.5 571.5H223.5V540.5H192.5V571.5ZM224.5 571.5H255.5V540.5H224.5V571.5ZM256.5 571.5H287.5V540.5H256.5V571.5ZM288.5 571.5H319.5V540.5H288.5V571.5ZM320.5 571.5H351.5V540.5H320.5V571.5ZM352.5 571.5H383.5V540.5H352.5V571.5ZM384.5 571.5H415.5V540.5H384.5V571.5ZM416.5 571.5H447.5V540.5H416.5V571.5ZM448.5 571.5H479.5V540.5H448.5V571.5ZM480.5 571.5H511.5V540.5H480.5V571.5ZM512.5 571.5H543.5V540.5H512.5V571.5ZM544.5 571.5H575.5V540.5H544.5V571.5ZM576.5 571.5H607.5V540.5H576.5V571.5ZM608.5 571.5H639.5V540.5H608.5V571.5ZM640.5 571.5H671.5V540.5H640.5V571.5ZM672.5 571.5H703.5V540.5H672.5V571.5ZM704.5 571.5H735.5V540.5H704.5V571.5ZM736.5 571.5H767.5V540.5H736.5V571.5ZM768.5 571.5H799.5V540.5H768.5V571.5ZM800.5 571.5H831.5V540.5H800.5V571.5ZM832.5 571.5H863.5V540.5H832.5V571.5ZM864.5 571.5H895.5V540.5H864.5V571.5ZM896.5 571.5H927.5V540.5H896.5V571.5ZM928.5 571.5H959.5V540.5H928.5V571.5ZM960.5 571.5H991.5V540.5H960.5V571.5ZM992.5 571.5H1023.5V540.5H992.5V571.5ZM1024.5 571.5H1055.5V540.5H1024.5V571.5ZM1056.5 571.5H1087.5V540.5H1056.5V571.5ZM1088.5 571.5H1119.5V540.5H1088.5V571.5ZM1120.5 571.5H1151.5V540.5H1120.5V571.5ZM1152.5 571.5H1183.5V540.5H1152.5V571.5ZM1184.5 571.5H1215.5V540.5H1184.5V571.5ZM1216.5 571.5H1247.5V540.5H1216.5V571.5ZM1248.5 571.5H1279.5V540.5H1248.5V571.5ZM1280.5 571.5H1311.5V540.5H1280.5V571.5ZM1312.5 571.5H1343.5V540.5H1312.5V571.5ZM1344.5 571.5H1375.5V540.5H1344.5V571.5ZM1376.5 571.5H1407.5V540.5H1376.5V571.5ZM1408.5 571.5H1439.5V540.5H1408.5V571.5ZM1440.5 571.5H1471.5V540.5H1440.5V571.5ZM1472.5 571.5H1503.5V540.5H1472.5V571.5ZM1504.5 571.5H1535.5V540.5H1504.5V571.5ZM1536.5 571.5H1567.5V540.5H1536.5V571.5ZM1568.5 571.5H1599.5V540.5H1568.5V571.5ZM1600.5 571.5H1631.5V540.5H1600.5V571.5ZM1632.5 508.5V539.5H1663.5V508.5H1632.5ZM-223.5 539.5H-192.5V508.5H-223.5V539.5ZM-191.5 539.5H-160.5V508.5H-191.5V539.5ZM-159.5 539.5H-128.5V508.5H-159.5V539.5ZM-127.5 539.5H-96.5V508.5H-127.5V539.5ZM-95.5 539.5H-64.5V508.5H-95.5V539.5ZM-63.5 539.5H-32.5V508.5H-63.5V539.5ZM-31.5 539.5H-0.5V508.5H-31.5V539.5ZM0.5 539.5H31.5V508.5H0.5V539.5ZM32.5 539.5H63.5V508.5H32.5V539.5ZM64.5 539.5H95.5V508.5H64.5V539.5ZM96.5 539.5H127.5V508.5H96.5V539.5ZM128.5 539.5H159.5V508.5H128.5V539.5ZM160.5 539.5H191.5V508.5H160.5V539.5ZM192.5 539.5H223.5V508.5H192.5V539.5ZM224.5 539.5H255.5V508.5H224.5V539.5ZM256.5 539.5H287.5V508.5H256.5V539.5ZM288.5 539.5H319.5V508.5H288.5V539.5ZM320.5 539.5H351.5V508.5H320.5V539.5ZM352.5 539.5H383.5V508.5H352.5V539.5ZM384.5 539.5H415.5V508.5H384.5V539.5ZM416.5 539.5H447.5V508.5H416.5V539.5ZM448.5 539.5H479.5V508.5H448.5V539.5ZM480.5 539.5H511.5V508.5H480.5V539.5ZM512.5 539.5H543.5V508.5H512.5V539.5ZM544.5 539.5H575.5V508.5H544.5V539.5ZM576.5 539.5H607.5V508.5H576.5V539.5ZM608.5 539.5H639.5V508.5H608.5V539.5ZM640.5 539.5H671.5V508.5H640.5V539.5ZM672.5 539.5H703.5V508.5H672.5V539.5ZM704.5 539.5H735.5V508.5H704.5V539.5ZM736.5 539.5H767.5V508.5H736.5V539.5ZM768.5 539.5H799.5V508.5H768.5V539.5ZM800.5 539.5H831.5V508.5H800.5V539.5ZM832.5 539.5H863.5V508.5H832.5V539.5ZM864.5 539.5H895.5V508.5H864.5V539.5ZM896.5 539.5H927.5V508.5H896.5V539.5ZM928.5 539.5H959.5V508.5H928.5V539.5ZM960.5 539.5H991.5V508.5H960.5V539.5ZM992.5 539.5H1023.5V508.5H992.5V539.5ZM1024.5 539.5H1055.5V508.5H1024.5V539.5ZM1056.5 539.5H1087.5V508.5H1056.5V539.5ZM1088.5 539.5H1119.5V508.5H1088.5V539.5ZM1120.5 539.5H1151.5V508.5H1120.5V539.5ZM1152.5 539.5H1183.5V508.5H1152.5V539.5ZM1184.5 539.5H1215.5V508.5H1184.5V539.5ZM1216.5 539.5H1247.5V508.5H1216.5V539.5ZM1248.5 539.5H1279.5V508.5H1248.5V539.5ZM1280.5 539.5H1311.5V508.5H1280.5V539.5ZM1312.5 539.5H1343.5V508.5H1312.5V539.5ZM1344.5 539.5H1375.5V508.5H1344.5V539.5ZM1376.5 539.5H1407.5V508.5H1376.5V539.5ZM1408.5 539.5H1439.5V508.5H1408.5V539.5ZM1440.5 539.5H1471.5V508.5H1440.5V539.5ZM1472.5 539.5H1503.5V508.5H1472.5V539.5ZM1504.5 539.5H1535.5V508.5H1504.5V539.5ZM1536.5 539.5H1567.5V508.5H1536.5V539.5ZM1568.5 539.5H1599.5V508.5H1568.5V539.5ZM1600.5 539.5H1631.5V508.5H1600.5V539.5ZM1632.5 476.5V507.5H1663.5V476.5H1632.5ZM-223.5 507.5H-192.5V476.5H-223.5V507.5ZM-191.5 507.5H-160.5V476.5H-191.5V507.5ZM-159.5 507.5H-128.5V476.5H-159.5V507.5ZM-127.5 507.5H-96.5V476.5H-127.5V507.5ZM-95.5 507.5H-64.5V476.5H-95.5V507.5ZM-63.5 507.5H-32.5V476.5H-63.5V507.5ZM-31.5 507.5H-0.5V476.5H-31.5V507.5ZM0.5 507.5H31.5V476.5H0.5V507.5ZM32.5 507.5H63.5V476.5H32.5V507.5ZM64.5 507.5H95.5V476.5H64.5V507.5ZM96.5 507.5H127.5V476.5H96.5V507.5ZM128.5 507.5H159.5V476.5H128.5V507.5ZM160.5 507.5H191.5V476.5H160.5V507.5ZM192.5 507.5H223.5V476.5H192.5V507.5ZM224.5 507.5H255.5V476.5H224.5V507.5ZM256.5 507.5H287.5V476.5H256.5V507.5ZM288.5 507.5H319.5V476.5H288.5V507.5ZM320.5 507.5H351.5V476.5H320.5V507.5ZM352.5 507.5H383.5V476.5H352.5V507.5ZM384.5 507.5H415.5V476.5H384.5V507.5ZM416.5 507.5H447.5V476.5H416.5V507.5ZM448.5 507.5H479.5V476.5H448.5V507.5ZM480.5 507.5H511.5V476.5H480.5V507.5ZM512.5 507.5H543.5V476.5H512.5V507.5ZM544.5 507.5H575.5V476.5H544.5V507.5ZM576.5 507.5H607.5V476.5H576.5V507.5ZM608.5 507.5H639.5V476.5H608.5V507.5ZM640.5 507.5H671.5V476.5H640.5V507.5ZM672.5 507.5H703.5V476.5H672.5V507.5ZM704.5 507.5H735.5V476.5H704.5V507.5ZM736.5 507.5H767.5V476.5H736.5V507.5ZM768.5 507.5H799.5V476.5H768.5V507.5ZM800.5 507.5H831.5V476.5H800.5V507.5ZM832.5 507.5H863.5V476.5H832.5V507.5ZM864.5 507.5H895.5V476.5H864.5V507.5ZM896.5 507.5H927.5V476.5H896.5V507.5ZM928.5 507.5H959.5V476.5H928.5V507.5ZM960.5 507.5H991.5V476.5H960.5V507.5ZM992.5 507.5H1023.5V476.5H992.5V507.5ZM1024.5 507.5H1055.5V476.5H1024.5V507.5ZM1056.5 507.5H1087.5V476.5H1056.5V507.5ZM1088.5 507.5H1119.5V476.5H1088.5V507.5ZM1120.5 507.5H1151.5V476.5H1120.5V507.5ZM1152.5 507.5H1183.5V476.5H1152.5V507.5ZM1184.5 507.5H1215.5V476.5H1184.5V507.5ZM1216.5 507.5H1247.5V476.5H1216.5V507.5ZM1248.5 507.5H1279.5V476.5H1248.5V507.5ZM1280.5 507.5H1311.5V476.5H1280.5V507.5ZM1312.5 507.5H1343.5V476.5H1312.5V507.5ZM1344.5 507.5H1375.5V476.5H1344.5V507.5ZM1376.5 507.5H1407.5V476.5H1376.5V507.5ZM1408.5 507.5H1439.5V476.5H1408.5V507.5ZM1440.5 507.5H1471.5V476.5H1440.5V507.5ZM1472.5 507.5H1503.5V476.5H1472.5V507.5ZM1504.5 507.5H1535.5V476.5H1504.5V507.5ZM1536.5 507.5H1567.5V476.5H1536.5V507.5ZM1568.5 507.5H1599.5V476.5H1568.5V507.5ZM1600.5 507.5H1631.5V476.5H1600.5V507.5ZM1632.5 444.5V475.5H1663.5V444.5H1632.5ZM-223.5 475.5H-192.5V444.5H-223.5V475.5ZM-191.5 475.5H-160.5V444.5H-191.5V475.5ZM-159.5 475.5H-128.5V444.5H-159.5V475.5ZM-127.5 475.5H-96.5V444.5H-127.5V475.5ZM-95.5 475.5H-64.5V444.5H-95.5V475.5ZM-63.5 475.5H-32.5V444.5H-63.5V475.5ZM-31.5 475.5H-0.5V444.5H-31.5V475.5ZM0.5 475.5H31.5V444.5H0.5V475.5ZM32.5 475.5H63.5V444.5H32.5V475.5ZM64.5 475.5H95.5V444.5H64.5V475.5ZM96.5 475.5H127.5V444.5H96.5V475.5ZM128.5 475.5H159.5V444.5H128.5V475.5ZM160.5 475.5H191.5V444.5H160.5V475.5ZM192.5 475.5H223.5V444.5H192.5V475.5ZM224.5 475.5H255.5V444.5H224.5V475.5ZM256.5 475.5H287.5V444.5H256.5V475.5ZM288.5 475.5H319.5V444.5H288.5V475.5ZM320.5 475.5H351.5V444.5H320.5V475.5ZM352.5 475.5H383.5V444.5H352.5V475.5ZM384.5 475.5H415.5V444.5H384.5V475.5ZM416.5 475.5H447.5V444.5H416.5V475.5ZM448.5 475.5H479.5V444.5H448.5V475.5ZM480.5 475.5H511.5V444.5H480.5V475.5ZM512.5 475.5H543.5V444.5H512.5V475.5ZM544.5 475.5H575.5V444.5H544.5V475.5ZM576.5 475.5H607.5V444.5H576.5V475.5ZM608.5 475.5H639.5V444.5H608.5V475.5ZM640.5 475.5H671.5V444.5H640.5V475.5ZM672.5 475.5H703.5V444.5H672.5V475.5ZM704.5 475.5H735.5V444.5H704.5V475.5ZM736.5 475.5H767.5V444.5H736.5V475.5ZM768.5 475.5H799.5V444.5H768.5V475.5ZM800.5 475.5H831.5V444.5H800.5V475.5ZM832.5 475.5H863.5V444.5H832.5V475.5ZM864.5 475.5H895.5V444.5H864.5V475.5ZM896.5 475.5H927.5V444.5H896.5V475.5ZM928.5 475.5H959.5V444.5H928.5V475.5ZM960.5 475.5H991.5V444.5H960.5V475.5ZM992.5 475.5H1023.5V444.5H992.5V475.5ZM1024.5 475.5H1055.5V444.5H1024.5V475.5ZM1056.5 475.5H1087.5V444.5H1056.5V475.5ZM1088.5 475.5H1119.5V444.5H1088.5V475.5ZM1120.5 475.5H1151.5V444.5H1120.5V475.5ZM1152.5 475.5H1183.5V444.5H1152.5V475.5ZM1184.5 475.5H1215.5V444.5H1184.5V475.5ZM1216.5 475.5H1247.5V444.5H1216.5V475.5ZM1248.5 475.5H1279.5V444.5H1248.5V475.5ZM1280.5 475.5H1311.5V444.5H1280.5V475.5ZM1312.5 475.5H1343.5V444.5H1312.5V475.5ZM1344.5 475.5H1375.5V444.5H1344.5V475.5ZM1376.5 475.5H1407.5V444.5H1376.5V475.5ZM1408.5 475.5H1439.5V444.5H1408.5V475.5ZM1440.5 475.5H1471.5V444.5H1440.5V475.5ZM1472.5 475.5H1503.5V444.5H1472.5V475.5ZM1504.5 475.5H1535.5V444.5H1504.5V475.5ZM1536.5 475.5H1567.5V444.5H1536.5V475.5ZM1568.5 475.5H1599.5V444.5H1568.5V475.5ZM1600.5 475.5H1631.5V444.5H1600.5V475.5ZM1632.5 412.5V443.5H1663.5V412.5H1632.5ZM-223.5 443.5H-192.5V412.5H-223.5V443.5ZM-191.5 443.5H-160.5V412.5H-191.5V443.5ZM-159.5 443.5H-128.5V412.5H-159.5V443.5ZM-127.5 443.5H-96.5V412.5H-127.5V443.5ZM-95.5 443.5H-64.5V412.5H-95.5V443.5ZM-63.5 443.5H-32.5V412.5H-63.5V443.5ZM-31.5 443.5H-0.5V412.5H-31.5V443.5ZM0.5 443.5H31.5V412.5H0.5V443.5ZM32.5 443.5H63.5V412.5H32.5V443.5ZM64.5 443.5H95.5V412.5H64.5V443.5ZM96.5 443.5H127.5V412.5H96.5V443.5ZM128.5 443.5H159.5V412.5H128.5V443.5ZM160.5 443.5H191.5V412.5H160.5V443.5ZM192.5 443.5H223.5V412.5H192.5V443.5ZM224.5 443.5H255.5V412.5H224.5V443.5ZM256.5 443.5H287.5V412.5H256.5V443.5ZM288.5 443.5H319.5V412.5H288.5V443.5ZM320.5 443.5H351.5V412.5H320.5V443.5ZM352.5 443.5H383.5V412.5H352.5V443.5ZM384.5 443.5H415.5V412.5H384.5V443.5ZM416.5 443.5H447.5V412.5H416.5V443.5ZM448.5 443.5H479.5V412.5H448.5V443.5ZM480.5 443.5H511.5V412.5H480.5V443.5ZM512.5 443.5H543.5V412.5H512.5V443.5ZM544.5 443.5H575.5V412.5H544.5V443.5ZM576.5 443.5H607.5V412.5H576.5V443.5ZM608.5 443.5H639.5V412.5H608.5V443.5ZM640.5 443.5H671.5V412.5H640.5V443.5ZM672.5 443.5H703.5V412.5H672.5V443.5ZM704.5 443.5H735.5V412.5H704.5V443.5ZM736.5 443.5H767.5V412.5H736.5V443.5ZM768.5 443.5H799.5V412.5H768.5V443.5ZM800.5 443.5H831.5V412.5H800.5V443.5ZM832.5 443.5H863.5V412.5H832.5V443.5ZM864.5 443.5H895.5V412.5H864.5V443.5ZM896.5 443.5H927.5V412.5H896.5V443.5ZM928.5 443.5H959.5V412.5H928.5V443.5ZM960.5 443.5H991.5V412.5H960.5V443.5ZM992.5 443.5H1023.5V412.5H992.5V443.5ZM1024.5 443.5H1055.5V412.5H1024.5V443.5ZM1056.5 443.5H1087.5V412.5H1056.5V443.5ZM1088.5 443.5H1119.5V412.5H1088.5V443.5ZM1120.5 443.5H1151.5V412.5H1120.5V443.5ZM1152.5 443.5H1183.5V412.5H1152.5V443.5ZM1184.5 443.5H1215.5V412.5H1184.5V443.5ZM1216.5 443.5H1247.5V412.5H1216.5V443.5ZM1248.5 443.5H1279.5V412.5H1248.5V443.5ZM1280.5 443.5H1311.5V412.5H1280.5V443.5ZM1312.5 443.5H1343.5V412.5H1312.5V443.5ZM1344.5 443.5H1375.5V412.5H1344.5V443.5ZM1376.5 443.5H1407.5V412.5H1376.5V443.5ZM1408.5 443.5H1439.5V412.5H1408.5V443.5ZM1440.5 443.5H1471.5V412.5H1440.5V443.5ZM1472.5 443.5H1503.5V412.5H1472.5V443.5ZM1504.5 443.5H1535.5V412.5H1504.5V443.5ZM1536.5 443.5H1567.5V412.5H1536.5V443.5ZM1568.5 443.5H1599.5V412.5H1568.5V443.5ZM1600.5 443.5H1631.5V412.5H1600.5V443.5ZM1632.5 380.5V411.5H1663.5V380.5H1632.5ZM-223.5 411.5H-192.5V380.5H-223.5V411.5ZM-191.5 411.5H-160.5V380.5H-191.5V411.5ZM-159.5 411.5H-128.5V380.5H-159.5V411.5ZM-127.5 411.5H-96.5V380.5H-127.5V411.5ZM-95.5 411.5H-64.5V380.5H-95.5V411.5ZM-63.5 411.5H-32.5V380.5H-63.5V411.5ZM-31.5 411.5H-0.5V380.5H-31.5V411.5ZM0.5 411.5H31.5V380.5H0.5V411.5ZM32.5 411.5H63.5V380.5H32.5V411.5ZM64.5 411.5H95.5V380.5H64.5V411.5ZM96.5 411.5H127.5V380.5H96.5V411.5ZM128.5 411.5H159.5V380.5H128.5V411.5ZM160.5 411.5H191.5V380.5H160.5V411.5ZM192.5 411.5H223.5V380.5H192.5V411.5ZM224.5 411.5H255.5V380.5H224.5V411.5ZM256.5 411.5H287.5V380.5H256.5V411.5ZM288.5 411.5H319.5V380.5H288.5V411.5ZM320.5 411.5H351.5V380.5H320.5V411.5ZM352.5 411.5H383.5V380.5H352.5V411.5ZM384.5 411.5H415.5V380.5H384.5V411.5ZM416.5 411.5H447.5V380.5H416.5V411.5ZM448.5 411.5H479.5V380.5H448.5V411.5ZM480.5 411.5H511.5V380.5H480.5V411.5ZM512.5 411.5H543.5V380.5H512.5V411.5ZM544.5 411.5H575.5V380.5H544.5V411.5ZM576.5 411.5H607.5V380.5H576.5V411.5ZM608.5 411.5H639.5V380.5H608.5V411.5ZM640.5 411.5H671.5V380.5H640.5V411.5ZM672.5 411.5H703.5V380.5H672.5V411.5ZM704.5 411.5H735.5V380.5H704.5V411.5ZM736.5 411.5H767.5V380.5H736.5V411.5ZM768.5 411.5H799.5V380.5H768.5V411.5ZM800.5 411.5H831.5V380.5H800.5V411.5ZM832.5 411.5H863.5V380.5H832.5V411.5ZM864.5 411.5H895.5V380.5H864.5V411.5ZM896.5 411.5H927.5V380.5H896.5V411.5ZM928.5 411.5H959.5V380.5H928.5V411.5ZM960.5 411.5H991.5V380.5H960.5V411.5ZM992.5 411.5H1023.5V380.5H992.5V411.5ZM1024.5 411.5H1055.5V380.5H1024.5V411.5ZM1056.5 411.5H1087.5V380.5H1056.5V411.5ZM1088.5 411.5H1119.5V380.5H1088.5V411.5ZM1120.5 411.5H1151.5V380.5H1120.5V411.5ZM1152.5 411.5H1183.5V380.5H1152.5V411.5ZM1184.5 411.5H1215.5V380.5H1184.5V411.5ZM1216.5 411.5H1247.5V380.5H1216.5V411.5ZM1248.5 411.5H1279.5V380.5H1248.5V411.5ZM1280.5 411.5H1311.5V380.5H1280.5V411.5ZM1312.5 411.5H1343.5V380.5H1312.5V411.5ZM1344.5 411.5H1375.5V380.5H1344.5V411.5ZM1376.5 411.5H1407.5V380.5H1376.5V411.5ZM1408.5 411.5H1439.5V380.5H1408.5V411.5ZM1440.5 411.5H1471.5V380.5H1440.5V411.5ZM1472.5 411.5H1503.5V380.5H1472.5V411.5ZM1504.5 411.5H1535.5V380.5H1504.5V411.5ZM1536.5 411.5H1567.5V380.5H1536.5V411.5ZM1568.5 411.5H1599.5V380.5H1568.5V411.5ZM1600.5 411.5H1631.5V380.5H1600.5V411.5ZM1632.5 348.5V379.5H1663.5V348.5H1632.5ZM-223.5 379.5H-192.5V348.5H-223.5V379.5ZM-191.5 379.5H-160.5V348.5H-191.5V379.5ZM-159.5 379.5H-128.5V348.5H-159.5V379.5ZM-127.5 379.5H-96.5V348.5H-127.5V379.5ZM-95.5 379.5H-64.5V348.5H-95.5V379.5ZM-63.5 379.5H-32.5V348.5H-63.5V379.5ZM-31.5 379.5H-0.5V348.5H-31.5V379.5ZM0.5 379.5H31.5V348.5H0.5V379.5ZM32.5 379.5H63.5V348.5H32.5V379.5ZM64.5 379.5H95.5V348.5H64.5V379.5ZM96.5 379.5H127.5V348.5H96.5V379.5ZM128.5 379.5H159.5V348.5H128.5V379.5ZM160.5 379.5H191.5V348.5H160.5V379.5ZM192.5 379.5H223.5V348.5H192.5V379.5ZM224.5 379.5H255.5V348.5H224.5V379.5ZM256.5 379.5H287.5V348.5H256.5V379.5ZM288.5 379.5H319.5V348.5H288.5V379.5ZM320.5 379.5H351.5V348.5H320.5V379.5ZM352.5 379.5H383.5V348.5H352.5V379.5ZM384.5 379.5H415.5V348.5H384.5V379.5ZM416.5 379.5H447.5V348.5H416.5V379.5ZM448.5 379.5H479.5V348.5H448.5V379.5ZM480.5 379.5H511.5V348.5H480.5V379.5ZM512.5 379.5H543.5V348.5H512.5V379.5ZM544.5 379.5H575.5V348.5H544.5V379.5ZM576.5 379.5H607.5V348.5H576.5V379.5ZM608.5 379.5H639.5V348.5H608.5V379.5ZM640.5 379.5H671.5V348.5H640.5V379.5ZM672.5 379.5H703.5V348.5H672.5V379.5ZM704.5 379.5H735.5V348.5H704.5V379.5ZM736.5 379.5H767.5V348.5H736.5V379.5ZM768.5 379.5H799.5V348.5H768.5V379.5ZM800.5 379.5H831.5V348.5H800.5V379.5ZM832.5 379.5H863.5V348.5H832.5V379.5ZM864.5 379.5H895.5V348.5H864.5V379.5ZM896.5 379.5H927.5V348.5H896.5V379.5ZM928.5 379.5H959.5V348.5H928.5V379.5ZM960.5 379.5H991.5V348.5H960.5V379.5ZM992.5 379.5H1023.5V348.5H992.5V379.5ZM1024.5 379.5H1055.5V348.5H1024.5V379.5ZM1056.5 379.5H1087.5V348.5H1056.5V379.5ZM1088.5 379.5H1119.5V348.5H1088.5V379.5ZM1120.5 379.5H1151.5V348.5H1120.5V379.5ZM1152.5 379.5H1183.5V348.5H1152.5V379.5ZM1184.5 379.5H1215.5V348.5H1184.5V379.5ZM1216.5 379.5H1247.5V348.5H1216.5V379.5ZM1248.5 379.5H1279.5V348.5H1248.5V379.5ZM1280.5 379.5H1311.5V348.5H1280.5V379.5ZM1312.5 379.5H1343.5V348.5H1312.5V379.5ZM1344.5 379.5H1375.5V348.5H1344.5V379.5ZM1376.5 379.5H1407.5V348.5H1376.5V379.5ZM1408.5 379.5H1439.5V348.5H1408.5V379.5ZM1440.5 379.5H1471.5V348.5H1440.5V379.5ZM1472.5 379.5H1503.5V348.5H1472.5V379.5ZM1504.5 379.5H1535.5V348.5H1504.5V379.5ZM1536.5 379.5H1567.5V348.5H1536.5V379.5ZM1568.5 379.5H1599.5V348.5H1568.5V379.5ZM1600.5 379.5H1631.5V348.5H1600.5V379.5ZM1632.5 316.5V347.5H1663.5V316.5H1632.5ZM-223.5 347.5H-192.5V316.5H-223.5V347.5ZM-191.5 347.5H-160.5V316.5H-191.5V347.5ZM-159.5 347.5H-128.5V316.5H-159.5V347.5ZM-127.5 347.5H-96.5V316.5H-127.5V347.5ZM-95.5 347.5H-64.5V316.5H-95.5V347.5ZM-63.5 347.5H-32.5V316.5H-63.5V347.5ZM-31.5 347.5H-0.5V316.5H-31.5V347.5ZM0.5 347.5H31.5V316.5H0.5V347.5ZM32.5 347.5H63.5V316.5H32.5V347.5ZM64.5 347.5H95.5V316.5H64.5V347.5ZM96.5 347.5H127.5V316.5H96.5V347.5ZM128.5 347.5H159.5V316.5H128.5V347.5ZM160.5 347.5H191.5V316.5H160.5V347.5ZM192.5 347.5H223.5V316.5H192.5V347.5ZM224.5 347.5H255.5V316.5H224.5V347.5ZM256.5 347.5H287.5V316.5H256.5V347.5ZM288.5 347.5H319.5V316.5H288.5V347.5ZM320.5 347.5H351.5V316.5H320.5V347.5ZM352.5 347.5H383.5V316.5H352.5V347.5ZM384.5 347.5H415.5V316.5H384.5V347.5ZM416.5 347.5H447.5V316.5H416.5V347.5ZM448.5 347.5H479.5V316.5H448.5V347.5ZM480.5 347.5H511.5V316.5H480.5V347.5ZM512.5 347.5H543.5V316.5H512.5V347.5ZM544.5 347.5H575.5V316.5H544.5V347.5ZM576.5 347.5H607.5V316.5H576.5V347.5ZM608.5 347.5H639.5V316.5H608.5V347.5ZM640.5 347.5H671.5V316.5H640.5V347.5ZM672.5 347.5H703.5V316.5H672.5V347.5ZM704.5 347.5H735.5V316.5H704.5V347.5ZM736.5 347.5H767.5V316.5H736.5V347.5ZM768.5 347.5H799.5V316.5H768.5V347.5ZM800.5 347.5H831.5V316.5H800.5V347.5ZM832.5 347.5H863.5V316.5H832.5V347.5ZM864.5 347.5H895.5V316.5H864.5V347.5ZM896.5 347.5H927.5V316.5H896.5V347.5ZM928.5 347.5H959.5V316.5H928.5V347.5ZM960.5 347.5H991.5V316.5H960.5V347.5ZM992.5 347.5H1023.5V316.5H992.5V347.5ZM1024.5 347.5H1055.5V316.5H1024.5V347.5ZM1056.5 347.5H1087.5V316.5H1056.5V347.5ZM1088.5 347.5H1119.5V316.5H1088.5V347.5ZM1120.5 347.5H1151.5V316.5H1120.5V347.5ZM1152.5 347.5H1183.5V316.5H1152.5V347.5ZM1184.5 347.5H1215.5V316.5H1184.5V347.5ZM1216.5 347.5H1247.5V316.5H1216.5V347.5ZM1248.5 347.5H1279.5V316.5H1248.5V347.5ZM1280.5 347.5H1311.5V316.5H1280.5V347.5ZM1312.5 347.5H1343.5V316.5H1312.5V347.5ZM1344.5 347.5H1375.5V316.5H1344.5V347.5ZM1376.5 347.5H1407.5V316.5H1376.5V347.5ZM1408.5 347.5H1439.5V316.5H1408.5V347.5ZM1440.5 347.5H1471.5V316.5H1440.5V347.5ZM1472.5 347.5H1503.5V316.5H1472.5V347.5ZM1504.5 347.5H1535.5V316.5H1504.5V347.5ZM1536.5 347.5H1567.5V316.5H1536.5V347.5ZM1568.5 347.5H1599.5V316.5H1568.5V347.5ZM1600.5 347.5H1631.5V316.5H1600.5V347.5ZM1632.5 284.5V315.5H1663.5V284.5H1632.5ZM-223.5 315.5H-192.5V284.5H-223.5V315.5ZM-191.5 315.5H-160.5V284.5H-191.5V315.5ZM-159.5 315.5H-128.5V284.5H-159.5V315.5ZM-127.5 315.5H-96.5V284.5H-127.5V315.5ZM-95.5 315.5H-64.5V284.5H-95.5V315.5ZM-63.5 315.5H-32.5V284.5H-63.5V315.5ZM-31.5 315.5H-0.5V284.5H-31.5V315.5ZM0.5 315.5H31.5V284.5H0.5V315.5ZM32.5 315.5H63.5V284.5H32.5V315.5ZM64.5 315.5H95.5V284.5H64.5V315.5ZM96.5 315.5H127.5V284.5H96.5V315.5ZM128.5 315.5H159.5V284.5H128.5V315.5ZM160.5 315.5H191.5V284.5H160.5V315.5ZM192.5 315.5H223.5V284.5H192.5V315.5ZM224.5 315.5H255.5V284.5H224.5V315.5ZM256.5 315.5H287.5V284.5H256.5V315.5ZM288.5 315.5H319.5V284.5H288.5V315.5ZM320.5 315.5H351.5V284.5H320.5V315.5ZM352.5 315.5H383.5V284.5H352.5V315.5ZM384.5 315.5H415.5V284.5H384.5V315.5ZM416.5 315.5H447.5V284.5H416.5V315.5ZM448.5 315.5H479.5V284.5H448.5V315.5ZM480.5 315.5H511.5V284.5H480.5V315.5ZM512.5 315.5H543.5V284.5H512.5V315.5ZM544.5 315.5H575.5V284.5H544.5V315.5ZM576.5 315.5H607.5V284.5H576.5V315.5ZM608.5 315.5H639.5V284.5H608.5V315.5ZM640.5 315.5H671.5V284.5H640.5V315.5ZM672.5 315.5H703.5V284.5H672.5V315.5ZM704.5 315.5H735.5V284.5H704.5V315.5ZM736.5 315.5H767.5V284.5H736.5V315.5ZM768.5 315.5H799.5V284.5H768.5V315.5ZM800.5 315.5H831.5V284.5H800.5V315.5ZM832.5 315.5H863.5V284.5H832.5V315.5ZM864.5 315.5H895.5V284.5H864.5V315.5ZM896.5 315.5H927.5V284.5H896.5V315.5ZM928.5 315.5H959.5V284.5H928.5V315.5ZM960.5 315.5H991.5V284.5H960.5V315.5ZM992.5 315.5H1023.5V284.5H992.5V315.5ZM1024.5 315.5H1055.5V284.5H1024.5V315.5ZM1056.5 315.5H1087.5V284.5H1056.5V315.5ZM1088.5 315.5H1119.5V284.5H1088.5V315.5ZM1120.5 315.5H1151.5V284.5H1120.5V315.5ZM1152.5 315.5H1183.5V284.5H1152.5V315.5ZM1184.5 315.5H1215.5V284.5H1184.5V315.5ZM1216.5 315.5H1247.5V284.5H1216.5V315.5ZM1248.5 315.5H1279.5V284.5H1248.5V315.5ZM1280.5 315.5H1311.5V284.5H1280.5V315.5ZM1312.5 315.5H1343.5V284.5H1312.5V315.5ZM1344.5 315.5H1375.5V284.5H1344.5V315.5ZM1376.5 315.5H1407.5V284.5H1376.5V315.5ZM1408.5 315.5H1439.5V284.5H1408.5V315.5ZM1440.5 315.5H1471.5V284.5H1440.5V315.5ZM1472.5 315.5H1503.5V284.5H1472.5V315.5ZM1504.5 315.5H1535.5V284.5H1504.5V315.5ZM1536.5 315.5H1567.5V284.5H1536.5V315.5ZM1568.5 315.5H1599.5V284.5H1568.5V315.5ZM1600.5 315.5H1631.5V284.5H1600.5V315.5ZM1632.5 252.5V283.5H1663.5V252.5H1632.5ZM-223.5 283.5H-192.5V252.5H-223.5V283.5ZM-191.5 283.5H-160.5V252.5H-191.5V283.5ZM-159.5 283.5H-128.5V252.5H-159.5V283.5ZM-127.5 283.5H-96.5V252.5H-127.5V283.5ZM-95.5 283.5H-64.5V252.5H-95.5V283.5ZM-63.5 283.5H-32.5V252.5H-63.5V283.5ZM-31.5 283.5H-0.5V252.5H-31.5V283.5ZM0.5 283.5H31.5V252.5H0.5V283.5ZM32.5 283.5H63.5V252.5H32.5V283.5ZM64.5 283.5H95.5V252.5H64.5V283.5ZM96.5 283.5H127.5V252.5H96.5V283.5ZM128.5 283.5H159.5V252.5H128.5V283.5ZM160.5 283.5H191.5V252.5H160.5V283.5ZM192.5 283.5H223.5V252.5H192.5V283.5ZM224.5 283.5H255.5V252.5H224.5V283.5ZM256.5 283.5H287.5V252.5H256.5V283.5ZM288.5 283.5H319.5V252.5H288.5V283.5ZM320.5 283.5H351.5V252.5H320.5V283.5ZM352.5 283.5H383.5V252.5H352.5V283.5ZM384.5 283.5H415.5V252.5H384.5V283.5ZM416.5 283.5H447.5V252.5H416.5V283.5ZM448.5 283.5H479.5V252.5H448.5V283.5ZM480.5 283.5H511.5V252.5H480.5V283.5ZM512.5 283.5H543.5V252.5H512.5V283.5ZM544.5 283.5H575.5V252.5H544.5V283.5ZM576.5 283.5H607.5V252.5H576.5V283.5ZM608.5 283.5H639.5V252.5H608.5V283.5ZM640.5 283.5H671.5V252.5H640.5V283.5ZM672.5 283.5H703.5V252.5H672.5V283.5ZM704.5 283.5H735.5V252.5H704.5V283.5ZM736.5 283.5H767.5V252.5H736.5V283.5ZM768.5 283.5H799.5V252.5H768.5V283.5ZM800.5 283.5H831.5V252.5H800.5V283.5ZM832.5 283.5H863.5V252.5H832.5V283.5ZM864.5 283.5H895.5V252.5H864.5V283.5ZM896.5 283.5H927.5V252.5H896.5V283.5ZM928.5 283.5H959.5V252.5H928.5V283.5ZM960.5 283.5H991.5V252.5H960.5V283.5ZM992.5 283.5H1023.5V252.5H992.5V283.5ZM1024.5 283.5H1055.5V252.5H1024.5V283.5ZM1056.5 283.5H1087.5V252.5H1056.5V283.5ZM1088.5 283.5H1119.5V252.5H1088.5V283.5ZM1120.5 283.5H1151.5V252.5H1120.5V283.5ZM1152.5 283.5H1183.5V252.5H1152.5V283.5ZM1184.5 283.5H1215.5V252.5H1184.5V283.5ZM1216.5 283.5H1247.5V252.5H1216.5V283.5ZM1248.5 283.5H1279.5V252.5H1248.5V283.5ZM1280.5 283.5H1311.5V252.5H1280.5V283.5ZM1312.5 283.5H1343.5V252.5H1312.5V283.5ZM1344.5 283.5H1375.5V252.5H1344.5V283.5ZM1376.5 283.5H1407.5V252.5H1376.5V283.5ZM1408.5 283.5H1439.5V252.5H1408.5V283.5ZM1440.5 283.5H1471.5V252.5H1440.5V283.5ZM1472.5 283.5H1503.5V252.5H1472.5V283.5ZM1504.5 283.5H1535.5V252.5H1504.5V283.5ZM1536.5 283.5H1567.5V252.5H1536.5V283.5ZM1568.5 283.5H1599.5V252.5H1568.5V283.5ZM1600.5 283.5H1631.5V252.5H1600.5V283.5ZM1632.5 220.5V251.5H1663.5V220.5H1632.5ZM-223.5 251.5H-192.5V220.5H-223.5V251.5ZM-191.5 251.5H-160.5V220.5H-191.5V251.5ZM-159.5 251.5H-128.5V220.5H-159.5V251.5ZM-127.5 251.5H-96.5V220.5H-127.5V251.5ZM-95.5 251.5H-64.5V220.5H-95.5V251.5ZM-63.5 251.5H-32.5V220.5H-63.5V251.5ZM-31.5 251.5H-0.5V220.5H-31.5V251.5ZM0.5 251.5H31.5V220.5H0.5V251.5ZM32.5 251.5H63.5V220.5H32.5V251.5ZM64.5 251.5H95.5V220.5H64.5V251.5ZM96.5 251.5H127.5V220.5H96.5V251.5ZM128.5 251.5H159.5V220.5H128.5V251.5ZM160.5 251.5H191.5V220.5H160.5V251.5ZM192.5 251.5H223.5V220.5H192.5V251.5ZM224.5 251.5H255.5V220.5H224.5V251.5ZM256.5 251.5H287.5V220.5H256.5V251.5ZM288.5 251.5H319.5V220.5H288.5V251.5ZM320.5 251.5H351.5V220.5H320.5V251.5ZM352.5 251.5H383.5V220.5H352.5V251.5ZM384.5 251.5H415.5V220.5H384.5V251.5ZM416.5 251.5H447.5V220.5H416.5V251.5ZM448.5 251.5H479.5V220.5H448.5V251.5ZM480.5 251.5H511.5V220.5H480.5V251.5ZM512.5 251.5H543.5V220.5H512.5V251.5ZM544.5 251.5H575.5V220.5H544.5V251.5ZM576.5 251.5H607.5V220.5H576.5V251.5ZM608.5 251.5H639.5V220.5H608.5V251.5ZM640.5 251.5H671.5V220.5H640.5V251.5ZM672.5 251.5H703.5V220.5H672.5V251.5ZM704.5 251.5H735.5V220.5H704.5V251.5ZM736.5 251.5H767.5V220.5H736.5V251.5ZM768.5 251.5H799.5V220.5H768.5V251.5ZM800.5 251.5H831.5V220.5H800.5V251.5ZM832.5 251.5H863.5V220.5H832.5V251.5ZM864.5 251.5H895.5V220.5H864.5V251.5ZM896.5 251.5H927.5V220.5H896.5V251.5ZM928.5 251.5H959.5V220.5H928.5V251.5ZM960.5 251.5H991.5V220.5H960.5V251.5ZM992.5 251.5H1023.5V220.5H992.5V251.5ZM1024.5 251.5H1055.5V220.5H1024.5V251.5ZM1056.5 251.5H1087.5V220.5H1056.5V251.5ZM1088.5 251.5H1119.5V220.5H1088.5V251.5ZM1120.5 251.5H1151.5V220.5H1120.5V251.5ZM1152.5 251.5H1183.5V220.5H1152.5V251.5ZM1184.5 251.5H1215.5V220.5H1184.5V251.5ZM1216.5 251.5H1247.5V220.5H1216.5V251.5ZM1248.5 251.5H1279.5V220.5H1248.5V251.5ZM1280.5 251.5H1311.5V220.5H1280.5V251.5ZM1312.5 251.5H1343.5V220.5H1312.5V251.5ZM1344.5 251.5H1375.5V220.5H1344.5V251.5ZM1376.5 251.5H1407.5V220.5H1376.5V251.5ZM1408.5 251.5H1439.5V220.5H1408.5V251.5ZM1440.5 251.5H1471.5V220.5H1440.5V251.5ZM1472.5 251.5H1503.5V220.5H1472.5V251.5ZM1504.5 251.5H1535.5V220.5H1504.5V251.5ZM1536.5 251.5H1567.5V220.5H1536.5V251.5ZM1568.5 251.5H1599.5V220.5H1568.5V251.5ZM1600.5 251.5H1631.5V220.5H1600.5V251.5ZM1632.5 188.5V219.5H1663.5V188.5H1632.5ZM-223.5 219.5H-192.5V188.5H-223.5V219.5ZM-191.5 219.5H-160.5V188.5H-191.5V219.5ZM-159.5 219.5H-128.5V188.5H-159.5V219.5ZM-127.5 219.5H-96.5V188.5H-127.5V219.5ZM-95.5 219.5H-64.5V188.5H-95.5V219.5ZM-63.5 219.5H-32.5V188.5H-63.5V219.5ZM-31.5 219.5H-0.5V188.5H-31.5V219.5ZM0.5 219.5H31.5V188.5H0.5V219.5ZM32.5 219.5H63.5V188.5H32.5V219.5ZM64.5 219.5H95.5V188.5H64.5V219.5ZM96.5 219.5H127.5V188.5H96.5V219.5ZM128.5 219.5H159.5V188.5H128.5V219.5ZM160.5 219.5H191.5V188.5H160.5V219.5ZM192.5 219.5H223.5V188.5H192.5V219.5ZM224.5 219.5H255.5V188.5H224.5V219.5ZM256.5 219.5H287.5V188.5H256.5V219.5ZM288.5 219.5H319.5V188.5H288.5V219.5ZM320.5 219.5H351.5V188.5H320.5V219.5ZM352.5 219.5H383.5V188.5H352.5V219.5ZM384.5 219.5H415.5V188.5H384.5V219.5ZM416.5 219.5H447.5V188.5H416.5V219.5ZM448.5 219.5H479.5V188.5H448.5V219.5ZM480.5 219.5H511.5V188.5H480.5V219.5ZM512.5 219.5H543.5V188.5H512.5V219.5ZM544.5 219.5H575.5V188.5H544.5V219.5ZM576.5 219.5H607.5V188.5H576.5V219.5ZM608.5 219.5H639.5V188.5H608.5V219.5ZM640.5 219.5H671.5V188.5H640.5V219.5ZM672.5 219.5H703.5V188.5H672.5V219.5ZM704.5 219.5H735.5V188.5H704.5V219.5ZM736.5 219.5H767.5V188.5H736.5V219.5ZM768.5 219.5H799.5V188.5H768.5V219.5ZM800.5 219.5H831.5V188.5H800.5V219.5ZM832.5 219.5H863.5V188.5H832.5V219.5ZM864.5 219.5H895.5V188.5H864.5V219.5ZM896.5 219.5H927.5V188.5H896.5V219.5ZM928.5 219.5H959.5V188.5H928.5V219.5ZM960.5 219.5H991.5V188.5H960.5V219.5ZM992.5 219.5H1023.5V188.5H992.5V219.5ZM1024.5 219.5H1055.5V188.5H1024.5V219.5ZM1056.5 219.5H1087.5V188.5H1056.5V219.5ZM1088.5 219.5H1119.5V188.5H1088.5V219.5ZM1120.5 219.5H1151.5V188.5H1120.5V219.5ZM1152.5 219.5H1183.5V188.5H1152.5V219.5ZM1184.5 219.5H1215.5V188.5H1184.5V219.5ZM1216.5 219.5H1247.5V188.5H1216.5V219.5ZM1248.5 219.5H1279.5V188.5H1248.5V219.5ZM1280.5 219.5H1311.5V188.5H1280.5V219.5ZM1312.5 219.5H1343.5V188.5H1312.5V219.5ZM1344.5 219.5H1375.5V188.5H1344.5V219.5ZM1376.5 219.5H1407.5V188.5H1376.5V219.5ZM1408.5 219.5H1439.5V188.5H1408.5V219.5ZM1440.5 219.5H1471.5V188.5H1440.5V219.5ZM1472.5 219.5H1503.5V188.5H1472.5V219.5ZM1504.5 219.5H1535.5V188.5H1504.5V219.5ZM1536.5 219.5H1567.5V188.5H1536.5V219.5ZM1568.5 219.5H1599.5V188.5H1568.5V219.5ZM1600.5 219.5H1631.5V188.5H1600.5V219.5ZM1632.5 156.5V187.5H1663.5V156.5H1632.5ZM-223.5 187.5H-192.5V156.5H-223.5V187.5ZM-191.5 187.5H-160.5V156.5H-191.5V187.5ZM-159.5 187.5H-128.5V156.5H-159.5V187.5ZM-127.5 187.5H-96.5V156.5H-127.5V187.5ZM-95.5 187.5H-64.5V156.5H-95.5V187.5ZM-63.5 187.5H-32.5V156.5H-63.5V187.5ZM-31.5 187.5H-0.5V156.5H-31.5V187.5ZM0.5 187.5H31.5V156.5H0.5V187.5ZM32.5 187.5H63.5V156.5H32.5V187.5ZM64.5 187.5H95.5V156.5H64.5V187.5ZM96.5 187.5H127.5V156.5H96.5V187.5ZM128.5 187.5H159.5V156.5H128.5V187.5ZM160.5 187.5H191.5V156.5H160.5V187.5ZM192.5 187.5H223.5V156.5H192.5V187.5ZM224.5 187.5H255.5V156.5H224.5V187.5ZM256.5 187.5H287.5V156.5H256.5V187.5ZM288.5 187.5H319.5V156.5H288.5V187.5ZM320.5 187.5H351.5V156.5H320.5V187.5ZM352.5 187.5H383.5V156.5H352.5V187.5ZM384.5 187.5H415.5V156.5H384.5V187.5ZM416.5 187.5H447.5V156.5H416.5V187.5ZM448.5 187.5H479.5V156.5H448.5V187.5ZM480.5 187.5H511.5V156.5H480.5V187.5ZM512.5 187.5H543.5V156.5H512.5V187.5ZM544.5 187.5H575.5V156.5H544.5V187.5ZM576.5 187.5H607.5V156.5H576.5V187.5ZM608.5 187.5H639.5V156.5H608.5V187.5ZM640.5 187.5H671.5V156.5H640.5V187.5ZM672.5 187.5H703.5V156.5H672.5V187.5ZM704.5 187.5H735.5V156.5H704.5V187.5ZM736.5 187.5H767.5V156.5H736.5V187.5ZM768.5 187.5H799.5V156.5H768.5V187.5ZM800.5 187.5H831.5V156.5H800.5V187.5ZM832.5 187.5H863.5V156.5H832.5V187.5ZM864.5 187.5H895.5V156.5H864.5V187.5ZM896.5 187.5H927.5V156.5H896.5V187.5ZM928.5 187.5H959.5V156.5H928.5V187.5ZM960.5 187.5H991.5V156.5H960.5V187.5ZM992.5 187.5H1023.5V156.5H992.5V187.5ZM1024.5 187.5H1055.5V156.5H1024.5V187.5ZM1056.5 187.5H1087.5V156.5H1056.5V187.5ZM1088.5 187.5H1119.5V156.5H1088.5V187.5ZM1120.5 187.5H1151.5V156.5H1120.5V187.5ZM1152.5 187.5H1183.5V156.5H1152.5V187.5ZM1184.5 187.5H1215.5V156.5H1184.5V187.5ZM1216.5 187.5H1247.5V156.5H1216.5V187.5ZM1248.5 187.5H1279.5V156.5H1248.5V187.5ZM1280.5 187.5H1311.5V156.5H1280.5V187.5ZM1312.5 187.5H1343.5V156.5H1312.5V187.5ZM1344.5 187.5H1375.5V156.5H1344.5V187.5ZM1376.5 187.5H1407.5V156.5H1376.5V187.5ZM1408.5 187.5H1439.5V156.5H1408.5V187.5ZM1440.5 187.5H1471.5V156.5H1440.5V187.5ZM1472.5 187.5H1503.5V156.5H1472.5V187.5ZM1504.5 187.5H1535.5V156.5H1504.5V187.5ZM1536.5 187.5H1567.5V156.5H1536.5V187.5ZM1568.5 187.5H1599.5V156.5H1568.5V187.5ZM1600.5 187.5H1631.5V156.5H1600.5V187.5ZM1632.5 124.5V155.5H1663.5V124.5H1632.5ZM-223.5 155.5H-192.5V124.5H-223.5V155.5ZM-191.5 155.5H-160.5V124.5H-191.5V155.5ZM-159.5 155.5H-128.5V124.5H-159.5V155.5ZM-127.5 155.5H-96.5V124.5H-127.5V155.5ZM-95.5 155.5H-64.5V124.5H-95.5V155.5ZM-63.5 155.5H-32.5V124.5H-63.5V155.5ZM-31.5 155.5H-0.5V124.5H-31.5V155.5ZM0.5 155.5H31.5V124.5H0.5V155.5ZM32.5 155.5H63.5V124.5H32.5V155.5ZM64.5 155.5H95.5V124.5H64.5V155.5ZM96.5 155.5H127.5V124.5H96.5V155.5ZM128.5 155.5H159.5V124.5H128.5V155.5ZM160.5 155.5H191.5V124.5H160.5V155.5ZM192.5 155.5H223.5V124.5H192.5V155.5ZM224.5 155.5H255.5V124.5H224.5V155.5ZM256.5 155.5H287.5V124.5H256.5V155.5ZM288.5 155.5H319.5V124.5H288.5V155.5ZM320.5 155.5H351.5V124.5H320.5V155.5ZM352.5 155.5H383.5V124.5H352.5V155.5ZM384.5 155.5H415.5V124.5H384.5V155.5ZM416.5 155.5H447.5V124.5H416.5V155.5ZM448.5 155.5H479.5V124.5H448.5V155.5ZM480.5 155.5H511.5V124.5H480.5V155.5ZM512.5 155.5H543.5V124.5H512.5V155.5ZM544.5 155.5H575.5V124.5H544.5V155.5ZM576.5 155.5H607.5V124.5H576.5V155.5ZM608.5 155.5H639.5V124.5H608.5V155.5ZM640.5 155.5H671.5V124.5H640.5V155.5ZM672.5 155.5H703.5V124.5H672.5V155.5ZM704.5 155.5H735.5V124.5H704.5V155.5ZM736.5 155.5H767.5V124.5H736.5V155.5ZM768.5 155.5H799.5V124.5H768.5V155.5ZM800.5 155.5H831.5V124.5H800.5V155.5ZM832.5 155.5H863.5V124.5H832.5V155.5ZM864.5 155.5H895.5V124.5H864.5V155.5ZM896.5 155.5H927.5V124.5H896.5V155.5ZM928.5 155.5H959.5V124.5H928.5V155.5ZM960.5 155.5H991.5V124.5H960.5V155.5ZM992.5 155.5H1023.5V124.5H992.5V155.5ZM1024.5 155.5H1055.5V124.5H1024.5V155.5ZM1056.5 155.5H1087.5V124.5H1056.5V155.5ZM1088.5 155.5H1119.5V124.5H1088.5V155.5ZM1120.5 155.5H1151.5V124.5H1120.5V155.5ZM1152.5 155.5H1183.5V124.5H1152.5V155.5ZM1184.5 155.5H1215.5V124.5H1184.5V155.5ZM1216.5 155.5H1247.5V124.5H1216.5V155.5ZM1248.5 155.5H1279.5V124.5H1248.5V155.5ZM1280.5 155.5H1311.5V124.5H1280.5V155.5ZM1312.5 155.5H1343.5V124.5H1312.5V155.5ZM1344.5 155.5H1375.5V124.5H1344.5V155.5ZM1376.5 155.5H1407.5V124.5H1376.5V155.5ZM1408.5 155.5H1439.5V124.5H1408.5V155.5ZM1440.5 155.5H1471.5V124.5H1440.5V155.5ZM1472.5 155.5H1503.5V124.5H1472.5V155.5ZM1504.5 155.5H1535.5V124.5H1504.5V155.5ZM1536.5 155.5H1567.5V124.5H1536.5V155.5ZM1568.5 155.5H1599.5V124.5H1568.5V155.5ZM1600.5 155.5H1631.5V124.5H1600.5V155.5ZM1632.5 92.5V123.5H1663.5V92.5H1632.5ZM-223.5 123.5H-192.5V92.5H-223.5V123.5ZM-191.5 123.5H-160.5V92.5H-191.5V123.5ZM-159.5 123.5H-128.5V92.5H-159.5V123.5ZM-127.5 123.5H-96.5V92.5H-127.5V123.5ZM-95.5 123.5H-64.5V92.5H-95.5V123.5ZM-63.5 123.5H-32.5V92.5H-63.5V123.5ZM-31.5 123.5H-0.5V92.5H-31.5V123.5ZM0.5 123.5H31.5V92.5H0.5V123.5ZM32.5 123.5H63.5V92.5H32.5V123.5ZM64.5 123.5H95.5V92.5H64.5V123.5ZM96.5 123.5H127.5V92.5H96.5V123.5ZM128.5 123.5H159.5V92.5H128.5V123.5ZM160.5 123.5H191.5V92.5H160.5V123.5ZM192.5 123.5H223.5V92.5H192.5V123.5ZM224.5 123.5H255.5V92.5H224.5V123.5ZM256.5 123.5H287.5V92.5H256.5V123.5ZM288.5 123.5H319.5V92.5H288.5V123.5ZM320.5 123.5H351.5V92.5H320.5V123.5ZM352.5 123.5H383.5V92.5H352.5V123.5ZM384.5 123.5H415.5V92.5H384.5V123.5ZM416.5 123.5H447.5V92.5H416.5V123.5ZM448.5 123.5H479.5V92.5H448.5V123.5ZM480.5 123.5H511.5V92.5H480.5V123.5ZM512.5 123.5H543.5V92.5H512.5V123.5ZM544.5 123.5H575.5V92.5H544.5V123.5ZM576.5 123.5H607.5V92.5H576.5V123.5ZM608.5 123.5H639.5V92.5H608.5V123.5ZM640.5 123.5H671.5V92.5H640.5V123.5ZM672.5 123.5H703.5V92.5H672.5V123.5ZM704.5 123.5H735.5V92.5H704.5V123.5ZM736.5 123.5H767.5V92.5H736.5V123.5ZM768.5 123.5H799.5V92.5H768.5V123.5ZM800.5 123.5H831.5V92.5H800.5V123.5ZM832.5 123.5H863.5V92.5H832.5V123.5ZM864.5 123.5H895.5V92.5H864.5V123.5ZM896.5 123.5H927.5V92.5H896.5V123.5ZM928.5 123.5H959.5V92.5H928.5V123.5ZM960.5 123.5H991.5V92.5H960.5V123.5ZM992.5 123.5H1023.5V92.5H992.5V123.5ZM1024.5 123.5H1055.5V92.5H1024.5V123.5ZM1056.5 123.5H1087.5V92.5H1056.5V123.5ZM1088.5 123.5H1119.5V92.5H1088.5V123.5ZM1120.5 123.5H1151.5V92.5H1120.5V123.5ZM1152.5 123.5H1183.5V92.5H1152.5V123.5ZM1184.5 123.5H1215.5V92.5H1184.5V123.5ZM1216.5 123.5H1247.5V92.5H1216.5V123.5ZM1248.5 123.5H1279.5V92.5H1248.5V123.5ZM1280.5 123.5H1311.5V92.5H1280.5V123.5ZM1312.5 123.5H1343.5V92.5H1312.5V123.5ZM1344.5 123.5H1375.5V92.5H1344.5V123.5ZM1376.5 123.5H1407.5V92.5H1376.5V123.5ZM1408.5 123.5H1439.5V92.5H1408.5V123.5ZM1440.5 123.5H1471.5V92.5H1440.5V123.5ZM1472.5 123.5H1503.5V92.5H1472.5V123.5ZM1504.5 123.5H1535.5V92.5H1504.5V123.5ZM1536.5 123.5H1567.5V92.5H1536.5V123.5ZM1568.5 123.5H1599.5V92.5H1568.5V123.5ZM1600.5 123.5H1631.5V92.5H1600.5V123.5ZM1632.5 60.5V91.5H1663.5V60.5H1632.5ZM-223.5 91.5H-192.5V60.5H-223.5V91.5ZM-191.5 91.5H-160.5V60.5H-191.5V91.5ZM-159.5 91.5H-128.5V60.5H-159.5V91.5ZM-127.5 91.5H-96.5V60.5H-127.5V91.5ZM-95.5 91.5H-64.5V60.5H-95.5V91.5ZM-63.5 91.5H-32.5V60.5H-63.5V91.5ZM-31.5 91.5H-0.5V60.5H-31.5V91.5ZM0.5 91.5H31.5V60.5H0.5V91.5ZM32.5 91.5H63.5V60.5H32.5V91.5ZM64.5 91.5H95.5V60.5H64.5V91.5ZM96.5 91.5H127.5V60.5H96.5V91.5ZM128.5 91.5H159.5V60.5H128.5V91.5ZM160.5 91.5H191.5V60.5H160.5V91.5ZM192.5 91.5H223.5V60.5H192.5V91.5ZM224.5 91.5H255.5V60.5H224.5V91.5ZM256.5 91.5H287.5V60.5H256.5V91.5ZM288.5 91.5H319.5V60.5H288.5V91.5ZM320.5 91.5H351.5V60.5H320.5V91.5ZM352.5 91.5H383.5V60.5H352.5V91.5ZM384.5 91.5H415.5V60.5H384.5V91.5ZM416.5 91.5H447.5V60.5H416.5V91.5ZM448.5 91.5H479.5V60.5H448.5V91.5ZM480.5 91.5H511.5V60.5H480.5V91.5ZM512.5 91.5H543.5V60.5H512.5V91.5ZM544.5 91.5H575.5V60.5H544.5V91.5ZM576.5 91.5H607.5V60.5H576.5V91.5ZM608.5 91.5H639.5V60.5H608.5V91.5ZM640.5 91.5H671.5V60.5H640.5V91.5ZM672.5 91.5H703.5V60.5H672.5V91.5ZM704.5 91.5H735.5V60.5H704.5V91.5ZM736.5 91.5H767.5V60.5H736.5V91.5ZM768.5 91.5H799.5V60.5H768.5V91.5ZM800.5 91.5H831.5V60.5H800.5V91.5ZM832.5 91.5H863.5V60.5H832.5V91.5ZM864.5 91.5H895.5V60.5H864.5V91.5ZM896.5 91.5H927.5V60.5H896.5V91.5ZM928.5 91.5H959.5V60.5H928.5V91.5ZM960.5 91.5H991.5V60.5H960.5V91.5ZM992.5 91.5H1023.5V60.5H992.5V91.5ZM1024.5 91.5H1055.5V60.5H1024.5V91.5ZM1056.5 91.5H1087.5V60.5H1056.5V91.5ZM1088.5 91.5H1119.5V60.5H1088.5V91.5ZM1120.5 91.5H1151.5V60.5H1120.5V91.5ZM1152.5 91.5H1183.5V60.5H1152.5V91.5ZM1184.5 91.5H1215.5V60.5H1184.5V91.5ZM1216.5 91.5H1247.5V60.5H1216.5V91.5ZM1248.5 91.5H1279.5V60.5H1248.5V91.5ZM1280.5 91.5H1311.5V60.5H1280.5V91.5ZM1312.5 91.5H1343.5V60.5H1312.5V91.5ZM1344.5 91.5H1375.5V60.5H1344.5V91.5ZM1376.5 91.5H1407.5V60.5H1376.5V91.5ZM1408.5 91.5H1439.5V60.5H1408.5V91.5ZM1440.5 91.5H1471.5V60.5H1440.5V91.5ZM1472.5 91.5H1503.5V60.5H1472.5V91.5ZM1504.5 91.5H1535.5V60.5H1504.5V91.5ZM1536.5 91.5H1567.5V60.5H1536.5V91.5ZM1568.5 91.5H1599.5V60.5H1568.5V91.5ZM1600.5 91.5H1631.5V60.5H1600.5V91.5ZM1632.5 28.5V59.5H1663.5V28.5H1632.5ZM-223.5 59.5H-192.5V28.5H-223.5V59.5ZM-191.5 59.5H-160.5V28.5H-191.5V59.5ZM-159.5 59.5H-128.5V28.5H-159.5V59.5ZM-127.5 59.5H-96.5V28.5H-127.5V59.5ZM-95.5 59.5H-64.5V28.5H-95.5V59.5ZM-63.5 59.5H-32.5V28.5H-63.5V59.5ZM-31.5 59.5H-0.5V28.5H-31.5V59.5ZM0.5 59.5H31.5V28.5H0.5V59.5ZM32.5 59.5H63.5V28.5H32.5V59.5ZM64.5 59.5H95.5V28.5H64.5V59.5ZM96.5 59.5H127.5V28.5H96.5V59.5ZM128.5 59.5H159.5V28.5H128.5V59.5ZM160.5 59.5H191.5V28.5H160.5V59.5ZM192.5 59.5H223.5V28.5H192.5V59.5ZM224.5 59.5H255.5V28.5H224.5V59.5ZM256.5 59.5H287.5V28.5H256.5V59.5ZM288.5 59.5H319.5V28.5H288.5V59.5ZM320.5 59.5H351.5V28.5H320.5V59.5ZM352.5 59.5H383.5V28.5H352.5V59.5ZM384.5 59.5H415.5V28.5H384.5V59.5ZM416.5 59.5H447.5V28.5H416.5V59.5ZM448.5 59.5H479.5V28.5H448.5V59.5ZM480.5 59.5H511.5V28.5H480.5V59.5ZM512.5 59.5H543.5V28.5H512.5V59.5ZM544.5 59.5H575.5V28.5H544.5V59.5ZM576.5 59.5H607.5V28.5H576.5V59.5ZM608.5 59.5H639.5V28.5H608.5V59.5ZM640.5 59.5H671.5V28.5H640.5V59.5ZM672.5 59.5H703.5V28.5H672.5V59.5ZM704.5 59.5H735.5V28.5H704.5V59.5ZM736.5 59.5H767.5V28.5H736.5V59.5ZM768.5 59.5H799.5V28.5H768.5V59.5ZM800.5 59.5H831.5V28.5H800.5V59.5ZM832.5 59.5H863.5V28.5H832.5V59.5ZM864.5 59.5H895.5V28.5H864.5V59.5ZM896.5 59.5H927.5V28.5H896.5V59.5ZM928.5 59.5H959.5V28.5H928.5V59.5ZM960.5 59.5H991.5V28.5H960.5V59.5ZM992.5 59.5H1023.5V28.5H992.5V59.5ZM1024.5 59.5H1055.5V28.5H1024.5V59.5ZM1056.5 59.5H1087.5V28.5H1056.5V59.5ZM1088.5 59.5H1119.5V28.5H1088.5V59.5ZM1120.5 59.5H1151.5V28.5H1120.5V59.5ZM1152.5 59.5H1183.5V28.5H1152.5V59.5ZM1184.5 59.5H1215.5V28.5H1184.5V59.5ZM1216.5 59.5H1247.5V28.5H1216.5V59.5ZM1248.5 59.5H1279.5V28.5H1248.5V59.5ZM1280.5 59.5H1311.5V28.5H1280.5V59.5ZM1312.5 59.5H1343.5V28.5H1312.5V59.5ZM1344.5 59.5H1375.5V28.5H1344.5V59.5ZM1376.5 59.5H1407.5V28.5H1376.5V59.5ZM1408.5 59.5H1439.5V28.5H1408.5V59.5ZM1440.5 59.5H1471.5V28.5H1440.5V59.5ZM1472.5 59.5H1503.5V28.5H1472.5V59.5ZM1504.5 59.5H1535.5V28.5H1504.5V59.5ZM1536.5 59.5H1567.5V28.5H1536.5V59.5ZM1568.5 59.5H1599.5V28.5H1568.5V59.5ZM1600.5 59.5H1631.5V28.5H1600.5V59.5Z" fill="url(#paint0_radial_12231_3185)" fill-opacity="0.15"/>
</g>
<defs>
<radialGradient id="paint0_radial_12231_3185" cx="0" cy="0" r="1" gradientUnits="userSpaceOnUse" gradientTransform="translate(720 348) rotate(-180) scale(1000 316.062)">
<stop stop-color="white"/>
<stop offset="1" stop-color="white" stop-opacity="0"/>
</radialGradient>
</defs>
</svg>
