<svg width="584" height="364" viewBox="0 0 584 364" fill="none" xmlns="http://www.w3.org/2000/svg">
<path d="M402.354 182.354C402.158 182.549 401.842 182.549 401.646 182.354L398.464 179.172C398.269 178.976 398.269 178.66 398.464 178.464C398.66 178.269 398.976 178.269 399.172 178.464L402 181.293L404.828 178.464C405.024 178.269 405.34 178.269 405.536 178.464C405.731 178.66 405.731 178.976 405.536 179.172L402.354 182.354ZM18.5 182C18.5 182.276 18.2761 182.5 18 182.5C17.7239 182.5 17.5 182.276 17.5 182H18H18.5ZM402 182H401.5C401.5 155.782 380.233 131.911 345.541 114.565C310.879 97.2339 262.959 86.5 210 86.5V86V85.5C263.08 85.5 311.16 96.2564 345.988 113.671C380.786 131.07 402.5 155.199 402.5 182H402ZM210 86V86.5C157.041 86.5 109.121 97.2339 74.4591 114.565C39.7671 131.911 18.5 155.782 18.5 182H18H17.5C17.5 155.199 39.2136 131.07 74.0119 113.671C108.84 96.2564 156.92 85.5 210 85.5V86Z" fill="url(#paint0_linear_12231_4274)"/>
<g style="mix-blend-mode:plus-lighter" filter="url(#filter0_f_12231_4274)">
<path d="M402.354 182.354C402.158 182.549 401.842 182.549 401.646 182.354L398.464 179.172C398.269 178.976 398.269 178.66 398.464 178.464C398.66 178.269 398.976 178.269 399.172 178.464L402 181.293L404.828 178.464C405.024 178.269 405.34 178.269 405.536 178.464C405.731 178.66 405.731 178.976 405.536 179.172L402.354 182.354ZM18.5 182C18.5 182.276 18.2761 182.5 18 182.5C17.7239 182.5 17.5 182.276 17.5 182H18H18.5ZM402 182H401.5C401.5 155.782 380.233 131.911 345.541 114.565C310.879 97.2339 262.959 86.5 210 86.5V86V85.5C263.08 85.5 311.16 96.2564 345.988 113.671C380.786 131.07 402.5 155.199 402.5 182H402ZM210 86V86.5C157.041 86.5 109.121 97.2339 74.4591 114.565C39.7671 131.911 18.5 155.782 18.5 182H18H17.5C17.5 155.199 39.2136 131.07 74.0119 113.671C108.84 96.2564 156.92 85.5 210 85.5V86Z" fill="url(#paint1_linear_12231_4274)"/>
</g>
<g style="mix-blend-mode:plus-lighter" filter="url(#filter1_f_12231_4274)">
<path d="M402.354 182.354C402.158 182.549 401.842 182.549 401.646 182.354L398.464 179.172C398.269 178.976 398.269 178.66 398.464 178.464C398.66 178.269 398.976 178.269 399.172 178.464L402 181.293L404.828 178.464C405.024 178.269 405.34 178.269 405.536 178.464C405.731 178.66 405.731 178.976 405.536 179.172L402.354 182.354ZM18.5 182C18.5 182.276 18.2761 182.5 18 182.5C17.7239 182.5 17.5 182.276 17.5 182H18H18.5ZM402 182H401.5C401.5 155.782 380.233 131.911 345.541 114.565C310.879 97.2339 262.959 86.5 210 86.5V86V85.5C263.08 85.5 311.16 96.2564 345.988 113.671C380.786 131.07 402.5 155.199 402.5 182H402ZM210 86V86.5C157.041 86.5 109.121 97.2339 74.4591 114.565C39.7671 131.911 18.5 155.782 18.5 182H18H17.5C17.5 155.199 39.2136 131.07 74.0119 113.671C108.84 96.2564 156.92 85.5 210 85.5V86Z" fill="url(#paint2_linear_12231_4274)"/>
</g>
<g style="mix-blend-mode:plus-lighter" filter="url(#filter2_f_12231_4274)">
<path d="M402.354 182.354C402.158 182.549 401.842 182.549 401.646 182.354L398.464 179.172C398.269 178.976 398.269 178.66 398.464 178.464C398.66 178.269 398.976 178.269 399.172 178.464L402 181.293L404.828 178.464C405.024 178.269 405.34 178.269 405.536 178.464C405.731 178.66 405.731 178.976 405.536 179.172L402.354 182.354ZM18.5 182C18.5 182.276 18.2761 182.5 18 182.5C17.7239 182.5 17.5 182.276 17.5 182H18H18.5ZM402 182H401.5C401.5 155.782 380.233 131.911 345.541 114.565C310.879 97.2339 262.959 86.5 210 86.5V86V85.5C263.08 85.5 311.16 96.2564 345.988 113.671C380.786 131.07 402.5 155.199 402.5 182H402ZM210 86V86.5C157.041 86.5 109.121 97.2339 74.4591 114.565C39.7671 131.911 18.5 155.782 18.5 182H18H17.5C17.5 155.199 39.2136 131.07 74.0119 113.671C108.84 96.2564 156.92 85.5 210 85.5V86Z" fill="url(#paint3_linear_12231_4274)"/>
</g>
<g style="mix-blend-mode:plus-lighter" filter="url(#filter3_f_12231_4274)">
<path d="M403.061 183.061C402.475 183.646 401.525 183.646 400.939 183.061L391.393 173.515C390.808 172.929 390.808 171.979 391.393 171.393C391.979 170.808 392.929 170.808 393.515 171.393L402 179.879L410.485 171.393C411.071 170.808 412.021 170.808 412.607 171.393C413.192 171.979 413.192 172.929 412.607 173.515L403.061 183.061ZM19.5 182C19.5 182.828 18.8284 183.5 18 183.5C17.1716 183.5 16.5 182.828 16.5 182H18H19.5ZM402 182H400.5C400.5 156.365 379.679 132.752 345.094 115.459C310.598 98.2114 262.837 87.5 210 87.5V86V84.5C263.202 84.5 311.441 95.2789 346.435 112.776C381.34 130.228 403.5 154.616 403.5 182H402ZM210 86V87.5C157.163 87.5 109.402 98.2114 74.9063 115.459C40.3206 132.752 19.5 156.365 19.5 182H18H16.5C16.5 154.616 38.6601 130.228 73.5647 112.776C108.559 95.2789 156.798 84.5 210 84.5V86Z" fill="url(#paint4_linear_12231_4274)"/>
</g>
<g style="mix-blend-mode:plus-lighter" filter="url(#filter4_f_12231_4274)">
<path d="M403.061 183.061C402.475 183.646 401.525 183.646 400.939 183.061L391.393 173.515C390.808 172.929 390.808 171.979 391.393 171.393C391.979 170.808 392.929 170.808 393.515 171.393L402 179.879L410.485 171.393C411.071 170.808 412.021 170.808 412.607 171.393C413.192 171.979 413.192 172.929 412.607 173.515L403.061 183.061ZM19.5 182C19.5 182.828 18.8284 183.5 18 183.5C17.1716 183.5 16.5 182.828 16.5 182H18H19.5ZM402 182H400.5C400.5 156.365 379.679 132.752 345.094 115.459C310.598 98.2114 262.837 87.5 210 87.5V86V84.5C263.202 84.5 311.441 95.2789 346.435 112.776C381.34 130.228 403.5 154.616 403.5 182H402ZM210 86V87.5C157.163 87.5 109.402 98.2114 74.9063 115.459C40.3206 132.752 19.5 156.365 19.5 182H18H16.5C16.5 154.616 38.6601 130.228 73.5647 112.776C108.559 95.2789 156.798 84.5 210 84.5V86Z" fill="url(#paint5_linear_12231_4274)"/>
</g>
<g filter="url(#filter5_f_12231_4274)">
<circle cx="32" cy="32" r="32" transform="matrix(1 0 0 -1 370 214)" fill="#36F8E2"/>
</g>
<g style="mix-blend-mode:plus-lighter" filter="url(#filter6_f_12231_4274)">
<circle cx="419.417" cy="146.561" r="0.850623" transform="rotate(78.2063 419.417 146.561)" fill="#36F8E2"/>
</g>
<g style="mix-blend-mode:plus-lighter" filter="url(#filter7_f_12231_4274)">
<circle cx="400.329" cy="164.74" r="0.567082" transform="rotate(78.2063 400.329 164.74)" fill="#36F8E2"/>
</g>
<g style="mix-blend-mode:plus-lighter" filter="url(#filter8_f_12231_4274)">
<circle cx="399.756" cy="149.508" r="0.283541" transform="rotate(78.2063 399.756 149.508)" fill="#36F8E2"/>
</g>
<g style="mix-blend-mode:plus-lighter" filter="url(#filter9_f_12231_4274)">
<circle cx="418.362" cy="192.837" r="0.567082" transform="rotate(78.2063 418.362 192.837)" fill="#36F8E2"/>
</g>
<g style="mix-blend-mode:plus-lighter" filter="url(#filter10_f_12231_4274)">
<circle cx="418.026" cy="192.617" r="0.283541" transform="rotate(78.2063 418.026 192.617)" fill="#36F8E2"/>
</g>
<g style="mix-blend-mode:plus-lighter" filter="url(#filter11_f_12231_4274)">
<circle cx="406.82" cy="169.467" r="0.283541" transform="rotate(78.2063 406.82 169.467)" fill="#36F8E2"/>
</g>
<g style="mix-blend-mode:plus-lighter" filter="url(#filter12_f_12231_4274)">
<circle cx="400.079" cy="174.64" r="0.567082" transform="rotate(78.2063 400.079 174.64)" fill="#36F8E2"/>
</g>
<g style="mix-blend-mode:plus-lighter" filter="url(#filter13_f_12231_4274)">
<circle cx="401.355" cy="180.746" r="0.567082" transform="rotate(78.2063 401.355 180.746)" fill="#36F8E2"/>
</g>
<g style="mix-blend-mode:plus-lighter" filter="url(#filter14_f_12231_4274)">
<circle cx="415.03" cy="167.173" r="0.283541" transform="rotate(78.2063 415.03 167.173)" fill="#36F8E2"/>
</g>
<g style="mix-blend-mode:plus-lighter" filter="url(#filter15_f_12231_4274)">
<circle cx="399.756" cy="149.508" r="0.283541" transform="rotate(78.2063 399.756 149.508)" fill="#36F8E2"/>
</g>
<g style="mix-blend-mode:plus-lighter" filter="url(#filter16_f_12231_4274)">
<circle cx="387.665" cy="166.515" r="0.850623" transform="rotate(78.2063 387.665 166.515)" fill="#36F8E2"/>
</g>
<g style="mix-blend-mode:plus-lighter" filter="url(#filter17_f_12231_4274)">
<circle cx="400.329" cy="164.74" r="0.567082" transform="rotate(78.2063 400.329 164.74)" fill="#36F8E2"/>
</g>
<g style="mix-blend-mode:plus-lighter" filter="url(#filter18_f_12231_4274)">
<circle cx="388.484" cy="184.303" r="0.283541" transform="rotate(78.2063 388.484 184.303)" fill="#36F8E2"/>
</g>
<g style="mix-blend-mode:plus-lighter" filter="url(#filter19_f_12231_4274)">
<circle cx="381.992" cy="179.575" r="0.567082" transform="rotate(78.2063 381.992 179.575)" fill="#36F8E2"/>
</g>
<g style="mix-blend-mode:plus-lighter" filter="url(#filter20_f_12231_4274)">
<circle cx="388.484" cy="184.303" r="0.283541" transform="rotate(78.2063 388.484 184.303)" fill="#36F8E2"/>
</g>
<g style="mix-blend-mode:plus-lighter" filter="url(#filter21_f_12231_4274)">
<circle cx="376.71" cy="186.182" r="0.283541" transform="rotate(78.2063 376.71 186.182)" fill="#36F8E2"/>
</g>
<defs>
<filter id="filter0_f_12231_4274" x="15.5" y="83.5" width="392.182" height="101" filterUnits="userSpaceOnUse" color-interpolation-filters="sRGB">
<feFlood flood-opacity="0" result="BackgroundImageFix"/>
<feBlend mode="normal" in="SourceGraphic" in2="BackgroundImageFix" result="shape"/>
<feGaussianBlur stdDeviation="1" result="effect1_foregroundBlur_12231_4274"/>
</filter>
<filter id="filter1_f_12231_4274" x="13.5" y="81.5" width="396.182" height="105" filterUnits="userSpaceOnUse" color-interpolation-filters="sRGB">
<feFlood flood-opacity="0" result="BackgroundImageFix"/>
<feBlend mode="normal" in="SourceGraphic" in2="BackgroundImageFix" result="shape"/>
<feGaussianBlur stdDeviation="2" result="effect1_foregroundBlur_12231_4274"/>
</filter>
<filter id="filter2_f_12231_4274" x="9.5" y="77.5" width="404.182" height="113" filterUnits="userSpaceOnUse" color-interpolation-filters="sRGB">
<feFlood flood-opacity="0" result="BackgroundImageFix"/>
<feBlend mode="normal" in="SourceGraphic" in2="BackgroundImageFix" result="shape"/>
<feGaussianBlur stdDeviation="4" result="effect1_foregroundBlur_12231_4274"/>
</filter>
<filter id="filter3_f_12231_4274" x="8.5" y="76.5" width="412.546" height="115" filterUnits="userSpaceOnUse" color-interpolation-filters="sRGB">
<feFlood flood-opacity="0" result="BackgroundImageFix"/>
<feBlend mode="normal" in="SourceGraphic" in2="BackgroundImageFix" result="shape"/>
<feGaussianBlur stdDeviation="4" result="effect1_foregroundBlur_12231_4274"/>
</filter>
<filter id="filter4_f_12231_4274" x="0.5" y="68.5" width="428.546" height="131" filterUnits="userSpaceOnUse" color-interpolation-filters="sRGB">
<feFlood flood-opacity="0" result="BackgroundImageFix"/>
<feBlend mode="normal" in="SourceGraphic" in2="BackgroundImageFix" result="shape"/>
<feGaussianBlur stdDeviation="8" result="effect1_foregroundBlur_12231_4274"/>
</filter>
<filter id="filter5_f_12231_4274" x="220" y="0" width="364" height="364" filterUnits="userSpaceOnUse" color-interpolation-filters="sRGB">
<feFlood flood-opacity="0" result="BackgroundImageFix"/>
<feBlend mode="normal" in="SourceGraphic" in2="BackgroundImageFix" result="shape"/>
<feGaussianBlur stdDeviation="75" result="effect1_foregroundBlur_12231_4274"/>
</filter>
<filter id="filter6_f_12231_4274" x="417.566" y="144.71" width="3.70166" height="3.70166" filterUnits="userSpaceOnUse" color-interpolation-filters="sRGB">
<feFlood flood-opacity="0" result="BackgroundImageFix"/>
<feBlend mode="normal" in="SourceGraphic" in2="BackgroundImageFix" result="shape"/>
<feGaussianBlur stdDeviation="0.5" result="effect1_foregroundBlur_12231_4274"/>
</filter>
<filter id="filter7_f_12231_4274" x="396.762" y="161.173" width="7.13428" height="7.13428" filterUnits="userSpaceOnUse" color-interpolation-filters="sRGB">
<feFlood flood-opacity="0" result="BackgroundImageFix"/>
<feBlend mode="normal" in="SourceGraphic" in2="BackgroundImageFix" result="shape"/>
<feGaussianBlur stdDeviation="1.5" result="effect1_foregroundBlur_12231_4274"/>
</filter>
<filter id="filter8_f_12231_4274" x="398.472" y="148.224" width="2.56738" height="2.56738" filterUnits="userSpaceOnUse" color-interpolation-filters="sRGB">
<feFlood flood-opacity="0" result="BackgroundImageFix"/>
<feBlend mode="normal" in="SourceGraphic" in2="BackgroundImageFix" result="shape"/>
<feGaussianBlur stdDeviation="0.5" result="effect1_foregroundBlur_12231_4274"/>
</filter>
<filter id="filter9_f_12231_4274" x="414.794" y="189.27" width="7.13428" height="7.13428" filterUnits="userSpaceOnUse" color-interpolation-filters="sRGB">
<feFlood flood-opacity="0" result="BackgroundImageFix"/>
<feBlend mode="normal" in="SourceGraphic" in2="BackgroundImageFix" result="shape"/>
<feGaussianBlur stdDeviation="1.5" result="effect1_foregroundBlur_12231_4274"/>
</filter>
<filter id="filter10_f_12231_4274" x="416.743" y="191.333" width="2.56738" height="2.56738" filterUnits="userSpaceOnUse" color-interpolation-filters="sRGB">
<feFlood flood-opacity="0" result="BackgroundImageFix"/>
<feBlend mode="normal" in="SourceGraphic" in2="BackgroundImageFix" result="shape"/>
<feGaussianBlur stdDeviation="0.5" result="effect1_foregroundBlur_12231_4274"/>
</filter>
<filter id="filter11_f_12231_4274" x="405.537" y="168.184" width="2.56738" height="2.56738" filterUnits="userSpaceOnUse" color-interpolation-filters="sRGB">
<feFlood flood-opacity="0" result="BackgroundImageFix"/>
<feBlend mode="normal" in="SourceGraphic" in2="BackgroundImageFix" result="shape"/>
<feGaussianBlur stdDeviation="0.5" result="effect1_foregroundBlur_12231_4274"/>
</filter>
<filter id="filter12_f_12231_4274" x="398.512" y="173.073" width="3.13428" height="3.13428" filterUnits="userSpaceOnUse" color-interpolation-filters="sRGB">
<feFlood flood-opacity="0" result="BackgroundImageFix"/>
<feBlend mode="normal" in="SourceGraphic" in2="BackgroundImageFix" result="shape"/>
<feGaussianBlur stdDeviation="0.5" result="effect1_foregroundBlur_12231_4274"/>
</filter>
<filter id="filter13_f_12231_4274" x="399.788" y="179.179" width="3.13428" height="3.13428" filterUnits="userSpaceOnUse" color-interpolation-filters="sRGB">
<feFlood flood-opacity="0" result="BackgroundImageFix"/>
<feBlend mode="normal" in="SourceGraphic" in2="BackgroundImageFix" result="shape"/>
<feGaussianBlur stdDeviation="0.5" result="effect1_foregroundBlur_12231_4274"/>
</filter>
<filter id="filter14_f_12231_4274" x="413.747" y="165.89" width="2.56738" height="2.56738" filterUnits="userSpaceOnUse" color-interpolation-filters="sRGB">
<feFlood flood-opacity="0" result="BackgroundImageFix"/>
<feBlend mode="normal" in="SourceGraphic" in2="BackgroundImageFix" result="shape"/>
<feGaussianBlur stdDeviation="0.5" result="effect1_foregroundBlur_12231_4274"/>
</filter>
<filter id="filter15_f_12231_4274" x="396.472" y="146.224" width="6.56738" height="6.56738" filterUnits="userSpaceOnUse" color-interpolation-filters="sRGB">
<feFlood flood-opacity="0" result="BackgroundImageFix"/>
<feBlend mode="normal" in="SourceGraphic" in2="BackgroundImageFix" result="shape"/>
<feGaussianBlur stdDeviation="1.5" result="effect1_foregroundBlur_12231_4274"/>
</filter>
<filter id="filter16_f_12231_4274" x="385.814" y="164.665" width="3.70166" height="3.70166" filterUnits="userSpaceOnUse" color-interpolation-filters="sRGB">
<feFlood flood-opacity="0" result="BackgroundImageFix"/>
<feBlend mode="normal" in="SourceGraphic" in2="BackgroundImageFix" result="shape"/>
<feGaussianBlur stdDeviation="0.5" result="effect1_foregroundBlur_12231_4274"/>
</filter>
<filter id="filter17_f_12231_4274" x="398.762" y="163.173" width="3.13428" height="3.13428" filterUnits="userSpaceOnUse" color-interpolation-filters="sRGB">
<feFlood flood-opacity="0" result="BackgroundImageFix"/>
<feBlend mode="normal" in="SourceGraphic" in2="BackgroundImageFix" result="shape"/>
<feGaussianBlur stdDeviation="0.5" result="effect1_foregroundBlur_12231_4274"/>
</filter>
<filter id="filter18_f_12231_4274" x="385.2" y="181.019" width="6.56738" height="6.56738" filterUnits="userSpaceOnUse" color-interpolation-filters="sRGB">
<feFlood flood-opacity="0" result="BackgroundImageFix"/>
<feBlend mode="normal" in="SourceGraphic" in2="BackgroundImageFix" result="shape"/>
<feGaussianBlur stdDeviation="1.5" result="effect1_foregroundBlur_12231_4274"/>
</filter>
<filter id="filter19_f_12231_4274" x="380.425" y="178.008" width="3.13428" height="3.13428" filterUnits="userSpaceOnUse" color-interpolation-filters="sRGB">
<feFlood flood-opacity="0" result="BackgroundImageFix"/>
<feBlend mode="normal" in="SourceGraphic" in2="BackgroundImageFix" result="shape"/>
<feGaussianBlur stdDeviation="0.5" result="effect1_foregroundBlur_12231_4274"/>
</filter>
<filter id="filter20_f_12231_4274" x="387.2" y="183.019" width="2.56738" height="2.56738" filterUnits="userSpaceOnUse" color-interpolation-filters="sRGB">
<feFlood flood-opacity="0" result="BackgroundImageFix"/>
<feBlend mode="normal" in="SourceGraphic" in2="BackgroundImageFix" result="shape"/>
<feGaussianBlur stdDeviation="0.5" result="effect1_foregroundBlur_12231_4274"/>
</filter>
<filter id="filter21_f_12231_4274" x="375.426" y="184.898" width="2.56738" height="2.56738" filterUnits="userSpaceOnUse" color-interpolation-filters="sRGB">
<feFlood flood-opacity="0" result="BackgroundImageFix"/>
<feBlend mode="normal" in="SourceGraphic" in2="BackgroundImageFix" result="shape"/>
<feGaussianBlur stdDeviation="0.5" result="effect1_foregroundBlur_12231_4274"/>
</filter>
<linearGradient id="paint0_linear_12231_4274" x1="18" y1="134" x2="402" y2="134" gradientUnits="userSpaceOnUse">
<stop stop-color="#36F8E2" stop-opacity="0"/>
<stop offset="1" stop-color="#36F8E2"/>
</linearGradient>
<linearGradient id="paint1_linear_12231_4274" x1="18" y1="134" x2="402" y2="134" gradientUnits="userSpaceOnUse">
<stop stop-color="#36F8E2" stop-opacity="0"/>
<stop offset="1" stop-color="#36F8E2"/>
</linearGradient>
<linearGradient id="paint2_linear_12231_4274" x1="18" y1="134" x2="402" y2="134" gradientUnits="userSpaceOnUse">
<stop stop-color="#36F8E2" stop-opacity="0"/>
<stop offset="1" stop-color="#36F8E2"/>
</linearGradient>
<linearGradient id="paint3_linear_12231_4274" x1="18" y1="134" x2="402" y2="134" gradientUnits="userSpaceOnUse">
<stop stop-color="#36F8E2" stop-opacity="0"/>
<stop offset="1" stop-color="#36F8E2"/>
</linearGradient>
<linearGradient id="paint4_linear_12231_4274" x1="18" y1="134" x2="402" y2="134" gradientUnits="userSpaceOnUse">
<stop offset="0.5" stop-color="#36F8E2" stop-opacity="0"/>
<stop offset="1" stop-color="#36F8E2"/>
</linearGradient>
<linearGradient id="paint5_linear_12231_4274" x1="18" y1="134" x2="402" y2="134" gradientUnits="userSpaceOnUse">
<stop offset="0.5" stop-color="#36F8E2" stop-opacity="0"/>
<stop offset="1" stop-color="#36F8E2"/>
</linearGradient>
</defs>
</svg>
